<?xml version="1.0" standalone="no"?>
<!DOCTYPE svg PUBLIC "-//W3C//DTD SVG 1.1//EN" "http://www.w3.org/Graphics/SVG/1.1/DTD/svg11.dtd" >
<svg xmlns="http://www.w3.org/2000/svg">
<metadata>
Generated by SVGconv.
Copyright   : Copyright (c) 2010 by Letterhead Studio. All rights reserved.
Designer    : Yuri Gordon
Foundry     : Letterhead Studio
Foundry URL : www.letterhead.ru
</metadata>
<defs>
<font id="Conqueror" horiz-adv-x="547" >
<font-face units-per-em="1000" ascent="1000" descent="337" />
<missing-glyph horiz-adv-x="275" />
<glyph unicode="&#32;" horiz-adv-x="275" />
<glyph unicode="&#33;" horiz-adv-x="226" d="M98 195q-13 105 -23 181q-10 76 -16.5 128.5q-6.5 52.5 -10 83q-3.5 30.5 -3.5 44.5q0 28 20 48q20 20 48 20q28 0 48 -20q20 -20 20 -48q0 -14 -3.5 -44.5q-3.5 -30.5 -10 -83q-6.5 -52.5 -16 -128.5q-9.5 -76 -22.5 -181zM50 57q0 26 18.5 44.5q18.5 18.5 44.5 18.5q26 0 44 -18.5q18 -18.5 18 -44.5q0 -26 -18 -44q-18 -18 -44 -18q-26 0 -44.5 18t-18.5 44z" />
<glyph unicode="&#34;" horiz-adv-x="416" d="M386 661q0 -14 -4 -24q-4 -10 -13 -23l-142 -160l-17 10l68 197q6 19 21 35q15 16 35 16q17 0 34.5 -11.5q17.5 -11.5 17.5 -39.5zt0 0zM226 661q0 -14 -4 -24q-4 -10 -13 -23l-142 -160l-17 10l68 197q6 19 21 35q15 16 35 16q17 0 34.5 -11.5t17.5 -39.5z" />
<glyph unicode="&#35;" horiz-adv-x="716" d="M511 423l-49 -146h163v-47h-179l-76 -230h-52l77 230h-153l-75 -230h-52l79 230h-144v47h159l48 146h-158v47h174l81 230h52l-82 -230h154l78 230h52l-81 -230h139v-47zM260 277h149l51 146l-151 0z" />
<glyph unicode="&#36;" horiz-adv-x="531" d="M324 409q36 -15 65 -33q29 -18 49.5 -42q20.5 -24 31.5 -55q11 -31 11 -71q0 -39 -14.5 -78.5q-14.5 -39.5 -43.5 -71.5q-29 -32 -73.5 -52.5q-44.5 -20.5 -104.5 -20.5l-10 -69h-37l11 74q-21 6 -44 17q-23 11 -44 24q-21 13 -39.5 27q-18.5 14 -31.5 26l16 27q42 -23 76.5 -39.5q34.5 -16.5 75.5 -21.5l41 283q-73 32 -113 77.5q-40 45.5 -40 105.5q0 39 15.5 74q15.5 35 43.5 62q28 27 66.5 44q38.5 17 83.5 19l9 62h37l-9 -63q20 -2 40 -5.5q20 -3.5 37 -8.5q19 -5 38 -11v-76l-127 23l-32 -221zM392 174q0 59 -25.5 91q-25.5 32 -72.5 53l-40 -269q29 1 54.5 11.5q25.5 10.5 44 27.5q18.5 17 29 39q10.5 22 10.5 47zt0 0zM178 567q0 -48 26.5 -80q26.5 -32 68.5 -55l31 212l-76 17q-17 -14 -33.5 -39.5t-16.5 -54.5z" />
<glyph unicode="&#37;" horiz-adv-x="715" d="M283 551q0 66 -26 100.5q-26 34.5 -62 34.5q-38 0 -60.5 -34.5q-22.5 -34.5 -22.5 -100.5q0 -64 22.5 -98.5q22.5 -34.5 60.5 -34.5q36 0 62 34.5q26 34.5 26 98.5zt0 0zM343 551q0 -33 -12 -61q-12 -28 -32 -48.5q-20 -20.5 -47 -32q-27 -11.5 -57 -11.5q-31 0 -57.5 11.5q-26.5 11.5 -46 32q-19.5 20.5 -30.5 48.5q-11 28 -11 61q0 39 11 67.5q11 28.5 30.5 48q19.5 19.5 46 29q26.5 9.5 57.5 9.5q30 0 57 -9.5q27 -9.5 47 -29q20 -19.5 32 -48q12 -28.5 12 -67.5zt0 0zM605 148q0 66 -26 100.5q-26 34.5 -62 34.5q-38 0 -60.5 -34.5q-22.5 -34.5 -22.5 -100.5q0 -64 22.5 -98.5q22.5 -34.5 60.5 -34.5q36 0 62 34.5q26 34.5 26 98.5zt0 0zM665 148q0 -33 -12 -61q-12 -28 -32 -48.5q-20 -20.5 -47 -32q-27 -11.5 -57 -11.5q-31 0 -57.5 11.5q-26.5 11.5 -46 32q-19.5 20.5 -30.5 48.5q-11 28 -11 61q0 39 11 67.5q11 28.5 30.5 48q19.5 19.5 46 29q26.5 9.5 57.5 9.5q30 0 57 -9.5q27 -9.5 47 -29q20 -19.5 32 -48q12 -28.5 12 -67.5zt0 0zM105 0h-55l560 700l55 0z" />
<glyph unicode="&#38;" horiz-adv-x="731" d="M490 202l159 -202h-133l-94 122l-117 -132q-6 -2 -12 -3q-5 -1 -11 -1.5q-6 -0.5 -11 -0.5q-112 0 -171.5 55.5q-59.5 55.5 -59.5 152.5q0 39 15 70.5q15 31.5 39.5 57q24.5 25.5 55.5 46q31 20.5 63 35.5q-14 18 -26.5 38.5q-12.5 20.5 -22 42q-9.5 21.5 -15 42q-5.5 20.5 -5.5 37.5q0 36 15.5 64q15.5 28 42.5 48q27 20 64.5 30.5q37.5 10.5 82.5 10.5q32 0 59.5 -3q27.5 -3 47.5 -7q23 -4 41 -9l-29 -81l-185 57q-17 -8 -28.5 -14.5q-11.5 -6.5 -19.5 -14q-8 -7.5 -11.5 -18q-3.5 -10.5 -3.5 -25.5q0 -38 25.5 -78.5q25.5 -40.5 55.5 -78.5l160 -203l113 173l-117 9v15h264v-15l-47 -9zM235 374q-29 -11 -50 -29q-21 -18 -34.5 -39q-13.5 -21 -19.5 -44q-6 -23 -6 -45q0 -32 10 -58q10 -26 28 -45q18 -19 42.5 -29.5q24.5 -10.5 53.5 -10.5q35 0 71.5 18.5q36.5 18.5 67.5 63.5z" />
<glyph unicode="&#39;" horiz-adv-x="256" d="M226 661q0 -14 -4 -24q-4 -10 -13 -23l-142 -160l-17 10l68 197q6 19 21 35q15 16 35 16q17 0 34.5 -11.5t17.5 -39.5z" />
<glyph unicode="&#40;" horiz-adv-x="368" d="M50 260q0 148 66 270q66 122 208 210l9 -17q-105 -87 -149.5 -203.5q-44.5 -116.5 -44.5 -259.5q0 -143 44.5 -259.5q44.5 -116.5 149.5 -203.5l-9 -17q-142 88 -208 209.5t-66 270.5z" />
<glyph unicode="&#41;" horiz-adv-x="368" d="M318 260q0 -149 -66 -270.5q-66 -121.5 -208 -209.5l-9 17q105 87 149.5 203.5q44.5 116.5 44.5 259.5q0 143 -44.5 259.5q-44.5 116.5 -149.5 203.5l9 17q142 -88 208 -210t66 -270z" />
<glyph unicode="&#42;" horiz-adv-x="404" d="M223 523l108 -109l-57 -42l-72 136l-72 -136l-57 42l108 109l-151 27l21 68l138 -70l-23 152h70l-22 -152l139 70l21 -68z" />
<glyph unicode="&#43;" horiz-adv-x="640" d="M342 273v-248h-44v248h-248v43h248v248h44v-248h248l0 -43z" />
<glyph unicode="&#44;" horiz-adv-x="225" d="M185 39q0 -16 -7.5 -36.5q-7.5 -20.5 -19.5 -42q-12 -21.5 -25.5 -42q-13.5 -20.5 -26 -37.5q-12.5 -17 -21 -28q-8.5 -11 -9.5 -12l-13 9l60 146l-10 -1q-26 0 -44.5 18q-18.5 18 -18.5 44q0 25 18.5 44q18.5 19 44.5 19q29 0 50.5 -21t21.5 -60z" />
<glyph unicode="&#45;" horiz-adv-x="290" d="M30 232v45h230l0 -45z" />
<glyph unicode="&#46;" horiz-adv-x="215" d="M50 57q0 26 18.5 44.5q18.5 18.5 44.5 18.5q26 0 44 -18.5q18 -18.5 18 -44.5q0 -26 -18 -44q-18 -18 -44 -18q-26 0 -44.5 18t-18.5 44z" />
<glyph unicode="&#47;" horiz-adv-x="475" d="M50 -200h-50l425 922l50 0z" />
<glyph unicode="&#48;" horiz-adv-x="500" d="M476 350q0 -89 -17.5 -157q-17.5 -68 -48 -114.5q-30.5 -46.5 -71.5 -70q-41 -23.5 -89 -23.5q-48 0 -89 28.5q-41 28.5 -71.5 77.5q-30.5 49 -48 115.5q-17.5 66.5 -17.5 143.5q0 89 17.5 157q17.5 68 48 114.5q30.5 46.5 71.5 70q41 23.5 89 23.5q48 0 89 -28.5q41 -28.5 71.5 -77.5q30.5 -49 48 -116q17.5 -67 17.5 -143zt0 0zM369 350q0 161 -28 248q-28 87 -91 87q-63 0 -91 -87q-28 -87 -28 -248q0 -161 28 -248q28 -87 91 -87q63 0 91 87t28 248z" />
<glyph unicode="&#49;" horiz-adv-x="500" d="M116 0v13l100 10v589l-126 -22l-4 11l212 119h17v-697l100 -9l0 -14z" />
<glyph unicode="&#50;" horiz-adv-x="500" d="M72 0v22l216 410q13 25 23 54.5q10 29.5 10 69.5q0 41 -25.5 71q-25.5 30 -79.5 30q-43 0 -75 -16.5q-32 -16.5 -67 -42.5l-22 25q17 18 37.5 34.5q20.5 16.5 46 29q25.5 12.5 55 20.5q29.5 8 64.5 8q48 0 81.5 -16q33.5 -16 54.5 -39.5q21 -23.5 30.5 -51q9.5 -27.5 9.5 -50.5q0 -49 -19 -92.5q-19 -43.5 -45 -78.5l-224 -288h299l0 -99z" />
<glyph unicode="&#51;" horiz-adv-x="500" d="M39 67l9 21q37 -14 70.5 -23.5q33.5 -9.5 65.5 -9.5q24 0 52.5 8.5q28.5 8.5 54 28q25.5 19.5 42.5 50.5q17 31 17 76q0 39 -11.5 65.5q-11.5 26.5 -30 42q-18.5 15.5 -41.5 22q-23 6.5 -45 6.5q-14 0 -26 -2q-12 -2 -21 -4l-12 28q29 16 56 36.5q27 20.5 47.5 44.5q20.5 24 33 50q12.5 26 12.5 53q0 18 -6 35.5q-6 17.5 -18 31q-12 13.5 -30 21.5q-18 8 -42 8q-12 0 -29 -3.5q-17 -3.5 -35.5 -10.5q-18.5 -7 -37 -18q-18.5 -11 -33.5 -26l-22 22q46 49 97.5 72q51.5 23 108.5 23q42 0 72 -10q30 -10 49.5 -26.5q19.5 -16.5 28.5 -38q9 -21.5 9 -45.5q0 -35 -16 -65.5q-16 -30.5 -41.5 -56q-25.5 -25.5 -57.5 -46.5q-32 -21 -63 -38q43 0 82 -10q39 -10 68 -31q29 -21 46 -53.5q17 -32.5 17 -76.5q0 -45 -19 -85q-19 -40 -54 -71q-35 -31 -84 -49q-49 -18 -108 -18z" />
<glyph unicode="&#52;" horiz-adv-x="500" d="M489 197h-98v-197h-99v197h-284v21l368 496h15v-451h98zM292 566l-195 -303l195 0z" />
<glyph unicode="&#53;" horiz-adv-x="500" d="M444 224q0 -37 -12 -77.5q-12 -40.5 -41 -74q-29 -33.5 -77 -55.5q-48 -22 -120 -22l-155 72l9 21q37 -14 70.5 -23.5q33.5 -9.5 65.5 -9.5q24 0 51.5 10.5q27.5 10.5 50.5 31q23 20.5 38.5 51q15.5 30.5 15.5 71.5q0 45 -14 75.5q-14 30.5 -37 49.5q-23 19 -52.5 27.5q-29.5 8.5 -60.5 8.5q-20 0 -44 -4.5q-24 -4.5 -40 -9.5l-14 14l61 320h298v-99h-266l-58 -198q25 8 54.5 15q29.5 7 54.5 7q46 0 86.5 -12.5q40.5 -12.5 70.5 -38q30 -25.5 47.5 -63t17.5 -87.5z" />
<glyph unicode="&#54;" horiz-adv-x="500" d="M465 223q0 -48 -17 -90.5q-17 -42.5 -46 -75q-29 -32.5 -68 -51q-39 -18.5 -82 -18.5q-56 0 -96.5 26.5q-40.5 26.5 -66.5 70.5q-26 44 -38.5 101q-12.5 57 -12.5 118q0 87 15.5 162q15.5 75 46.5 131q31 56 78.5 88q47.5 32 111.5 32q35 0 72.5 -17.5q37.5 -17.5 69.5 -43.5l-14 -23q-37 16 -63.5 23.5q-26.5 7.5 -50.5 7.5q-35 0 -63 -14q-28 -14 -49 -46.5q-21 -32.5 -34 -84q-13 -51.5 -18 -126.5l129 53q50 0 87 -17.5q37 -17.5 61 -48q24 -30.5 36 -71q12 -40.5 12 -86.5zt0 0zM241 388q-24 0 -51.5 -8q-27.5 -8 -51.5 -17q-1 -15 -1 -31q0 -16 0 -33q0 -56 5.5 -107q5.5 -51 19 -89.5q13.5 -38.5 35.5 -61q22 -22.5 55 -22.5q27 0 49.5 16q22.5 16 38 44q15.5 28 24.5 64.5q9 36.5 9 78.5q0 84 -35.5 125t-96.5 41z" />
<glyph unicode="&#55;" horiz-adv-x="500" d="M82 0l306 601h-349v99h418v-34l-270 -666z" />
<glyph unicode="&#56;" horiz-adv-x="500" d="M381 157q0 31 -12.5 55.5q-12.5 24.5 -33.5 46.5q-21 22 -48.5 42q-27.5 20 -58.5 41q-34 -19 -60 -44q-23 -22 -41.5 -52.5q-18.5 -30.5 -18.5 -70.5q0 -39 13.5 -67.5q13.5 -28.5 34.5 -47q21 -18.5 46.5 -27.5q25.5 -9 49.5 -9q24 0 47 9.5q23 9.5 41.5 27q18.5 17.5 29.5 42q11 24.5 11 54.5zt0 0zM367 576q0 18 -6 36.5q-6 18.5 -18 33.5q-12 15 -31 24.5q-19 9.5 -46 9.5q-19 0 -38.5 -7.5q-19.5 -7.5 -35 -21.5q-15.5 -14 -25.5 -34q-10 -20 -10 -46q0 -26 8.5 -46q8.5 -20 24 -37q15.5 -17 37 -32.5q21.5 -15.5 47.5 -31.5q23 15 40.5 35.5q17.5 20.5 29 41.5q11.5 21 17.5 40.5q6 19.5 6 34.5zt0 0zM466 191q0 -51 -17.5 -89.5q-17.5 -38.5 -47.5 -64.5q-30 -26 -68.5 -39q-38.5 -13 -80.5 -13q-42 0 -82.5 9.5q-40.5 9.5 -72 32q-31.5 22.5 -50.5 59q-19 36.5 -19 90.5q0 36 17 65.5q17 29.5 42.5 53q25.5 23.5 53.5 41q28 17.5 51 29.5q-37 25 -61.5 47.5q-24.5 22.5 -38.5 45q-14 22.5 -20 47q-6 24.5 -6 54.5q0 34 15 63q15 29 41.5 49.5q26.5 20.5 61 32q34.5 11.5 73.5 11.5q23 0 54.5 -6q31.5 -6 59.5 -21.5q28 -15.5 47.5 -43.5q19.5 -28 19.5 -72q0 -31 -12 -58q-12 -27 -30.5 -48.5q-18.5 -21.5 -41 -38q-22.5 -16.5 -44.5 -27.5q25 -16 53 -35.5q28 -19.5 50.5 -44q22.5 -24.5 37.5 -56.5t15 -73z" />
<glyph unicode="&#57;" horiz-adv-x="500" d="M464 400q0 -97 -15.5 -173.5q-15.5 -76.5 -46.5 -130q-31 -53.5 -78.5 -81.5q-47.5 -28 -111.5 -28l-142 61l10 23q37 -16 70.5 -23.5q33.5 -7.5 57.5 -7.5q31 0 57 14q26 14 46 46q20 32 33 83.5q13 51.5 18 126.5l-129 -52q-50 0 -87 17.5q-37 17.5 -61 48q-24 30.5 -36 71q-12 40.5 -12 86.5q0 48 17 90.5q17 42.5 46 75q29 32.5 67.5 51q38.5 18.5 82.5 18.5q56 0 96.5 -26.5q40.5 -26.5 66.5 -70.5q26 -44 38.5 -101q12.5 -57 12.5 -118zt0 0zM261 317q23 0 50.5 7.5q27.5 7.5 51.5 15.5q1 16 1.5 32q0.5 16 0.5 33q0 56 -5.5 107q-5.5 51 -19 89.5q-13.5 38.5 -35.5 61q-22 22.5 -55 22.5q-27 0 -49.5 -16q-22.5 -16 -38 -44q-15.5 -28 -24.5 -64.5q-9 -36.5 -9 -78.5q0 -84 35.5 -124.5t96.5 -40.5z" />
<glyph unicode="&#58;" horiz-adv-x="215" d="M50 337q0 26 18.5 44.5q18.5 18.5 44.5 18.5q26 0 44 -18.5q18 -18.5 18 -44.5q0 -26 -18 -44q-18 -18 -44 -18q-26 0 -44.5 18q-18.5 18 -18.5 44zt0 0zM50 57q0 26 18.5 44.5q18.5 18.5 44.5 18.5q26 0 44 -18.5q18 -18.5 18 -44.5q0 -26 -18 -44q-18 -18 -44 -18q-26 0 -44.5 18t-18.5 44z" />
<glyph unicode="&#59;" horiz-adv-x="225" d="M185 39q0 -16 -7.5 -36.5q-7.5 -20.5 -19.5 -42q-12 -21.5 -25.5 -42q-13.5 -20.5 -26 -37.5q-12.5 -17 -21 -28q-8.5 -11 -9.5 -12l-13 9l60 146l-10 -1q-26 0 -44.5 18q-18.5 18 -18.5 44q0 25 18.5 44q18.5 19 44.5 19q29 0 50.5 -21q21.5 -21 21.5 -60zt0 0zM50 337q0 26 18.5 44.5q18.5 18.5 44.5 18.5q26 0 44 -18.5q18 -18.5 18 -44.5q0 -26 -18 -44q-18 -18 -44 -18q-26 0 -44.5 18t-18.5 44z" />
<glyph unicode="&#60;" horiz-adv-x="519" d="M469 43l-439 253l439 253v-50l-352 -203l352 -203z" />
<glyph unicode="&#61;" horiz-adv-x="640" d="M50 335v44h540v-44zM50 190v43h540l0 -43z" />
<glyph unicode="&#62;" horiz-adv-x="519" d="M50 93l352 203l-352 203v50l439 -253l-439 -253z" />
<glyph unicode="&#63;" horiz-adv-x="426" d="M386 538q0 -42 -15 -69q-15 -27 -38 -47q-23 -20 -49.5 -35.5q-26.5 -15.5 -49.5 -34q-23 -18.5 -38 -43q-15 -24.5 -15 -61.5q0 -25 7 -53l-31 0q-13 23 -18.5 43q-5.5 20 -5.5 40q0 34 12 61q12 27 30.5 50q18.5 23 39.5 43q21 20 39.5 39.5q18.5 19.5 30.5 40q12 20.5 12 45.5q0 22 -6 39q-6 17 -14 30q-9 14 -19 26l-189 -44l-19 76q23 4 48 8q21 3 46.5 5.5q25.5 2.5 51.5 2.5q56 0 92.5 -18.5q36.5 -18.5 58.5 -44.5q22 -26 30.5 -53.5q8.5 -27.5 8.5 -45.5zt0 0zM109 57q0 26 18.5 44.5q18.5 18.5 44.5 18.5q26 0 44 -18.5q18 -18.5 18 -44.5q0 -26 -18 -44q-18 -18 -44 -18q-26 0 -44.5 18t-18.5 44z" />
<glyph unicode="&#64;" horiz-adv-x="824" d="M503 364q-54 -8 -96.5 -34q-42.5 -26 -72.5 -60q-30 -34 -45.5 -71.5q-15.5 -37.5 -15.5 -68.5q0 -38 11 -54.5q11 -16.5 28 -16.5q15 0 34.5 15q19.5 15 40.5 39.5q21 24.5 41.5 56.5q20.5 32 37 65.5q16.5 33.5 26.5 67q10 33.5 11 61.5zt0 0zM779 282q0 -72 -30.5 -125q-30.5 -53 -75 -87.5q-44.5 -34.5 -95 -51.5q-50.5 -17 -89.5 -17l0 207q-17 -39 -44.5 -77.5q-27.5 -38.5 -59.5 -68.5q-32 -30 -64.5 -48.5q-32.5 -18.5 -57.5 -18.5q-30 0 -49 22.5q-19 22.5 -19 74.5q0 39 24.5 90.5q24.5 51.5 71.5 98.5q47 47 116.5 82q69.5 35 159.5 43l0 -366q43 11 72.5 34.5q29.5 23.5 47 53.5q17.5 30 25 64.5q7.5 34.5 7.5 68.5q0 70 -20.5 117.5q-20.5 47.5 -54.5 76.5q-34 29 -79.5 41.5q-45.5 12.5 -94.5 12.5q-64 0 -129 -26q-65 -26 -117.5 -74q-52.5 -48 -85.5 -116q-33 -68 -33 -152q0 -73 23 -124q23 -51 59.5 -82.5q36.5 -31.5 82 -45.5q45.5 -14 89.5 -14q28 0 61 5.5q33 5.5 67.5 14.5q34.5 9 67.5 20.5q33 11.5 60 22.5l7 -20l-260 -102q-77 0 -136 23q-59 23 -99.5 65.5q-40.5 42.5 -61 102.5q-20.5 60 -20.5 134q0 88 39 160.5q39 72.5 100 124q61 51.5 136.5 79.5q75.5 28 149.5 28q68 0 125 -17.5q57 -17.5 98 -50q41 -32.5 63.5 -79t22.5 -104.5z" />
<glyph unicode="&#65;" horiz-adv-x="742" d="M737 15v-15h-273v15l76 10l-77 226h-218l-75 -224l84 -12v-15h-249v15l75 10l281 690h20l276 -688zM444 305l-93 267l-88 -267z" />
<glyph unicode="&#66;" horiz-adv-x="600" d="M403 363q31 -7 59.5 -20q28.5 -13 50 -33.5q21.5 -20.5 34.5 -48.5q13 -28 13 -64q0 -53 -22.5 -90q-22.5 -37 -56.5 -61q-34 -24 -74.5 -35q-40.5 -11 -76.5 -11h-290v15l91 9v652l-91 9v15h280q33 0 69 -10q36 -10 67 -31.5q31 -21.5 51 -55q20 -33.5 20 -80.5q0 -29 -10 -54.5q-10 -25.5 -26.5 -46q-16.5 -20.5 -39.5 -35.5q-23 -15 -48 -24zt0 0zM291 45q42 0 72.5 12.5q30.5 12.5 51 33.5q20.5 21 30.5 48.5q10 27.5 10 57.5q0 60 -40.5 101q-40.5 41 -123.5 41h-61v-294zM230 659v-279h56q37 0 64.5 12.5q27.5 12.5 45.5 32.5q18 20 27 45.5q9 25.5 9 52.5q0 27 -9 51.5q-9 24.5 -27 43.5q-18 19 -45.5 30q-27.5 11 -64.5 11z" />
<glyph unicode="&#67;" horiz-adv-x="661" d="M621 59q-18 -9 -46.5 -21.5q-28.5 -12.5 -61 -24q-32.5 -11.5 -64.5 -20q-32 -8.5 -58 -8.5q-87 0 -153 25.5q-66 25.5 -110 72q-44 46.5 -66 113q-22 66.5 -22 147.5q0 74 32 141.5q32 67.5 87 118.5q55 51 127 81.5q72 30.5 153 30.5q32 0 61 -3q29 -3 50 -6q25 -4 46 -8l-20 -75l-252 39q-92 -38 -133 -120q-41 -82 -41 -199q0 -72 20 -126.5q20 -54.5 57 -92q37 -37.5 89 -56.5q52 -19 115 -19q13 0 36.5 3q23.5 3 50 8q26.5 5 52 11.5q25.5 6.5 42.5 13.5z" />
<glyph unicode="&#68;" horiz-adv-x="736" d="M328 700q90 0 157 -31q67 -31 111.5 -81q44.5 -50 67 -112q22.5 -62 22.5 -125q0 -62 -21 -125q-21 -63 -65 -113q-44 -50 -111.5 -81.5q-67.5 -31.5 -160.5 -31.5h-288v15l91 9v652l-91 9v15zM328 45q62 0 107.5 24.5q45.5 24.5 75 66.5q29.5 42 44 97.5q14.5 55.5 14.5 117.5q0 62 -14.5 118q-14.5 56 -44 98q-29.5 42 -75 67q-45.5 25 -107.5 25h-98l0 -614z" />
<glyph unicode="&#69;" horiz-adv-x="562" d="M465 319h-234v-284l281 42l-12 -77h-460v15l91 9v652l-91 9v15h459l-10 -78l-259 43v-319l235 64z" />
<glyph unicode="&#70;" horiz-adv-x="511" d="M231 665v-319l234 64v-91h-234v-295l91 -9v-15h-282v15l91 9v652l-91 9v15h459l-10 -78z" />
<glyph unicode="&#71;" horiz-adv-x="693" d="M643 337v-294h-2q-18 -7 -46.5 -17q-28.5 -10 -60.5 -19q-32 -9 -64.5 -15.5q-32.5 -6.5 -57.5 -6.5q-87 0 -154.5 28q-67.5 28 -113.5 77q-46 49 -70 114q-24 65 -24 139q0 74 32 141.5q32 67.5 87 118.5q55 51 127 81.5q72 30.5 153 30.5q33 0 61.5 -3q28.5 -3 49.5 -6q25 -4 45 -8l-19 -75l-253 40q-91 -38 -129.5 -121q-38.5 -83 -38.5 -199q0 -72 21 -126.5q21 -54.5 58.5 -92q37.5 -37.5 90 -56.5q52.5 -19 116.5 -19q14 0 39.5 3q25.5 3 53.5 9l0 276z" />
<glyph unicode="&#72;" horiz-adv-x="842" d="M711 676v-652l91 -9v-15h-295v15l104 9v310h-380v-310l104 -9v-15h-295v15l91 9v652l-91 9v15h295v-15l-104 -9v-287h380v287l-104 9v15h295l0 -15z" />
<glyph unicode="&#73;" horiz-adv-x="375" d="M231 24l104 -9v-15h-295v15l91 9v652l-91 9v15h295v-15l-104 -9z" />
<glyph unicode="&#74;" horiz-adv-x="341" d="M131 676l-91 9v15h294v-15l-104 -9v-652q0 -41 -14.5 -84.5q-14.5 -43.5 -44.5 -79q-30 -35.5 -76.5 -58.5q-46.5 -23 -110.5 -23l-9 34q27 0 54.5 6q27.5 6 50 27.5q22.5 21.5 37 63.5q14.5 42 14.5 114z" />
<glyph unicode="&#75;" horiz-adv-x="693" d="M516 0l-196 324h-89v-300l98 -9v-15h-289v15l91 9v652l-91 9v15h277v-15l-86 -9v-311h88l197 313l-51 7v15h209v-15l-58 -6l-233 -300l247 -358l63 -6l0 -15z" />
<glyph unicode="&#76;" horiz-adv-x="550" d="M532 0h-492v15l90 9v652l-90 9v15h281v-15l-91 -9v-641l314 62z" />
<glyph unicode="&#77;" horiz-adv-x="959" d="M646 0v15l91 9l-21 596l-240 -620h-24l-246 620l-20 -593l91 -12v-15h-247v15l91 11l52 650l-91 10v14h200l205 -536l212 536h206v-14l-91 -10l24 -652l91 -9l0 -15z" />
<glyph unicode="&#78;" horiz-adv-x="785" d="M674 -5l-29 -7l-482 569v-534l104 -9v-14h-247v14l91 9v653l-91 10v14h143l459 -529v505l-104 10v14h247v-14l-91 -10z" />
<glyph unicode="&#79;" horiz-adv-x="774" d="M724 350q0 -89 -24 -157q-24 -68 -68 -114.5q-44 -46.5 -106 -70q-62 -23.5 -139 -23.5q-77 0 -139 28.5q-62 28.5 -106 77.5q-44 49 -68 115.5q-24 66.5 -24 143.5q0 89 24 157q24 68 68 114.5q44 46.5 106 70q62 23.5 139 23.5q77 0 139 -28.5q62 -28.5 106 -77.5q44 -49 68 -116q24 -67 24 -143zt0 0zM614 350q0 80 -16.5 142.5q-16.5 62.5 -46 105q-29.5 42.5 -71.5 65q-42 22.5 -93 22.5q-51 0 -93 -22.5q-42 -22.5 -72 -65q-30 -42.5 -46 -105q-16 -62.5 -16 -142.5q0 -80 16 -142.5q16 -62.5 46 -105q30 -42.5 72 -65q42 -22.5 93 -22.5q51 0 93 22.5q42 22.5 71.5 65q29.5 42.5 46 105t16.5 142.5z" />
<glyph unicode="&#80;" horiz-adv-x="581" d="M231 23l91 -9v-14h-282v14l91 9v653l-91 10v14h282q36 0 76.5 -11q40.5 -11 74.5 -34q34 -23 56.5 -60.5q22.5 -37.5 22.5 -89.5q0 -55 -23.5 -94q-23.5 -39 -61 -64q-37.5 -25 -85 -36.5q-47.5 -11.5 -95.5 -11.5q-14 0 -28 1q-14 1 -28 3zM231 338q15 -3 29 -3q40 0 74 13.5q34 13.5 59 36.5q25 23 39 54q14 31 14 66q0 30 -10 57q-10 27 -30 48q-20 21 -50.5 33q-30.5 12 -72.5 12l-52 0z" />
<glyph unicode="&#81;" horiz-adv-x="773" d="M763 -176l-482 179q-50 18 -92.5 51.5q-42.5 33.5 -73 78.5q-30.5 45 -48 100q-17.5 55 -17.5 117q0 89 24 157q24 68 67.5 114.5q43.5 46.5 105.5 70q62 23.5 139 23.5q77 0 139 -28.5q62 -28.5 106 -77.5q44 -49 68 -116q24 -67 24 -143q0 -81 -21 -144.5q-21 -63.5 -58.5 -109.5q-37.5 -46 -91 -73q-53.5 -27 -117.5 -34l391 -76zM386 16q103 0 162.5 87q59.5 87 59.5 247q0 161 -59.5 248q-59.5 87 -162.5 87q-103 0 -162 -87q-59 -87 -59 -248q0 -160 59 -247t162 -87z" />
<glyph unicode="&#82;" horiz-adv-x="685" d="M494 0l-206 311q-7 0 -17 0q-10 0 -40 1l0 -289l91 -9v-14h-282v14l91 9v653l-91 10v14h281q36 0 76.5 -11q40.5 -11 74.5 -34q34 -23 56.5 -60.5q22.5 -37.5 22.5 -89.5q0 -42 -14.5 -74q-14.5 -32 -39 -55q-24.5 -23 -57 -37q-32.5 -14 -68.5 -21l242 -297l59 -7v-14zM446 505q0 30 -10 57q-10 27 -30 48q-20 21 -50.5 33q-30.5 12 -72.5 12h-52v-305q5 -1 10 -1.5q5 -0.5 11 -0.5h22q37 0 68.5 12q31.5 12 54.5 33.5q23 21.5 36 50t13 61.5z" />
<glyph unicode="&#83;" horiz-adv-x="530" d="M295 411q36 -14 71 -32.5q35 -18.5 62.5 -44q27.5 -25.5 44.5 -59q17 -33.5 17 -77.5q0 -39 -15.5 -77q-15.5 -38 -46.5 -68q-31 -30 -77 -49q-46 -19 -107 -19q-30 0 -59.5 10q-29.5 10 -56 23.5q-26.5 13.5 -49.5 28q-23 14.5 -39 24.5l13 27q48 -20 95.5 -34.5q47.5 -14.5 98.5 -14.5q31 0 58 8.5q27 8.5 47 23.5q20 15 32 36q12 21 12 47q0 31 -10.5 54.5q-10.5 23.5 -29 41.5q-18.5 18 -43.5 31.5q-25 13.5 -53 25.5q-40 17 -73.5 35.5q-33.5 18.5 -58 41.5q-24.5 23 -38 52.5q-13.5 29.5 -13.5 69.5q0 40 17 76q17 36 46.5 63.5q29.5 27.5 70 43.5q40.5 16 88.5 16q32 0 61 -2.5q29 -2.5 50 -5.5q25 -4 45 -8l-19 -76l-237 38q-17 -14 -33.5 -39.5q-16.5 -25.5 -16.5 -54.5q0 -31 11.5 -54.5q11.5 -23.5 31 -41.5q19.5 -18 46 -32.5t57.5 -27.5z" />
<glyph unicode="&#84;" horiz-adv-x="605" d="M584 623l-232 41v-641l123 -9v-14h-344v14l122 9v641l-231 -41l-12 77l585 0z" />
<glyph unicode="&#85;" horiz-adv-x="796" d="M756 685l-91 -9v-438q0 -48 -16.5 -93.5q-16.5 -45.5 -48 -80.5q-31.5 -35 -78.5 -56q-47 -21 -107 -21q-61 0 -113 13q-52 13 -90 43q-38 30 -59.5 78q-21.5 48 -21.5 117v438l-91 9v15h295v-15l-104 -9v-438q0 -41 11.5 -75.5q11.5 -34.5 34 -59q22.5 -24.5 57 -38.5q34.5 -14 81.5 -14q92 0 144.5 48.5q52.5 48.5 52.5 138.5v438l-105 9v15l249 0z" />
<glyph unicode="&#86;" horiz-adv-x="720" d="M562 673l-85 11v16h249v-16l-74 -10l-281 -689h-21l-275 688l-81 11v16h272v-16l-75 -10l189 -548z" />
<glyph unicode="&#87;" horiz-adv-x="958" d="M964 700v-16l-76 -10l-219 -689h-19l-170 499l-172 -499h-20l-213 688l-81 11v16h268v-16l-75 -10l131 -536l168 562h17l175 -562l120 535l-84 11l0 16z" />
<glyph unicode="&#88;" horiz-adv-x="707" d="M612 675l-221 -295l205 -356l86 -9v-15h-293v15l98 9l-150 260l-143 -260l80 -9v-15h-249v15l74 9l211 308l-199 343l-86 9v16h282v-16l-86 -9l143 -248l153 248l-75 9v16h240l0 -16z" />
<glyph unicode="&#89;" horiz-adv-x="622" d="M363 24l104 -9v-15h-294v15l91 9v226l-213 423l-81 11v16h273v-16l-76 -10l164 -361l156 360l-84 11v16h249v-16l-75 -10l-214 -421z" />
<glyph unicode="&#90;" horiz-adv-x="577" d="M30 0v24l392 637l-365 -39l-11 78h501v-25l-393 -637l366 40l9 -78z" />
<glyph unicode="&#91;" horiz-adv-x="261" d="M50 -220v960h181v-24h-107v-912h107l0 -24z" />
<glyph unicode="&#92;" horiz-adv-x="475" d="M425 -200l-425 922h50l425 -922z" />
<glyph unicode="&#93;" horiz-adv-x="281" d="M50 -220v24h107v912h-107v24h181l0 -960z" />
<glyph unicode="&#94;" horiz-adv-x="454" d="M407 549l-180 148l-180 -148h-22l183 191h38l183 -191z" />
<glyph unicode="&#95;" horiz-adv-x="532" d="M0 -80v40h532l0 -40z" />
<glyph unicode="&#96;" horiz-adv-x="296" d="M246 544h-35l-161 162l98 0z" />
<glyph unicode="&#97;" horiz-adv-x="441" d="M165 -10q-27 0 -51.5 6q-24.5 6 -43 19.5q-18.5 13.5 -29.5 35q-11 21.5 -11 51.5q0 38 28.5 66.5q28.5 28.5 70.5 48.5q42 20 90 32q48 12 88 17q0 77 -14 113q-14 36 -37 47l-183 -73l-28 61q62 24 114.5 31q52.5 7 96.5 7q14 0 37 -5q23 -5 44.5 -24q21.5 -19 37.5 -56q16 -37 16 -101v-266h-84v74zM186 52q15 0 34 6q19 6 37 14q18 8 31.5 16q13.5 8 18.5 13l0 144q-27 -3 -60 -14q-33 -11 -61.5 -28.5q-28.5 -17.5 -47.5 -40.5q-19 -23 -19 -49q0 -30 15.5 -45.5t51.5 -15.5z" />
<glyph unicode="&#98;" horiz-adv-x="537" d="M261 -15q-45 0 -92 16.5q-47 16.5 -92 46.5l0 606l-57 86h141v-353l138 64q39 0 75 -16q36 -16 63.5 -44.5q27.5 -28.5 43.5 -69q16 -40.5 16 -89.5q0 -63 -24.5 -109.5q-24.5 -46.5 -60.5 -77q-36 -30.5 -77 -45.5q-41 -15 -74 -15zt0 0zM242 23q19 0 48 8.5q29 8.5 56 31.5q27 23 46.5 63.5q19.5 40.5 19.5 105.5q0 49 -17.5 80q-17.5 31 -42 49q-24.5 18 -50.5 24.5q-26 6.5 -42 6.5q-27 0 -48.5 -7.5q-21.5 -7.5 -50.5 -23.5l0 -318q16 -10 37.5 -15t43.5 -5z" />
<glyph unicode="&#99;" horiz-adv-x="443" d="M258 -15q-39 0 -77.5 12.5q-38.5 12.5 -70 40.5q-31.5 28 -51 72q-19.5 44 -19.5 107q0 61 22 105q22 44 55 73q33 29 73 43q40 14 76 14q35 0 71.5 -5.5q36.5 -5.5 74.5 -13.5l-16 -70l-195 54q-12 -13 -25 -29.5q-13 -16.5 -23 -40q-10 -23.5 -16.5 -55q-6.5 -31.5 -6.5 -75.5q0 -50 13 -82q13 -32 35 -50q22 -18 52 -25q30 -7 63 -7q15 0 33 3.5q18 3.5 35 8q17 4.5 31 10q14 5.5 22 10.5l9 -21z" />
<glyph unicode="&#100;" horiz-adv-x="522" d="M383 0v71l-124 -86q-36 0 -74.5 12q-38.5 12 -71 39.5q-32.5 27.5 -53 71q-20.5 43.5 -20.5 106.5q0 61 20.5 104q20.5 43 51.5 70.5q31 27.5 68 40.5q37 13 69 13q39 0 73 -10q34 -10 61 -25l0 247l-57 86h141v-740zM383 375q-28 17 -51 26q-23 9 -53 9q-20 0 -46.5 -9q-26.5 -9 -50.5 -31q-24 -22 -40.5 -60q-16.5 -38 -16.5 -96q0 -46 14 -77q14 -31 36.5 -50.5q22.5 -19.5 49.5 -28q27 -8.5 54 -8.5q22 0 48 13q26 13 56 37z" />
<glyph unicode="&#101;" horiz-adv-x="451" d="M262 -15q-37 0 -76.5 11q-39.5 11 -71.5 37.5q-32 26.5 -53 69q-21 42.5 -21 105.5q0 60 18 106q18 46 46.5 76.5q28.5 30.5 64.5 46q36 15.5 72 15.5q34 0 66.5 -8q32.5 -8 57.5 -28q25 -20 40 -54.5q15 -34.5 15 -88.5l-290 0q-2 -15 -3.5 -31q-1.5 -16 -1.5 -34q0 -43 14 -72.5q14 -29.5 38 -48q24 -18.5 55 -26.5q31 -8 65 -8q30 0 64 10.5q34 10.5 57 21.5l8 -21zM244 426q-33 0 -64.5 -33q-31.5 -33 -46.5 -102l202 28q-2 16 -6 35q-4 19 -13.5 35q-9.5 16 -27 26.5t-44.5 10.5z" />
<glyph unicode="&#102;" horiz-adv-x="326" d="M40 0v13l59 8v375h-36v41h36v165q0 41 10.5 67.5q10.5 26.5 28 42.5q17.5 16 39 22q21.5 6 42.5 6q42 0 78 -3q36 -3 64 -5l-19 -62l-159 40v-273h109l-10 -41h-99v-375l76 -8l0 -13z" />
<glyph unicode="&#103;" horiz-adv-x="501" d="M25 -177q0 24 14 46q14 22 36.5 41q22.5 19 50.5 34.5q28 15.5 56 25.5q-32 7 -62.5 11.5q-30.5 4.5 -53.5 7.5l0 95l118 21q-49 15 -82 57.5q-33 42.5 -33 108.5q0 41 13.5 74.5q13.5 33.5 37.5 57q24 23.5 57 36.5q33 13 73 13q22 0 49.5 -6.5q27.5 -6.5 44.5 -16.5l137 51v-77h-107q24 -23 40.5 -52.5q16.5 -29.5 16.5 -79.5q0 -26 -8.5 -54q-8.5 -28 -28 -53q-19.5 -25 -50.5 -44q-31 -19 -75 -27l-156 -29v-4q92 -12 157 -32.5q65 -20.5 106.5 -47q41.5 -26.5 60.5 -57.5q19 -31 19 -64q0 -37 -20 -65.5q-20 -28.5 -52.5 -48.5q-32.5 -20 -73 -30.5q-40.5 -10.5 -81.5 -10.5q-43 0 -80.5 7q-37.5 7 -65 21.5q-27.5 14.5 -43 37q-15.5 22.5 -15.5 53.5zt0 0zM382 -163q0 24 -13 42.5q-13 18.5 -35 33.5q-22 15 -50 26.5q-28 11.5 -59 19.5q-24 -10 -46 -24q-22 -14 -39.5 -31.5q-17.5 -17.5 -27.5 -37.5q-10 -20 -10 -42q0 -51 36.5 -71q36.5 -20 102.5 -20q21 0 46 8q25 8 46 22q21 14 35 33q14 19 14 41zt0 0zM155 271q0 -26 6 -53q6 -27 17.5 -49q11.5 -22 29.5 -35.5q18 -13.5 42 -13.5q24 0 42 13.5q18 13.5 29.5 35.5q11.5 22 17.5 49q6 27 6 53q0 27 -6 54.5q-6 27.5 -17.5 50q-11.5 22.5 -29.5 37q-18 14.5 -42 14.5q-24 0 -42 -14.5q-18 -14.5 -29.5 -37q-11.5 -22.5 -17.5 -50t-6 -54.5z" />
<glyph unicode="&#104;" horiz-adv-x="563" d="M315 450q33 0 62 -11q29 -11 51 -35q22 -24 35 -61q13 -37 13 -89v-231l80 -9v-14h-235v14l71 9v231q0 43 -10 71.5q-10 28.5 -26 45.5q-16 17 -36 24q-20 7 -40 7q-29 0 -55 -11q-26 -11 -54 -26l0 -342l79 -9v-14h-235v14l72 9v631l-59 86h143l0 -344z" />
<glyph unicode="&#105;" horiz-adv-x="275" d="M33 14l71 9v329l-59 85h143v-414l80 -9v-14h-235zM141 538q-21 0 -37 15.5q-16 15.5 -16 37.5q0 23 16 39q16 16 37 16q23 0 39 -16q16 -16 16 -39q0 -22 -16 -37.5t-39 -15.5z" />
<glyph unicode="&#106;" horiz-adv-x="232" d="M176 437v-539q0 -60 -20 -97.5q-20 -37.5 -48.5 -58.5q-28.5 -21 -58.5 -29q-30 -8 -50 -9l-7 24q28 4 47.5 13q19.5 9 31 28q11.5 19 16.5 50q5 31 5 79v454l-58 85zM134 538q-21 0 -37 15.5q-16 15.5 -16 37.5q0 23 16 39q16 16 37 16q23 0 39 -16q16 -16 16 -39q0 -22 -16 -37.5t-39 -15.5z" />
<glyph unicode="&#107;" horiz-adv-x="464" d="M170 185v-162l81 -9v-14h-236v14l71 9v632l-58 85h142v-519l179 216h89l-175 -166l197 -271h-108l-144 221z" />
<glyph unicode="&#108;" horiz-adv-x="265" d="M250 14v-14h-235v14l71 9v631l-57 86h141l0 -717z" />
<glyph unicode="&#109;" horiz-adv-x="833" d="M826 14v-14h-236v14l72 9v241q0 40 -7.5 66.5q-7.5 26.5 -21 42.5q-13.5 16 -31 22.5q-17.5 6.5 -36.5 6.5q-24 0 -50 -12q-26 -12 -49 -29l0 -338l79 -9v-14h-234v14l71 9v241q0 42 -8.5 69q-8.5 27 -22 42.5q-13.5 15.5 -30.5 21q-17 5.5 -35 5.5q-26 0 -49 -11q-23 -11 -50 -31l0 -337l79 -9v-14h-234v14l71 9v328l-57 86h141v-47l113 60q38 0 74 -15q36 -15 59 -48l146 63q33 0 63 -9.5q30 -9.5 53 -31.5q23 -22 36.5 -57.5q13.5 -35.5 13.5 -87.5l0 -241z" />
<glyph unicode="&#110;" horiz-adv-x="591" d="M332 447q33 0 64 -11q31 -11 55 -34q24 -23 39 -59.5q15 -36.5 15 -88.5v-231l79 -9v-14h-235v14l72 9v231q0 41 -11 69q-11 28 -29 44.5q-18 16.5 -40 23.5q-22 7 -44 7q-32 0 -56 -11.5q-24 -11.5 -53 -28.5l0 -335l80 -9v-14h-235v14l71 9v328l-58 86h142l0 -47z" />
<glyph unicode="&#111;" horiz-adv-x="528" d="M394 219q0 50 -10.5 88.5q-10.5 38.5 -29 65q-18.5 26.5 -43 40q-24.5 13.5 -52.5 13.5q-57 0 -91 -53.5q-34 -53.5 -34 -153.5q0 -100 34 -153.5q34 -53.5 91 -53.5q28 0 52.5 14q24.5 14 43 40q18.5 26 29 64.5q10.5 38.5 10.5 88.5zt0 0zM488 219q0 -50 -18.5 -93q-18.5 -43 -49.5 -74.5q-31 -31.5 -73 -49q-42 -17.5 -88 -17.5q-47 0 -87 17.5q-40 17.5 -69 49q-29 31.5 -46 74.5q-17 43 -17 93q0 58 17 102q17 44 46 73.5q29 29.5 69 44q40 14.5 87 14.5q46 0 88 -14.5q42 -14.5 73 -44q31 -29.5 49.5 -73.5t18.5 -102z" />
<glyph unicode="&#112;" horiz-adv-x="544" d="M292 453q40 0 78 -13q38 -13 68 -40.5q30 -27.5 48 -71q18 -43.5 18 -103.5q0 -63 -20.5 -108.5q-20.5 -45.5 -52 -74.5q-31.5 -29 -69 -43q-37.5 -14 -70.5 -14q-31 0 -67 8.5q-36 8.5 -62 23.5l0 -292l76 -9v-12h-219v12l59 9v626l-57 86h141v-47zM410 225q0 50 -15 82.5q-15 32.5 -37.5 52q-22.5 19.5 -49 27q-26.5 7.5 -50.5 7.5q-29 0 -50.5 -9.5q-21.5 -9.5 -44.5 -21.5l0 -320q8 -5 20.5 -9q12.5 -4 26 -7q13.5 -3 27 -4.5q13.5 -1.5 24.5 -1.5q19 0 44.5 7.5q25.5 7.5 49 29.5q23.5 22 39.5 62t16 105z" />
<glyph unicode="&#113;" horiz-adv-x="513" d="M282 -296v12l77 9v314l-111 -54q-33 0 -70 10.5q-37 10.5 -67.5 37q-30.5 26.5 -50.5 70.5q-20 44 -20 111q0 60 22.5 103.5q22.5 43.5 58 72q35.5 28.5 79.5 42q44 13.5 88 13.5q19 0 36.5 -2.5q17.5 -2.5 34.5 -7.5l84 38v-748l60 -9v-12zM359 408q-11 3 -22 5q-11 2 -23 2q-88 0 -138.5 -50.5q-50.5 -50.5 -50.5 -150.5q0 -53 16.5 -87.5q16.5 -34.5 40 -54q23.5 -19.5 49 -27q25.5 -7.5 44.5 -7.5q22 0 44.5 8.5q22.5 8.5 39.5 18.5z" />
<glyph unicode="&#114;" horiz-adv-x="374" d="M368 381q-83 -16 -131.5 -63.5q-48.5 -47.5 -48.5 -136.5v-158l90 -9v-14h-245v14l71 9v328l-57 86h141v-156q28 79 64.5 118.5q36.5 39.5 92.5 52.5l23 -71z" />
<glyph unicode="&#115;" horiz-adv-x="413" d="M367 136q0 -39 -15 -67q-15 -28 -40 -47q-25 -19 -56 -28q-31 -9 -63 -9q-19 0 -40 7.5q-21 7.5 -42.5 19q-21.5 11.5 -42 25.5q-20.5 14 -38.5 27l8 21q12 -4 32 -10.5q20 -6.5 41.5 -12.5q21.5 -6 42.5 -10.5q21 -4.5 36 -4.5q104 0 104 71q0 28 -18 43q-18 15 -44.5 24.5q-26.5 9.5 -58 17.5q-31.5 8 -58 22q-26.5 14 -44.5 37.5q-18 23.5 -18 64.5q0 28 14 51.5q14 23.5 36.5 39.5q22.5 16 51 25q28.5 9 57.5 9q42 0 75 -4q33 -4 71 -15l-16 -55l-182 45q-8 -4 -17 -10.5q-9 -6.5 -16.5 -14.5q-7.5 -8 -12.5 -18q-5 -10 -5 -20q0 -29 19 -45q19 -16 48 -27q29 -11 62 -20.5q33 -9.5 62 -24.5q29 -15 48 -40t19 -67z" />
<glyph unicode="&#116;" horiz-adv-x="325" d="M178 -5q-43 0 -63.5 27q-20.5 27 -20.5 73v300h-74l153 152h5v-110h127v-42h-127v-330h127l0 -12z" />
<glyph unicode="&#117;" horiz-adv-x="518" d="M384 0v71l-124 -81q-36 0 -67.5 6.5q-31.5 6.5 -54.5 26.5q-23 20 -36.5 58q-13.5 38 -13.5 101v169l-58 86h142v-255q0 -43 7.5 -69.5q7.5 -26.5 21 -41q13.5 -14.5 31.5 -19.5q18 -5 39 -5q21 0 51.5 14.5q30.5 14.5 61.5 38.5l0 251l-58 86h142l0 -437z" />
<glyph unicode="&#118;" horiz-adv-x="511" d="M272 -12h-18l-188 427l-68 8v14h231v-14l-68 -8l124 -319l102 320l-50 7v14h176v-14l-61 -8z" />
<glyph unicode="&#119;" horiz-adv-x="689" d="M691 424l-60 -9l-162 -427h-21l-90 262l-106 -262h-21l-164 427l-69 9v13h236v-13l-68 -9l102 -309l95 331h21l99 -331l83 310l-50 8v13l175 0z" />
<glyph unicode="&#120;" horiz-adv-x="500" d="M10 14l45 6l149 192l-125 203l-69 9v13h224v-13l-56 -8l93 -151l97 151l-43 8v13h165v-13l-59 -9l-143 -177l134 -216l68 -8v-14h-224v14l56 7l-100 161l-101 -160l53 -8v-14l-164 0z" />
<glyph unicode="&#121;" horiz-adv-x="528" d="M471 415l-289 -711h-89l148 268l-175 443l-68 9v13h239v-13l-70 -9l123 -350l116 351l-62 8v13h186l0 -13z" />
<glyph unicode="&#122;" horiz-adv-x="418" d="M30 0v10l248 399l-234 -27l-4 55h342v-17l-245 -393l248 28l3 -55z" />
<glyph unicode="&#123;" horiz-adv-x="329" d="M303 -221q-26 3 -54.5 13q-28.5 10 -52.5 31.5q-24 21.5 -40 56q-16 34.5 -16 87.5q0 16 1 31q1 15 1.5 30.5q0.5 15.5 1.5 33q1 17.5 1 39.5q0 43 -10.5 70.5q-10.5 27.5 -25 44q-14.5 16.5 -31 23q-16.5 6.5 -28.5 8.5l0 26q12 1 28.5 7.5q16.5 6.5 31 23q14.5 16.5 25 44q10.5 27.5 10.5 70.5q0 43 -2.5 72.5q-2.5 29.5 -2.5 61.5q0 52 16 87q16 35 40 56.5q24 21.5 52.5 31.5q28.5 10 54.5 13l4 -18q-40 -4 -61 -34q-21 -30 -24 -81q0 -41 0.5 -65q0.5 -24 0.5 -37q0 -13 0 -18q0 -5 0 -9q0 -77 -35 -134q-35 -57 -105 -84q70 -28 105 -85q35 -57 35 -134q0 -4 0 -9q0 -5 0 -18q0 -13 -0.5 -37q-0.5 -24 -0.5 -65q3 -51 24 -81q21 -30 61 -34z" />
<glyph unicode="&#124;" horiz-adv-x="140" d="M50 -296v1036h40l0 -1036z" />
<glyph unicode="&#125;" horiz-adv-x="349" d="M308 247q-12 -2 -28.5 -8.5q-16.5 -6.5 -31 -23q-14.5 -16.5 -25 -44q-10.5 -27.5 -10.5 -70.5q0 -22 1 -39.5q1 -17.5 1.5 -33q0.5 -15.5 1.5 -30.5q1 -15 1 -31q0 -53 -16 -87.5q-16 -34.5 -40 -56q-24 -21.5 -53 -31.5q-29 -10 -54 -13l-4 18q40 4 61 34q21 30 24 81q0 41 -0.5 65q-0.5 24 -0.5 37q0 13 0 18q0 5 0 9q0 77 35 134q35 57 105 85q-70 27 -105 84q-35 57 -35 134q0 4 0 9q0 5 0 18q0 13 0.5 37q0.5 24 0.5 65q-3 51 -24 81q-21 30 -61 34l4 18q25 -3 54 -13q29 -10 53 -31.5q24 -21.5 40 -56.5q16 -35 16 -87q0 -32 -2.5 -61.5q-2.5 -29.5 -2.5 -72.5q0 -43 10.5 -70.5q10.5 -27.5 25 -44q14.5 -16.5 31 -23q16.5 -6.5 28.5 -7.5l0 -26z" />
<glyph unicode="&#126;" horiz-adv-x="651" d="M606 304q-29 -19 -51 -32.5q-22 -13.5 -41 -22q-19 -8.5 -37.5 -12.5q-18.5 -4 -40.5 -4q-28 0 -54.5 11q-26.5 11 -53.5 24q-27 13 -55 24q-28 11 -59 11q-21 0 -38 -2.5q-17 -2.5 -35.5 -10q-18.5 -7.5 -41 -20.5q-22.5 -13 -54.5 -35l0 55q29 19 51 32.5q22 13.5 41 22q19 8.5 37.5 12.5q18.5 4 40.5 4q28 0 54.5 -11q26.5 -11 53.5 -24q27 -13 55 -24q28 -11 59 -11q21 0 38 2.5q17 2.5 35.5 10q18.5 7.5 41 20.5q22.5 13 54.5 35l0 -55z" />
<glyph unicode="&#160;" horiz-adv-x="275" />
<glyph unicode="&#161;" horiz-adv-x="226" d="M128 237q13 -105 22.5 -181q9.5 -76 16.5 -128.5q7 -52.5 10.5 -83q3.5 -30.5 3.5 -44.5q0 -28 -20 -48q-20 -20 -48 -20q-28 0 -48 20q-20 20 -20 48q0 14 3.5 44.5q3.5 30.5 10 83q6.5 52.5 16 128.5q9.5 76 22.5 181zM176 375q0 -26 -18.5 -44.5q-18.5 -18.5 -44.5 -18.5q-26 0 -44 18.5q-18 18.5 -18 44.5q0 26 18 44q18 18 44 18q26 0 44.5 -18t18.5 -44z" />
<glyph unicode="&#162;" horiz-adv-x="443" d="M258 -15q-6 0 -11.5 0.5q-5.5 0.5 -11.5 0.5l-10 -70h-37l11 76q-32 8 -60.5 25q-28.5 17 -50.5 44.5q-22 27.5 -35 66q-13 38.5 -13 89.5q0 61 22 105q22 44 55 73q33 29 73 43q40 14 76 14h1l10 69h37l-11 -71q27 -2 54 -7q27 -5 55 -10l-16 -70l-101 28l-50 -335q22 -3 48 -3q15 0 33 3.5q18 3.5 35 8q17 4.5 31 10q14 5.5 22 10.5l9 -21zM130 217q0 -67 22 -102q22 -35 58 -49l49 335l-58 16q-12 -13 -25 -29.5q-13 -16.5 -23 -40q-10 -23.5 -16.5 -55t-6.5 -75.5z" />
<glyph unicode="&#163;" horiz-adv-x="534" d="M190 304q-15 -60 -36 -124.5q-21 -64.5 -53 -135.5q47 35 93 48q46 13 98 13q43 0 96 -6q53 -6 110 -13l-51 -99q-31 9 -65 16.5q-34 7.5 -65.5 12.5q-31.5 5 -59 8q-27.5 3 -45.5 3q-41 0 -72.5 -11.5q-31.5 -11.5 -70.5 -39.5l-30 10l4 5q7 11 15 39.5q8 28.5 16 70.5q8 42 17 94q9 52 18 109l-62 0v40h68q6 36 12 73q6 37 13 74q9 49 33 90.5q24 41.5 58.5 71q34.5 29.5 77.5 46q43 16.5 91 16.5q21 0 40.5 -2.5q19.5 -2.5 33.5 -5.5q17 -4 32 -8l-39 -66l-147 48q-27 -18 -43.5 -49q-16.5 -31 -28.5 -74q-12 -43 -22.5 -97q-10.5 -54 -25.5 -117l192 0l0 -40z" />
<glyph unicode="&#164;" horiz-adv-x="657" d="M0 415l52 2q15 62 51 116q36 54 88 94.5q52 40.5 116 64q64 23.5 135 23.5q32 0 62.5 -3q30.5 -3 53.5 -6q27 -4 51 -8l-23 -75l-259 39q-75 -32 -119.5 -93q-44.5 -61 -58.5 -147l382 20l-19 -61h-368q-1 -10 -1 -19q0 -9 0 -19q0 -11 0.5 -20.5q0.5 -9.5 1.5 -19.5l350 19l-19 -61h-325q12 -52 37.5 -91.5q25.5 -39.5 62 -66.5q36.5 -27 83 -40.5q46.5 -13.5 100.5 -13.5q13 0 36.5 3q23.5 3 50 8q26.5 5 52 11.5q25.5 6.5 42.5 13.5l9 -26q-18 -8 -46.5 -20.5q-28.5 -12.5 -61 -24.5q-32.5 -12 -64.5 -20.5q-32 -8.5 -58 -8.5q-69 0 -126.5 21q-57.5 21 -101.5 58q-44 37 -73.5 87.5q-29.5 50.5 -41.5 109.5l-51 0v34l45 2q-1 11 -1.5 22.5q-0.5 11.5 -0.5 23.5q0 9 0.5 18.5q0.5 9.5 1.5 19.5l-45 0z" />
<glyph unicode="&#165;" horiz-adv-x="622" d="M363 161v-137l104 -9v-15h-294v15l91 9v137h-223v39h223v50l-25 49h-198v40h178l-168 334l-81 11v16h273v-16l-76 -10l152 -335h23l145 334l-84 11v16h249v-16l-75 -10l-170 -335h174v-40h-195l-23 -46v-53h218l0 -39z" />
<glyph unicode="&#166;" horiz-adv-x="140" d="M50 -296v340h40v-340zM50 400v340h40l0 -340z" />
<glyph unicode="&#167;" horiz-adv-x="458" d="M407 273q0 -41 -21.5 -74q-21.5 -33 -50.5 -62q8 -17 13.5 -35.5q5.5 -18.5 5.5 -45.5q0 -31 -13.5 -59q-13.5 -28 -36.5 -50.5q-23 -22.5 -54 -38.5q-31 -16 -66 -23l-128 79l12 21q8 -5 22.5 -11.5q14.5 -6.5 32 -12.5q17.5 -6 35.5 -10q18 -4 33 -4q27 0 46.5 7.5q19.5 7.5 32.5 20.5q13 13 19.5 29.5q6.5 16.5 6.5 33.5q0 28 -17.5 52.5q-17.5 24.5 -43.5 48q-26 23.5 -57 48q-31 24.5 -57 52q-26 27.5 -43.5 59q-17.5 31.5 -17.5 70.5q0 37 21.5 68q21.5 31 46.5 51q-17 17 -27.5 40q-10.5 23 -10.5 54q0 29 13.5 53q13.5 24 36 41q22.5 17 51 26q28.5 9 58.5 9q35 0 67 -5.5q32 -5.5 59 -13.5l-16 -55l-162 38q-20 -8 -38.5 -25.5q-18.5 -17.5 -18.5 -40.5q0 -46 46 -83q31 -24 69.5 -50.5q38.5 -26.5 72 -56.5q33.5 -30 56.5 -66q23 -36 23 -79zt0 0zM355 244q0 28 -16 55q-16 27 -44 54.5q-28 27.5 -65 55.5q-37 28 -79 59q-15 -12 -26.5 -30.5q-11.5 -18.5 -11.5 -40.5q0 -32 22.5 -60q22.5 -28 55 -56q32.5 -28 67.5 -56.5q35 -28.5 60 -62.5q37 43 37 82z" />
<glyph unicode="&#168;" horiz-adv-x="388" d="M283 538q-21 0 -37 15.5q-16 15.5 -16 37.5q0 23 16 39q16 16 37 16q23 0 39 -16q16 -16 16 -39q0 -22 -16 -37.5q-16 -15.5 -39 -15.5zt0 0zM103 538q-21 0 -37 15.5q-16 15.5 -16 37.5q0 23 16 39q16 16 37 16q23 0 39 -16q16 -16 16 -39q0 -22 -16 -37.5t-39 -15.5z" />
<glyph unicode="&#169;" horiz-adv-x="823" d="M80 351q0 -68 26 -128.5q26 -60.5 71 -105.5q45 -45 105.5 -71q60.5 -26 129.5 -26q68 0 128.5 26q60.5 26 105.5 71q45 45 71 105.5q26 60.5 26 128.5q0 69 -26 129.5q-26 60.5 -71 105.5q-45 45 -105.5 71q-60.5 26 -128.5 26q-69 0 -129.5 -26q-60.5 -26 -105.5 -71q-45 -45 -71 -105.5q-26 -60.5 -26 -129.5zt0 0zM50 351q0 75 28.5 141q28.5 66 77.5 115q49 49 115 77.5q66 28.5 141 28.5q75 0 140.5 -28.5q65.5 -28.5 114.5 -77.5q49 -49 77.5 -115q28.5 -66 28.5 -141q0 -75 -28.5 -140.5q-28.5 -65.5 -77.5 -114.5q-49 -49 -114.5 -77.5q-65.5 -28.5 -140.5 -28.5q-75 0 -141 28.5q-66 28.5 -115 77.5q-49 49 -77.5 114.5q-28.5 65.5 -28.5 140.5zt0 0zM561 171q-11 -5 -28.5 -12.5q-17.5 -7.5 -37.5 -14.5q-20 -7 -40.5 -12.5q-20.5 -5.5 -36.5 -5.5q-54 0 -95.5 15.5q-41.5 15.5 -70 44.5q-28.5 29 -43 70q-14.5 41 -14.5 92q0 46 20 87.5q20 41.5 53.5 73q33.5 31.5 78.5 50.5q45 19 95 19q20 0 37.5 -1.5q17.5 -1.5 31.5 -3.5q16 -3 29 -5v-47l-169 24q-57 -23 -82.5 -74q-25.5 -51 -25.5 -123q0 -45 13.5 -79q13.5 -34 37.5 -57q24 -23 57 -35q33 -12 72 -12q8 0 23 2q15 2 31.5 5q16.5 3 32 7q15.5 4 26.5 9z" />
<glyph unicode="&#170;" horiz-adv-x="371" d="M151 354q-20 0 -38.5 4.5q-18.5 4.5 -32.5 15q-14 10.5 -22 26q-8 15.5 -8 38.5q0 28 21 49q21 21 52.5 36q31.5 15 68 24.5q36.5 9.5 66.5 13.5q0 57 -10.5 84.5q-10.5 27.5 -27.5 35.5l-138 -55l-21 46q47 18 86.5 23q39.5 5 72.5 5q10 0 27.5 -3.5q17.5 -3.5 33.5 -18q16 -14.5 28 -42q12 -27.5 12 -75.5v-200h-63v56zM167 400q11 0 25.5 5q14.5 5 28 12q13.5 7 24 14q10.5 7 13.5 10l0 100q-21 -2 -45.5 -9.5q-24.5 -7.5 -45.5 -20q-21 -12.5 -35.5 -29.5q-14.5 -17 -14.5 -36q0 -23 11.5 -34.5t38.5 -11.5z" />
<glyph unicode="&#171;" horiz-adv-x="414" d="M292 -1l-242 231l242 231l11 -12l-154 -219l154 -219zM374 85l-145 145l145 145l10 -9l-80 -136l80 -135z" />
<glyph unicode="&#172;" horiz-adv-x="631" d="M539 89v135h-489v37h531l0 -172z" />
<glyph unicode="&#173;" horiz-adv-x="290" d="M30 232v45h230l0 -45z" />
<glyph unicode="&#174;" horiz-adv-x="478" d="M418 520q0 37 -14 70q-14 33 -38 57q-24 24 -57 38q-33 14 -70 14q-38 0 -70.5 -14q-32.5 -14 -56.5 -38q-24 -24 -38 -57q-14 -33 -14 -70q0 -38 14 -70.5q14 -32.5 38 -56.5q24 -24 56.5 -38q32.5 -14 70.5 -14q37 0 70 14q33 14 57 38q24 24 38 56.5q14 32.5 14 70.5zt0 0zM438 520q0 -41 -15.5 -77.5q-15.5 -36.5 -42.5 -63.5q-27 -27 -63.5 -42.5q-36.5 -15.5 -77.5 -15.5q-41 0 -77.5 15.5q-36.5 15.5 -63.5 42.5q-27 27 -42.5 63.5q-15.5 36.5 -15.5 77.5q0 41 15.5 77.5q15.5 36.5 42.5 63.5q27 27 63.5 42.5q36.5 15.5 77.5 15.5q41 0 77.5 -15.5q36.5 -15.5 63.5 -42.5q27 -27 42.5 -63.5q15.5 -36.5 15.5 -77.5zt0 0zM294 393l-62 115q-2 0 -6 0q-4 0 -15 1l0 -104l35 -3v-9h-107v9l36 3v236l-36 4v9h106q13 0 28.5 -4q15.5 -4 28 -13q12.5 -9 21 -23q8.5 -14 8.5 -34q0 -31 -20.5 -47q-20.5 -16 -46.5 -22l75 -106l22 -3v-9zM211 525q4 -1 15 -1q29 0 47.5 16q18.5 16 18.5 40q0 24 -15 39.5q-15 15.5 -47 15.5l-19 0z" />
<glyph unicode="&#175;" horiz-adv-x="360" d="M50 559v60h260l0 -60z" />
<glyph unicode="&#176;" horiz-adv-x="296" d="M40 632q0 22 8.5 42q8.5 20 23 34.5q14.5 14.5 34 23q19.5 8.5 42.5 8.5q22 0 42 -8.5q20 -8.5 34.5 -23q14.5 -14.5 23 -34.5q8.5 -20 8.5 -42q0 -23 -8.5 -42.5q-8.5 -19.5 -23 -34q-14.5 -14.5 -34.5 -23q-20 -8.5 -42 -8.5q-23 0 -42.5 8.5q-19.5 8.5 -34 23q-14.5 14.5 -23 34q-8.5 19.5 -8.5 42.5zt0 0zM66 632q0 -16 6.5 -30.5q6.5 -14.5 17.5 -25q11 -10.5 25.5 -17q14.5 -6.5 31.5 -6.5q16 0 30 6.5q14 6.5 25 17q11 10.5 17.5 25q6.5 14.5 6.5 30.5q0 16 -6.5 31q-6.5 15 -17.5 26q-11 11 -25 17.5q-14 6.5 -30 6.5q-33 0 -57 -24t-24 -57z" />
<glyph unicode="&#177;" horiz-adv-x="640" d="M50 35v43h540v-43zM342 323v-188h-44v188h-248v43h248v188h44v-188h248l0 -43z" />
<glyph unicode="&#178;" horiz-adv-x="349" d="M80 335v12l120 209q8 13 12.5 26q4.5 13 4.5 33q0 20 -13 35.5q-13 15.5 -40 15.5q-22 0 -40.5 -9q-18.5 -9 -36.5 -23l-11 17q17 18 44.5 33.5q27.5 15.5 63.5 15.5q24 0 41 -8q17 -8 27.5 -20q10.5 -12 15.5 -26q5 -14 5 -26q0 -25 -9 -47.5q-9 -22.5 -23 -39.5l-120 -147h158l0 -51z" />
<glyph unicode="&#179;" horiz-adv-x="361" d="M74 369l8 15q19 -8 35.5 -12.5q16.5 -4.5 33.5 -4.5q12 0 27 4q15 4 27.5 13q12.5 9 21.5 24q9 15 9 38q0 20 -6 33q-6 13 -15.5 20.5q-9.5 7.5 -21 10.5q-11.5 3 -23.5 3q-14 0 -24 -3l-6 17q30 17 53 41.5q23 24.5 23 52.5q0 19 -12 31.5q-12 12.5 -37 12.5q-12 0 -32.5 -7q-20.5 -7 -35.5 -23h-12q46 65 105 65q44 0 62.5 -18.5q18.5 -18.5 18.5 -43.5q0 -18 -8 -33.5q-8 -15.5 -21 -28q-13 -12.5 -29 -23.5q-16 -11 -32 -20q22 0 41.5 -5q19.5 -5 34.5 -16q15 -11 23.5 -27.5q8.5 -16.5 8.5 -38.5q0 -23 -9.5 -43.5q-9.5 -20.5 -27.5 -36.5q-18 -16 -43 -25q-25 -9 -55 -9z" />
<glyph unicode="&#180;" horiz-adv-x="296" d="M148 706h98l-161 -162l-35 0z" />
<glyph unicode="&#181;" horiz-adv-x="581" d="M231 161v-138l91 -9v-14h-282v14l91 9v138h-84v34l84 5v99h-84v40h84v337l-91 10v14h282q36 0 76.5 -11q40.5 -11 74.5 -34q34 -23 56.5 -60.5q22.5 -37.5 22.5 -89.5q0 -55 -23.5 -94q-23.5 -39 -61 -64q-37.5 -25 -85 -36.5q-47.5 -11.5 -95.5 -11.5h-56v-92l234 15l-19 -61zM231 339h27q40 0 74 13q34 13 59.5 35.5q25.5 22.5 40 52.5q14.5 30 14.5 65q0 30 -10 57q-10 27 -30 48q-20 21 -50.5 33q-30.5 12 -72.5 12l-52 0z" />
<glyph unicode="&#182;" horiz-adv-x="508" d="M256 371q-44 0 -83.5 9.5q-39.5 9.5 -69 29.5q-29.5 20 -46.5 51.5q-17 31.5 -17 76.5q0 47 22.5 78.5q22.5 31.5 55.5 50q33 18.5 70.5 26q37.5 7.5 67.5 7.5h212v-14l-91 -10v-822h-27v822h-46v-822l-48 0z" />
<glyph unicode="&#183;" horiz-adv-x="215" d="M50 317q0 26 18.5 44.5q18.5 18.5 44.5 18.5q26 0 44 -18.5q18 -18.5 18 -44.5q0 -26 -18 -44q-18 -18 -44 -18q-26 0 -44.5 18t-18.5 44z" />
<glyph unicode="&#184;" horiz-adv-x="258" d="M40 -163q10 -4 24 -6.5q14 -2.5 21 -2.5q27 0 38.5 9.5q11.5 9.5 11.5 20.5q0 16 -12.5 27.5q-12.5 11.5 -32.5 13.5l-29 3l36 98h51l-28 -66q36 -5 62 -25q26 -20 26 -45q0 -34 -30 -53.5q-30 -19.5 -81 -19.5l-57 16z" />
<glyph unicode="&#185;" horiz-adv-x="333" d="M100 335v12l51 5v290l-64 -12l-2 10l108 61h9v-349l51 -4l0 -13z" />
<glyph unicode="&#186;" horiz-adv-x="436" d="M315 526q0 75 -29.5 113.5q-29.5 38.5 -71.5 38.5q-42 0 -68 -38.5q-26 -38.5 -26 -113.5q0 -75 26 -113q26 -38 68 -38q42 0 71.5 38q29.5 38 29.5 113zt0 0zM386 526q0 -38 -14 -70q-14 -32 -37.5 -55.5q-23.5 -23.5 -54.5 -37q-31 -13.5 -66 -13.5q-35 0 -65 13.5q-30 13.5 -52 37q-22 23.5 -34.5 55.5q-12.5 32 -12.5 70q0 44 12.5 77q12.5 33 34.5 54.5q22 21.5 52 32.5q30 11 65 11q35 0 66 -11q31 -11 54.5 -32.5q23.5 -21.5 37.5 -54.5t14 -77z" />
<glyph unicode="&#187;" horiz-adv-x="414" d="M122 -1l-11 12l154 219l-154 219q2 1 5 4q6 4 6 8l242 -231zM40 85l-10 9l80 136l-80 135l10 10l145 -145z" />
<glyph unicode="&#188;" horiz-adv-x="715" d="M623 101h-50v-101h-50v101h-145v14l188 250h7v-230h50zM523 280l-100 -145h100zM100 335v12l51 5v290l-64 -12l-2 10l108 61h9v-349l51 -4v-13zM105 0h-55l560 700l55 0z" />
<glyph unicode="&#189;" horiz-adv-x="715" d="M100 335v12l51 5v290l-64 -12l-2 10l108 61h9v-349l51 -4v-13zM440 0v12l120 209q8 13 12.5 26q4.5 13 4.5 33q0 20 -13 35.5q-13 15.5 -40 15.5q-22 0 -40.5 -9q-18.5 -9 -36.5 -23l-11 17q17 18 44.5 33.5q27.5 15.5 63.5 15.5q24 0 41 -8q17 -8 27.5 -20q10.5 -12 15.5 -26q5 -14 5 -26q0 -25 -9 -47.5q-9 -22.5 -23 -39.5l-120 -147h158v-51zM105 0h-55l560 700l55 0z" />
<glyph unicode="&#190;" horiz-adv-x="715" d="M74 369l8 15q19 -8 35.5 -12.5q16.5 -4.5 33.5 -4.5q12 0 27 4q15 4 27.5 13q12.5 9 21.5 24q9 15 9 38q0 20 -6 33q-6 13 -15.5 20.5q-9.5 7.5 -21 10.5q-11.5 3 -23.5 3q-14 0 -24 -3l-6 17q30 17 53 41.5q23 24.5 23 52.5q0 19 -12 31.5q-12 12.5 -37 12.5q-12 0 -32.5 -7q-20.5 -7 -35.5 -23h-12q46 65 105 65q44 0 62.5 -18.5q18.5 -18.5 18.5 -43.5q0 -18 -8 -33.5q-8 -15.5 -21 -28q-13 -12.5 -29 -23.5q-16 -11 -32 -20q22 0 41.5 -5q19.5 -5 34.5 -16q15 -11 23.5 -27.5q8.5 -16.5 8.5 -38.5q0 -23 -9.5 -43.5q-9.5 -20.5 -27.5 -36.5q-18 -16 -43 -25q-25 -9 -55 -9zM623 101h-50v-101h-50v101h-145v14l188 250h7v-230h50zM523 280l-100 -145h100zM105 0h-55l560 700l55 0z" />
<glyph unicode="&#191;" horiz-adv-x="426" d="M45 -106q0 42 15 69q15 27 38 47q23 20 49.5 35.5q26.5 15.5 49.5 34q23 18.5 38 42.5q15 24 15 62q0 25 -7 53l31 0q13 -23 18.5 -43q5.5 -20 5.5 -40q0 -34 -12 -61q-12 -27 -30.5 -50q-18.5 -23 -39.5 -43q-21 -20 -39.5 -39.5q-18.5 -19.5 -30.5 -40q-12 -20.5 -12 -45.5q0 -22 5.5 -39.5q5.5 -17.5 13.5 -29.5q9 -15 20 -26l189 44l19 -76q-23 -4 -48 -8q-21 -3 -47 -5.5q-26 -2.5 -51 -2.5q-56 0 -92.5 18.5q-36.5 18.5 -58.5 44.5q-22 26 -30.5 53.5q-8.5 27.5 -8.5 45.5zt0 0zM322 375q0 -26 -18.5 -44.5q-18.5 -18.5 -44.5 -18.5q-26 0 -44 18.5q-18 18.5 -18 44.5q0 26 18 44q18 18 44 18q26 0 44.5 -18t18.5 -44z" />
<glyph unicode="&#192;" horiz-adv-x="742" d="M737 15v-15h-273v15l76 10l-77 226h-218l-75 -224l84 -12v-15h-249v15l75 10l281 690h20l276 -688zM444 305l-93 267l-88 -267zM469 773h-35l-161 162l98 0z" />
<glyph unicode="&#193;" horiz-adv-x="742" d="M737 15v-15h-273v15l76 10l-77 226h-218l-75 -224l84 -12v-15h-249v15l75 10l281 690h20l276 -688zM444 305l-93 267l-88 -267zM371 934h98l-161 -162l-35 0z" />
<glyph unicode="&#194;" horiz-adv-x="742" d="M737 15v-15h-273v15l76 10l-77 226h-218l-75 -224l84 -12v-15h-249v15l75 10l281 690h20l276 -688zM444 305l-93 267l-88 -267zM332 934h78l108 -162h-35l-112 120l-112 -120l-35 0z" />
<glyph unicode="&#195;" horiz-adv-x="742" d="M737 15v-15h-273v15l76 10l-77 226h-218l-75 -224l84 -12v-15h-249v15l75 10l281 690h20l276 -688zM444 305l-93 267l-88 -267zM539 887q-17 -30 -42.5 -53.5q-25.5 -23.5 -63.5 -23.5q-24 0 -41.5 8q-17.5 8 -32.5 17q-15 9 -29 17q-14 8 -32 8q-18 0 -38 -7.5q-20 -7.5 -37 -33.5l-20 14q17 30 42.5 53.5q25.5 23.5 63.5 23.5q24 0 41 -8q17 -8 32 -17q15 -9 29.5 -17q14.5 -8 32.5 -8q18 0 38 7.5q20 7.5 37 33.5z" />
<glyph unicode="&#196;" horiz-adv-x="742" d="M737 15v-15h-273v15l76 10l-77 226h-218l-75 -224l84 -12v-15h-249v15l75 10l281 690h20l276 -688zM444 305l-93 267l-88 -267zM460 801q-21 0 -37 15.5q-16 15.5 -16 37.5q0 23 16 39q16 16 37 16q23 0 39 -16q16 -16 16 -39q0 -22 -16 -37.5q-16 -15.5 -39 -15.5zt0 0zM280 801q-21 0 -37 15.5q-16 15.5 -16 37.5q0 23 16 39q16 16 37 16q23 0 39 -16q16 -16 16 -39q0 -22 -16 -37.5t-39 -15.5z" />
<glyph unicode="&#197;" horiz-adv-x="742" d="M737 15v-15h-273v15l76 10l-77 226h-218l-75 -224l84 -12v-15h-249v15l75 10l281 690h20l276 -688zM444 305l-93 267l-88 -267zM290 851q0 34 23.5 57q23.5 23 57.5 23q34 0 57 -23q23 -23 23 -57q0 -34 -23 -57.5q-23 -23.5 -57 -23.5q-34 0 -57.5 23.5q-23.5 23.5 -23.5 57.5zt0 0zM326 851q0 -18 12.5 -30.5q12.5 -12.5 31.5 -12.5q17 0 29 12.5q12 12.5 12 30.5q0 18 -12 30q-12 12 -29 12q-19 0 -31.5 -12t-12.5 -30z" />
<glyph unicode="&#198;" horiz-adv-x="911" d="M269 251l-99 -224l84 -12v-15h-249v15l75 10l336 651l-92 9v15h524l-10 -78l-320 43l61 -319l235 64v-91h-229l55 -284l221 42l-12 -77h-400v15l91 10l-42 226zM293 305h194l-58 307z" />
<glyph unicode="&#199;" horiz-adv-x="661" d="M266 -163q10 -4 24 -6.5q14 -2.5 21 -2.5q27 0 38.5 9.5q11.5 9.5 11.5 20.5q0 16 -12.5 27.5q-12.5 11.5 -32.5 13.5l-29 3l32 88q-69 10 -121.5 39q-52.5 29 -87.5 74.5q-35 45.5 -52.5 106q-17.5 60.5 -17.5 133.5q0 74 32 141.5q32 67.5 87 118.5q55 51 127 81.5q72 30.5 153 30.5q32 0 61 -3q29 -3 50 -6q25 -4 46 -8l-20 -75l-252 39q-92 -38 -133 -120q-41 -82 -41 -199q0 -72 20 -126.5q20 -54.5 57 -92q37 -37.5 89 -56.5q52 -19 115 -19q13 0 36.5 3q23.5 3 50 8q26.5 5 52 11.5q25.5 6.5 42.5 13.5l9 -26q-18 -9 -46.5 -21.5q-28.5 -12.5 -61 -24q-32.5 -11.5 -64.5 -20q-32 -8.5 -58 -8.5q-6 0 -12 0q-6 0 -11 1l-22 -52q36 -5 62 -25q26 -20 26 -45q0 -34 -30 -53.5q-30 -19.5 -81 -19.5l-57 16z" />
<glyph unicode="&#200;" horiz-adv-x="562" d="M465 319h-234v-284l281 42l-12 -77h-460v15l91 9v652l-91 9v15h459l-10 -78l-259 43v-319l235 64zM379 772h-35l-161 162l98 0z" />
<glyph unicode="&#201;" horiz-adv-x="562" d="M465 319h-234v-284l281 42l-12 -77h-460v15l91 9v652l-91 9v15h459l-10 -78l-259 43v-319l235 64zM321 934h98l-161 -162l-35 0z" />
<glyph unicode="&#202;" horiz-adv-x="562" d="M465 319h-234v-284l281 42l-12 -77h-460v15l91 9v652l-91 9v15h459l-10 -78l-259 43v-319l235 64zM242 934h78l108 -162h-35l-112 120l-112 -120l-35 0z" />
<glyph unicode="&#203;" horiz-adv-x="562" d="M465 319h-234v-284l281 42l-12 -77h-460v15l91 9v652l-91 9v15h459l-10 -78l-259 43v-319l235 64zM370 801q-21 0 -37 15.5q-16 15.5 -16 37.5q0 23 16 39q16 16 37 16q23 0 39 -16q16 -16 16 -39q0 -22 -16 -37.5q-16 -15.5 -39 -15.5zt0 0zM190 801q-21 0 -37 15.5q-16 15.5 -16 37.5q0 23 16 39q16 16 37 16q23 0 39 -16q16 -16 16 -39q0 -22 -16 -37.5t-39 -15.5z" />
<glyph unicode="&#204;" horiz-adv-x="375" d="M231 24l104 -9v-15h-295v15l91 9v652l-91 9v15h295v-15l-104 -9zM285 772h-35l-161 162l98 0z" />
<glyph unicode="&#205;" horiz-adv-x="375" d="M231 24l104 -9v-15h-295v15l91 9v652l-91 9v15h295v-15l-104 -9zM187 934h98l-161 -162l-35 0z" />
<glyph unicode="&#206;" horiz-adv-x="375" d="M231 24l104 -9v-15h-295v15l91 9v652l-91 9v15h295v-15l-104 -9zM149 934h78l108 -162h-35l-112 120l-112 -120l-35 0z" />
<glyph unicode="&#207;" horiz-adv-x="375" d="M254 796q-19 0 -33.5 15.5q-14.5 15.5 -14.5 37.5q0 23 14.5 39q14.5 16 33.5 16q21 0 35.5 -16q14.5 -16 14.5 -39q0 -22 -14.5 -37.5q-14.5 -15.5 -35.5 -15.5zt0 0zM119 796q-19 0 -33.5 15.5q-14.5 15.5 -14.5 37.5q0 23 14.5 39q14.5 16 33.5 16q21 0 35.5 -16q14.5 -16 14.5 -39q0 -22 -14.5 -37.5q-14.5 -15.5 -35.5 -15.5zt0 0zM231 24l104 -9v-15h-295v15l91 9v652l-91 9v15h295v-15l-104 -9z" />
<glyph unicode="&#208;" horiz-adv-x="736" d="M328 700q90 0 157 -31q67 -31 111.5 -81q44.5 -50 67 -112q22.5 -62 22.5 -125q0 -62 -21 -125q-21 -63 -65 -113q-44 -50 -111.5 -81.5q-67.5 -31.5 -160.5 -31.5h-288v15l91 9v300h-91v55h91v297l-91 9v15zM360 324h-130v-279h98q62 0 107.5 24.5q45.5 24.5 75 66.5q29.5 42 44 97.5q14.5 55.5 14.5 117.5q0 62 -14.5 118q-14.5 56 -44 98q-29.5 42 -75 67q-45.5 25 -107.5 25h-98v-280l130 0z" />
<glyph unicode="&#209;" horiz-adv-x="785" d="M674 -5l-29 -7l-482 569v-534l104 -9v-14h-247v14l91 9v653l-91 10v14h143l459 -529v505l-104 10v14h247v-14l-91 -10zM560 887q-17 -30 -42.5 -53.5q-25.5 -23.5 -63.5 -23.5q-24 0 -41.5 8q-17.5 8 -32.5 17q-15 9 -29 17q-14 8 -32 8q-18 0 -38 -7.5q-20 -7.5 -37 -33.5l-20 14q17 30 42.5 53.5q25.5 23.5 63.5 23.5q24 0 41 -8q17 -8 32 -17q15 -9 29.5 -17q14.5 -8 32.5 -8q18 0 38 7.5q20 7.5 37 33.5z" />
<glyph unicode="&#210;" horiz-adv-x="774" d="M724 350q0 -89 -24 -157q-24 -68 -68 -114.5q-44 -46.5 -106 -70q-62 -23.5 -139 -23.5q-77 0 -139 28.5q-62 28.5 -106 77.5q-44 49 -68 115.5q-24 66.5 -24 143.5q0 89 24 157q24 68 68 114.5q44 46.5 106 70q62 23.5 139 23.5q77 0 139 -28.5q62 -28.5 106 -77.5q44 -49 68 -116q24 -67 24 -143zt0 0zM614 350q0 80 -16.5 142.5q-16.5 62.5 -46 105q-29.5 42.5 -71.5 65q-42 22.5 -93 22.5q-51 0 -93 -22.5q-42 -22.5 -72 -65q-30 -42.5 -46 -105q-16 -62.5 -16 -142.5q0 -80 16 -142.5q16 -62.5 46 -105q30 -42.5 72 -65q42 -22.5 93 -22.5q51 0 93 22.5q42 22.5 71.5 65q29.5 42.5 46 105q16.5 62.5 16.5 142.5zt0 0zM485 772h-35l-161 162l98 0z" />
<glyph unicode="&#211;" horiz-adv-x="774" d="M724 350q0 -89 -24 -157q-24 -68 -68 -114.5q-44 -46.5 -106 -70q-62 -23.5 -139 -23.5q-77 0 -139 28.5q-62 28.5 -106 77.5q-44 49 -68 115.5q-24 66.5 -24 143.5q0 89 24 157q24 68 68 114.5q44 46.5 106 70q62 23.5 139 23.5q77 0 139 -28.5q62 -28.5 106 -77.5q44 -49 68 -116q24 -67 24 -143zt0 0zM614 350q0 80 -16.5 142.5q-16.5 62.5 -46 105q-29.5 42.5 -71.5 65q-42 22.5 -93 22.5q-51 0 -93 -22.5q-42 -22.5 -72 -65q-30 -42.5 -46 -105q-16 -62.5 -16 -142.5q0 -80 16 -142.5q16 -62.5 46 -105q30 -42.5 72 -65q42 -22.5 93 -22.5q51 0 93 22.5q42 22.5 71.5 65q29.5 42.5 46 105q16.5 62.5 16.5 142.5zt0 0zM397 934h98l-161 -162l-35 0z" />
<glyph unicode="&#212;" horiz-adv-x="774" d="M724 350q0 -89 -24 -157q-24 -68 -68 -114.5q-44 -46.5 -106 -70q-62 -23.5 -139 -23.5q-77 0 -139 28.5q-62 28.5 -106 77.5q-44 49 -68 115.5q-24 66.5 -24 143.5q0 89 24 157q24 68 68 114.5q44 46.5 106 70q62 23.5 139 23.5q77 0 139 -28.5q62 -28.5 106 -77.5q44 -49 68 -116q24 -67 24 -143zt0 0zM614 350q0 80 -16.5 142.5q-16.5 62.5 -46 105q-29.5 42.5 -71.5 65q-42 22.5 -93 22.5q-51 0 -93 -22.5q-42 -22.5 -72 -65q-30 -42.5 -46 -105q-16 -62.5 -16 -142.5q0 -80 16 -142.5q16 -62.5 46 -105q30 -42.5 72 -65q42 -22.5 93 -22.5q51 0 93 22.5q42 22.5 71.5 65q29.5 42.5 46 105q16.5 62.5 16.5 142.5zt0 0zM348 934h78l108 -162h-35l-112 120l-112 -120l-35 0z" />
<glyph unicode="&#213;" horiz-adv-x="774" d="M724 350q0 -89 -24 -157q-24 -68 -68 -114.5q-44 -46.5 -106 -70q-62 -23.5 -139 -23.5q-77 0 -139 28.5q-62 28.5 -106 77.5q-44 49 -68 115.5q-24 66.5 -24 143.5q0 89 24 157q24 68 68 114.5q44 46.5 106 70q62 23.5 139 23.5q77 0 139 -28.5q62 -28.5 106 -77.5q44 -49 68 -116q24 -67 24 -143zt0 0zM614 350q0 80 -16.5 142.5q-16.5 62.5 -46 105q-29.5 42.5 -71.5 65q-42 22.5 -93 22.5q-51 0 -93 -22.5q-42 -22.5 -72 -65q-30 -42.5 -46 -105q-16 -62.5 -16 -142.5q0 -80 16 -142.5q16 -62.5 46 -105q30 -42.5 72 -65q42 -22.5 93 -22.5q51 0 93 22.5q42 22.5 71.5 65q29.5 42.5 46 105q16.5 62.5 16.5 142.5zt0 0zM555 887q-17 -30 -42.5 -53.5q-25.5 -23.5 -63.5 -23.5q-24 0 -41.5 8q-17.5 8 -32.5 17q-15 9 -29 17q-14 8 -32 8q-18 0 -38 -7.5q-20 -7.5 -37 -33.5l-20 14q17 30 42.5 53.5q25.5 23.5 63.5 23.5q24 0 41 -8q17 -8 32 -17q15 -9 29.5 -17q14.5 -8 32.5 -8q18 0 38 7.5q20 7.5 37 33.5z" />
<glyph unicode="&#214;" horiz-adv-x="774" d="M724 350q0 -89 -24 -157q-24 -68 -68 -114.5q-44 -46.5 -106 -70q-62 -23.5 -139 -23.5q-77 0 -139 28.5q-62 28.5 -106 77.5q-44 49 -68 115.5q-24 66.5 -24 143.5q0 89 24 157q24 68 68 114.5q44 46.5 106 70q62 23.5 139 23.5q77 0 139 -28.5q62 -28.5 106 -77.5q44 -49 68 -116q24 -67 24 -143zt0 0zM614 350q0 80 -16.5 142.5q-16.5 62.5 -46 105q-29.5 42.5 -71.5 65q-42 22.5 -93 22.5q-51 0 -93 -22.5q-42 -22.5 -72 -65q-30 -42.5 -46 -105q-16 -62.5 -16 -142.5q0 -80 16 -142.5q16 -62.5 46 -105q30 -42.5 72 -65q42 -22.5 93 -22.5q51 0 93 22.5q42 22.5 71.5 65q29.5 42.5 46 105q16.5 62.5 16.5 142.5zt0 0zM476 801q-21 0 -37 15.5q-16 15.5 -16 37.5q0 23 16 39q16 16 37 16q23 0 39 -16q16 -16 16 -39q0 -22 -16 -37.5q-16 -15.5 -39 -15.5zt0 0zM296 801q-21 0 -37 15.5q-16 15.5 -16 37.5q0 23 16 39q16 16 37 16q23 0 39 -16q16 -16 16 -39q0 -22 -16 -37.5t-39 -15.5z" />
<glyph unicode="&#215;" horiz-adv-x="640" d="M321 264l-207 -207l-31 31l207 207l-206 205l31 30l205 -205l206 206l31 -31l-206 -206l205 -205l-30 -31z" />
<glyph unicode="&#216;" horiz-adv-x="774" d="M630 611q45 -50 69.5 -116.5q24.5 -66.5 24.5 -144.5q0 -89 -24 -157q-24 -68 -68 -114.5q-44 -46.5 -106 -70q-62 -23.5 -139 -23.5q-65 0 -119.5 20q-54.5 20 -96.5 56l-51 -61h-50l74 88q-45 50 -69.5 117q-24.5 67 -24.5 145q0 89 24 157q24 68 68 114.5q44 46.5 106 70q62 23.5 139 23.5q65 0 119 -20.5q54 -20.5 96 -56.5l52 62h50zM160 350q0 -119 35 -200l364 436q-30 49 -74 74q-44 25 -98 25q-51 0 -93 -22.5q-42 -22.5 -72 -65q-30 -42.5 -46 -105q-16 -62.5 -16 -142.5zt0 0zM614 350q0 60 -9.5 110q-9.5 50 -26.5 89l-363 -435q61 -99 172 -99q51 0 93 22.5q42 22.5 71.5 65q29.5 42.5 46 105t16.5 142.5z" />
<glyph unicode="&#217;" horiz-adv-x="796" d="M756 685l-91 -9v-438q0 -48 -16.5 -93.5q-16.5 -45.5 -48 -80.5q-31.5 -35 -78.5 -56q-47 -21 -107 -21q-61 0 -113 13q-52 13 -90 43q-38 30 -59.5 78q-21.5 48 -21.5 117v438l-91 9v15h295v-15l-104 -9v-438q0 -41 11.5 -75.5q11.5 -34.5 34 -59q22.5 -24.5 57 -38.5q34.5 -14 81.5 -14q92 0 144.5 48.5q52.5 48.5 52.5 138.5v438l-105 9v15h249zM496 772h-35l-161 162l98 0z" />
<glyph unicode="&#218;" horiz-adv-x="796" d="M756 685l-91 -9v-438q0 -48 -16.5 -93.5q-16.5 -45.5 -48 -80.5q-31.5 -35 -78.5 -56q-47 -21 -107 -21q-61 0 -113 13q-52 13 -90 43q-38 30 -59.5 78q-21.5 48 -21.5 117v438l-91 9v15h295v-15l-104 -9v-438q0 -41 11.5 -75.5q11.5 -34.5 34 -59q22.5 -24.5 57 -38.5q34.5 -14 81.5 -14q92 0 144.5 48.5q52.5 48.5 52.5 138.5v438l-105 9v15h249zM428 934h98l-161 -162l-35 0z" />
<glyph unicode="&#219;" horiz-adv-x="796" d="M756 685l-91 -9v-438q0 -48 -16.5 -93.5q-16.5 -45.5 -48 -80.5q-31.5 -35 -78.5 -56q-47 -21 -107 -21q-61 0 -113 13q-52 13 -90 43q-38 30 -59.5 78q-21.5 48 -21.5 117v438l-91 9v15h295v-15l-104 -9v-438q0 -41 11.5 -75.5q11.5 -34.5 34 -59q22.5 -24.5 57 -38.5q34.5 -14 81.5 -14q92 0 144.5 48.5q52.5 48.5 52.5 138.5v438l-105 9v15h249zM359 934h78l108 -162h-35l-112 120l-112 -120l-35 0z" />
<glyph unicode="&#220;" horiz-adv-x="796" d="M756 685l-91 -9v-438q0 -48 -16.5 -93.5q-16.5 -45.5 -48 -80.5q-31.5 -35 -78.5 -56q-47 -21 -107 -21q-61 0 -113 13q-52 13 -90 43q-38 30 -59.5 78q-21.5 48 -21.5 117v438l-91 9v15h295v-15l-104 -9v-438q0 -41 11.5 -75.5q11.5 -34.5 34 -59q22.5 -24.5 57 -38.5q34.5 -14 81.5 -14q92 0 144.5 48.5q52.5 48.5 52.5 138.5v438l-105 9v15h249zM487 801q-21 0 -37 15.5q-16 15.5 -16 37.5q0 23 16 39q16 16 37 16q23 0 39 -16q16 -16 16 -39q0 -22 -16 -37.5q-16 -15.5 -39 -15.5zt0 0zM307 801q-21 0 -37 15.5q-16 15.5 -16 37.5q0 23 16 39q16 16 37 16q23 0 39 -16q16 -16 16 -39q0 -22 -16 -37.5t-39 -15.5z" />
<glyph unicode="&#221;" horiz-adv-x="622" d="M363 24l104 -9v-15h-294v15l91 9v226l-213 423l-81 11v16h273v-16l-76 -10l164 -361l156 360l-84 11v16h249v-16l-75 -10l-214 -421zM331 934h98l-161 -162l-35 0z" />
<glyph unicode="&#222;" horiz-adv-x="581" d="M322 686l-91 -10v-115h91q36 0 76.5 -11q40.5 -11 74.5 -34q34 -23 56.5 -60.5q22.5 -37.5 22.5 -89.5q0 -55 -23.5 -94q-23.5 -39 -61 -64q-37.5 -25 -85 -36.5q-47.5 -11.5 -95.5 -11.5q-14 0 -28 1q-14 1 -28 3l0 -141l91 -9v-14h-282v14l91 9v653l-91 10v14h282zM231 199q15 -3 29 -3q40 0 74 13.5q34 13.5 59 36.5q25 23 39 54q14 31 14 66q0 30 -10 57q-10 27 -30 48q-20 21 -50.5 33q-30.5 12 -72.5 12l-52 0z" />
<glyph unicode="&#223;" horiz-adv-x="547" d="M161 21l60 -8v-13h-203v13l59 8v448q0 41 11.5 84.5q11.5 43.5 37 79.5q25.5 36 65 59q39.5 23 96.5 23q34 0 63.5 -11q29.5 -11 51.5 -29.5q22 -18.5 34 -43.5q12 -25 12 -53q0 -40 -13.5 -64q-13.5 -24 -34 -39q-20.5 -15 -44.5 -25q-24 -10 -44.5 -21.5q-20.5 -11.5 -34 -28.5q-13.5 -17 -13.5 -47q0 -21 17.5 -34q17.5 -13 44 -23q26.5 -10 57 -20.5q30.5 -10.5 57 -27.5q26.5 -17 44 -43.5q17.5 -26.5 17.5 -68.5q0 -39 -14 -67q-14 -28 -38 -47q-24 -19 -55.5 -28q-31.5 -9 -66.5 -9l-110 83l11 17q12 -8 28 -15q16 -7 33 -12q17 -5 33.5 -8q16.5 -3 31.5 -3q31 0 52.5 18q21.5 18 21.5 53q0 28 -16.5 43.5q-16.5 15.5 -40.5 26.5q-24 11 -53 21.5q-29 10.5 -53 27q-24 16.5 -40.5 43q-16.5 26.5 -16.5 70.5q0 31 11.5 50.5q11.5 19.5 29 34q17.5 14.5 38 26.5q20.5 12 38 27.5q17.5 15.5 29 36q11.5 20.5 11.5 53.5q0 45 -18.5 75.5q-18.5 30.5 -58.5 30.5q-23 0 -46 -11q-23 -11 -41 -36q-18 -25 -29 -66q-11 -41 -11 -102z" />
<glyph unicode="&#224;" horiz-adv-x="441" d="M165 -10q-27 0 -51.5 6q-24.5 6 -43 19.5q-18.5 13.5 -29.5 35q-11 21.5 -11 51.5q0 38 28.5 66.5q28.5 28.5 70.5 48.5q42 20 90 32q48 12 88 17q0 77 -14 113q-14 36 -37 47l-183 -73l-28 61q62 24 114.5 31q52.5 7 96.5 7q14 0 37 -5q23 -5 44.5 -24q21.5 -19 37.5 -56q16 -37 16 -101v-266h-84v74zM186 52q15 0 34 6q19 6 37 14q18 8 31.5 16q13.5 8 18.5 13l0 144q-27 -3 -60 -14q-33 -11 -61.5 -28.5q-28.5 -17.5 -47.5 -40.5q-19 -23 -19 -49q0 -30 15.5 -45.5q15.5 -15.5 51.5 -15.5zt0 0zM318 544h-35l-161 162l98 0z" />
<glyph unicode="&#225;" horiz-adv-x="441" d="M165 -10q-27 0 -51.5 6q-24.5 6 -43 19.5q-18.5 13.5 -29.5 35q-11 21.5 -11 51.5q0 38 28.5 66.5q28.5 28.5 70.5 48.5q42 20 90 32q48 12 88 17q0 77 -14 113q-14 36 -37 47l-183 -73l-28 61q62 24 114.5 31q52.5 7 96.5 7q14 0 37 -5q23 -5 44.5 -24q21.5 -19 37.5 -56q16 -37 16 -101v-266h-84v74zM186 52q15 0 34 6q19 6 37 14q18 8 31.5 16q13.5 8 18.5 13l0 144q-27 -3 -60 -14q-33 -11 -61.5 -28.5q-28.5 -17.5 -47.5 -40.5q-19 -23 -19 -49q0 -30 15.5 -45.5q15.5 -15.5 51.5 -15.5zt0 0zM230 706h98l-161 -162l-35 0z" />
<glyph unicode="&#226;" horiz-adv-x="441" d="M165 -10q-27 0 -51.5 6q-24.5 6 -43 19.5q-18.5 13.5 -29.5 35q-11 21.5 -11 51.5q0 38 28.5 66.5q28.5 28.5 70.5 48.5q42 20 90 32q48 12 88 17q0 77 -14 113q-14 36 -37 47l-183 -73l-28 61q62 24 114.5 31q52.5 7 96.5 7q14 0 37 -5q23 -5 44.5 -24q21.5 -19 37.5 -56q16 -37 16 -101v-266h-84v74zM186 52q15 0 34 6q19 6 37 14q18 8 31.5 16q13.5 8 18.5 13l0 144q-27 -3 -60 -14q-33 -11 -61.5 -28.5q-28.5 -17.5 -47.5 -40.5q-19 -23 -19 -49q0 -30 15.5 -45.5q15.5 -15.5 51.5 -15.5zt0 0zM181 706h78l108 -162h-35l-112 120l-112 -120l-35 0z" />
<glyph unicode="&#227;" horiz-adv-x="441" d="M165 -10q-27 0 -51.5 6q-24.5 6 -43 19.5q-18.5 13.5 -29.5 35q-11 21.5 -11 51.5q0 38 28.5 66.5q28.5 28.5 70.5 48.5q42 20 90 32q48 12 88 17q0 77 -14 113q-14 36 -37 47l-183 -73l-28 61q62 24 114.5 31q52.5 7 96.5 7q14 0 37 -5q23 -5 44.5 -24q21.5 -19 37.5 -56q16 -37 16 -101v-266h-84v74zM186 52q15 0 34 6q19 6 37 14q18 8 31.5 16q13.5 8 18.5 13l0 144q-27 -3 -60 -14q-33 -11 -61.5 -28.5q-28.5 -17.5 -47.5 -40.5q-19 -23 -19 -49q0 -30 15.5 -45.5q15.5 -15.5 51.5 -15.5zt0 0zM388 624q-17 -30 -42.5 -53.5q-25.5 -23.5 -63.5 -23.5q-24 0 -41.5 8q-17.5 8 -32.5 17q-15 9 -29 17q-14 8 -32 8q-18 0 -38 -7.5q-20 -7.5 -37 -33.5l-20 14q17 30 42.5 53.5q25.5 23.5 63.5 23.5q24 0 41 -8q17 -8 32 -17q15 -9 29.5 -17q14.5 -8 32.5 -8q18 0 38 7.5q20 7.5 37 33.5z" />
<glyph unicode="&#228;" horiz-adv-x="441" d="M165 -10q-27 0 -51.5 6q-24.5 6 -43 19.5q-18.5 13.5 -29.5 35q-11 21.5 -11 51.5q0 38 28.5 66.5q28.5 28.5 70.5 48.5q42 20 90 32q48 12 88 17q0 77 -14 113q-14 36 -37 47l-183 -73l-28 61q62 24 114.5 31q52.5 7 96.5 7q14 0 37 -5q23 -5 44.5 -24q21.5 -19 37.5 -56q16 -37 16 -101v-266h-84v74zM186 52q15 0 34 6q19 6 37 14q18 8 31.5 16q13.5 8 18.5 13l0 144q-27 -3 -60 -14q-33 -11 -61.5 -28.5q-28.5 -17.5 -47.5 -40.5q-19 -23 -19 -49q0 -30 15.5 -45.5q15.5 -15.5 51.5 -15.5zt0 0zM309 538q-21 0 -37 15.5q-16 15.5 -16 37.5q0 23 16 39q16 16 37 16q23 0 39 -16q16 -16 16 -39q0 -22 -16 -37.5q-16 -15.5 -39 -15.5zt0 0zM129 538q-21 0 -37 15.5q-16 15.5 -16 37.5q0 23 16 39q16 16 37 16q23 0 39 -16q16 -16 16 -39q0 -22 -16 -37.5t-39 -15.5z" />
<glyph unicode="&#229;" horiz-adv-x="441" d="M165 -10q-27 0 -51.5 6q-24.5 6 -43 19.5q-18.5 13.5 -29.5 35q-11 21.5 -11 51.5q0 38 28.5 66.5q28.5 28.5 70.5 48.5q42 20 90 32q48 12 88 17q0 77 -14 113q-14 36 -37 47l-183 -73l-28 61q62 24 114.5 31q52.5 7 96.5 7q14 0 37 -5q23 -5 44.5 -24q21.5 -19 37.5 -56q16 -37 16 -101v-266h-84v74zM186 52q15 0 34 6q19 6 37 14q18 8 31.5 16q13.5 8 18.5 13l0 144q-27 -3 -60 -14q-33 -11 -61.5 -28.5q-28.5 -17.5 -47.5 -40.5q-19 -23 -19 -49q0 -30 15.5 -45.5q15.5 -15.5 51.5 -15.5zt0 0zM140 622q0 34 23.5 57q23.5 23 57.5 23q34 0 57 -23q23 -23 23 -57q0 -34 -23 -57.5q-23 -23.5 -57 -23.5q-34 0 -57.5 23.5q-23.5 23.5 -23.5 57.5zt0 0zM176 622q0 -18 12.5 -30.5q12.5 -12.5 31.5 -12.5q17 0 29 12.5q12 12.5 12 30.5q0 18 -12 30q-12 12 -29 12q-19 0 -31.5 -12t-12.5 -30z" />
<glyph unicode="&#230;" horiz-adv-x="719" d="M530 -15q-26 0 -52.5 5q-26.5 5 -52 16q-25.5 11 -47.5 29.5q-22 18.5 -38 44.5l-175 -90q-27 0 -51.5 6q-24.5 6 -43 19.5q-18.5 13.5 -29.5 35q-11 21.5 -11 51.5q0 38 28.5 66.5q28.5 28.5 70.5 48.5q42 20 90 32q48 12 88 17q0 77 -14 113q-14 36 -37 47l-183 -73l-28 61q62 24 114.5 31q52.5 7 96.5 7q10 0 24 -2q14 -2 29.5 -9q15.5 -7 30.5 -20.5q15 -13.5 27 -35.5q29 33 66.5 50q37.5 17 75.5 17q34 0 66.5 -8q32.5 -8 57.5 -28q25 -20 40 -54.5q15 -34.5 15 -88.5l-290 0q-2 -15 -3.5 -31q-1.5 -16 -1.5 -34q0 -43 14 -72.5q14 -29.5 38 -48q24 -18.5 55 -26.5q31 -8 65 -8q30 0 64 10.5q34 10.5 57 21.5l8 -21zM186 52q15 0 32.5 4.5q17.5 4.5 34.5 10.5q17 6 31.5 12.5q14.5 6.5 22.5 11.5l0 154q-27 -3 -60 -14q-33 -11 -61.5 -28.5q-28.5 -17.5 -47.5 -40.5q-19 -23 -19 -49q0 -30 15.5 -45.5q15.5 -15.5 51.5 -15.5zt0 0zM512 426q-33 0 -64.5 -33q-31.5 -33 -46.5 -102l202 28q-2 16 -6 35q-4 19 -13.5 35q-9.5 16 -27 26.5t-44.5 10.5z" />
<glyph unicode="&#231;" horiz-adv-x="443" d="M156 -163q10 -4 24 -6.5q14 -2.5 21 -2.5q27 0 38.5 9.5q11.5 9.5 11.5 20.5q0 16 -12.5 27.5q-12.5 11.5 -32.5 13.5l-29 3l32 88q-33 6 -63.5 22.5q-30.5 16.5 -54 44q-23.5 27.5 -37.5 67.5q-14 40 -14 93q0 61 22 105q22 44 55 73q33 29 73 43q40 14 76 14q35 0 71.5 -5.5q36.5 -5.5 74.5 -13.5l-16 -70l-195 54q-12 -13 -25 -29.5q-13 -16.5 -23 -40q-10 -23.5 -16.5 -55q-6.5 -31.5 -6.5 -75.5q0 -50 13 -82q13 -32 35 -50q22 -18 52 -25q30 -7 63 -7q15 0 33 3.5q18 3.5 35 8q17 4.5 31 10q14 5.5 22 10.5l9 -21l-165 -79h-1l-21 -51q36 -5 62 -25q26 -20 26 -45q0 -34 -30 -53.5q-30 -19.5 -81 -19.5l-57 16z" />
<glyph unicode="&#232;" horiz-adv-x="451" d="M262 -15q-37 0 -76.5 11q-39.5 11 -71.5 37.5q-32 26.5 -53 69q-21 42.5 -21 105.5q0 60 18 106q18 46 46.5 76.5q28.5 30.5 64.5 46q36 15.5 72 15.5q34 0 66.5 -8q32.5 -8 57.5 -28q25 -20 40 -54.5q15 -34.5 15 -88.5l-290 0q-2 -15 -3.5 -31q-1.5 -16 -1.5 -34q0 -43 14 -72.5q14 -29.5 38 -48q24 -18.5 55 -26.5q31 -8 65 -8q30 0 64 10.5q34 10.5 57 21.5l8 -21zM244 426q-33 0 -64.5 -33q-31.5 -33 -46.5 -102l202 28q-2 16 -6 35q-4 19 -13.5 35q-9.5 16 -27 26.5q-17.5 10.5 -44.5 10.5zt0 0zM344 544h-35l-161 162l98 0z" />
<glyph unicode="&#233;" horiz-adv-x="451" d="M262 -15q-37 0 -76.5 11q-39.5 11 -71.5 37.5q-32 26.5 -53 69q-21 42.5 -21 105.5q0 60 18 106q18 46 46.5 76.5q28.5 30.5 64.5 46q36 15.5 72 15.5q34 0 66.5 -8q32.5 -8 57.5 -28q25 -20 40 -54.5q15 -34.5 15 -88.5l-290 0q-2 -15 -3.5 -31q-1.5 -16 -1.5 -34q0 -43 14 -72.5q14 -29.5 38 -48q24 -18.5 55 -26.5q31 -8 65 -8q30 0 64 10.5q34 10.5 57 21.5l8 -21zM244 426q-33 0 -64.5 -33q-31.5 -33 -46.5 -102l202 28q-2 16 -6 35q-4 19 -13.5 35q-9.5 16 -27 26.5q-17.5 10.5 -44.5 10.5zt0 0zM285 706h98l-161 -162l-35 0z" />
<glyph unicode="&#234;" horiz-adv-x="451" d="M262 -15q-37 0 -76.5 11q-39.5 11 -71.5 37.5q-32 26.5 -53 69q-21 42.5 -21 105.5q0 60 18 106q18 46 46.5 76.5q28.5 30.5 64.5 46q36 15.5 72 15.5q34 0 66.5 -8q32.5 -8 57.5 -28q25 -20 40 -54.5q15 -34.5 15 -88.5l-290 0q-2 -15 -3.5 -31q-1.5 -16 -1.5 -34q0 -43 14 -72.5q14 -29.5 38 -48q24 -18.5 55 -26.5q31 -8 65 -8q30 0 64 10.5q34 10.5 57 21.5l8 -21zM244 426q-33 0 -64.5 -33q-31.5 -33 -46.5 -102l202 28q-2 16 -6 35q-4 19 -13.5 35q-9.5 16 -27 26.5q-17.5 10.5 -44.5 10.5zt0 0zM216 706h78l108 -162h-35l-112 120l-112 -120l-35 0z" />
<glyph unicode="&#235;" horiz-adv-x="451" d="M262 -15q-37 0 -76.5 11q-39.5 11 -71.5 37.5q-32 26.5 -53 69q-21 42.5 -21 105.5q0 60 18 106q18 46 46.5 76.5q28.5 30.5 64.5 46q36 15.5 72 15.5q34 0 66.5 -8q32.5 -8 57.5 -28q25 -20 40 -54.5q15 -34.5 15 -88.5l-290 0q-2 -15 -3.5 -31q-1.5 -16 -1.5 -34q0 -43 14 -72.5q14 -29.5 38 -48q24 -18.5 55 -26.5q31 -8 65 -8q30 0 64 10.5q34 10.5 57 21.5l8 -21zM244 426q-33 0 -64.5 -33q-31.5 -33 -46.5 -102l202 28q-2 16 -6 35q-4 19 -13.5 35q-9.5 16 -27 26.5q-17.5 10.5 -44.5 10.5zt0 0zM344 538q-21 0 -37 15.5q-16 15.5 -16 37.5q0 23 16 39q16 16 37 16q23 0 39 -16q16 -16 16 -39q0 -22 -16 -37.5q-16 -15.5 -39 -15.5zt0 0zM164 538q-21 0 -37 15.5q-16 15.5 -16 37.5q0 23 16 39q16 16 37 16q23 0 39 -16q16 -16 16 -39q0 -22 -16 -37.5t-39 -15.5z" />
<glyph unicode="&#236;" horiz-adv-x="275" d="M33 14l71 9v329l-59 85h143v-414l80 -9v-14h-235zM236 544h-35l-161 162l98 0z" />
<glyph unicode="&#237;" horiz-adv-x="275" d="M33 14l71 9v329l-59 85h143v-414l80 -9v-14h-235zM138 706h98l-161 -162l-35 0z" />
<glyph unicode="&#238;" horiz-adv-x="275" d="M33 14l71 9v329l-59 85h143v-414l80 -9v-14h-235zM99 706h78l108 -162h-35l-112 120l-112 -120l-35 0z" />
<glyph unicode="&#239;" horiz-adv-x="275" d="M195 538q-18 0 -31.5 15q-13.5 15 -13.5 38q0 23 13.5 39.5q13.5 16.5 31.5 16.5q20 0 33.5 -16.5q13.5 -16.5 13.5 -39.5q0 -23 -13.5 -38q-13.5 -15 -33.5 -15zt0 0zM77 538q-17 0 -31 15q-14 15 -14 38q0 23 14 39.5q14 16.5 31 16.5q20 0 34 -16.5q14 -16.5 14 -39.5q0 -23 -14 -38q-14 -15 -34 -15zt0 0zM33 14l71 9v329l-59 85h143v-414l80 -9v-14l-235 0z" />
<glyph unicode="&#240;" horiz-adv-x="527" d="M254 676q64 -21 108.5 -57.5q44.5 -36.5 72 -86q27.5 -49.5 40 -109.5q12.5 -60 12.5 -128q0 -61 -15.5 -117q-15.5 -56 -45.5 -98.5q-30 -42.5 -73.5 -67.5q-43.5 -25 -99.5 -25q-51 0 -90.5 18.5q-39.5 18.5 -67 51q-27.5 32.5 -41.5 75q-14 42.5 -14 90.5q0 61 22.5 104.5q22.5 43.5 56 71.5q33.5 28 72.5 41q39 13 71 13q31 0 59.5 -2.5q28.5 -2.5 52.5 -9.5q-16 69 -48.5 117.5q-32.5 48.5 -85.5 75.5l-30 -93l-52 17l32 96q-24 7 -50.5 10.5q-26.5 3.5 -56.5 3.5l0 33q33 0 62.5 -3q29.5 -3 56.5 -8l28 84l51 -16zM388 295q0 29 -2 55q-2 26 -5 50q-22 6 -43 8q-21 2 -44 2q-20 0 -47.5 -7.5q-27.5 -7.5 -53 -28.5q-25.5 -21 -43.5 -58q-18 -37 -18 -95q0 -42 9 -78.5q9 -36.5 24.5 -64.5q15.5 -28 38 -44q22.5 -16 49.5 -16q33 0 58 19.5q25 19.5 42.5 55.5q17.5 36 26 87t8.5 115z" />
<glyph unicode="&#241;" horiz-adv-x="591" d="M332 447q33 0 64 -11q31 -11 55 -34q24 -23 39 -59.5q15 -36.5 15 -88.5v-231l79 -9v-14h-235v14l72 9v231q0 41 -11 69q-11 28 -29 44.5q-18 16.5 -40 23.5q-22 7 -44 7q-32 0 -56 -11.5q-24 -11.5 -53 -28.5l0 -335l80 -9v-14h-235v14l71 9v328l-58 86h142v-47zM463 624q-17 -30 -42.5 -53.5q-25.5 -23.5 -63.5 -23.5q-24 0 -41.5 8q-17.5 8 -32.5 17q-15 9 -29 17q-14 8 -32 8q-18 0 -38 -7.5q-20 -7.5 -37 -33.5l-20 14q17 30 42.5 53.5q25.5 23.5 63.5 23.5q24 0 41 -8q17 -8 32 -17q15 -9 29.5 -17q14.5 -8 32.5 -8q18 0 38 7.5q20 7.5 37 33.5z" />
<glyph unicode="&#242;" horiz-adv-x="528" d="M394 219q0 50 -10.5 88.5q-10.5 38.5 -29 65q-18.5 26.5 -43 40q-24.5 13.5 -52.5 13.5q-57 0 -91 -53.5q-34 -53.5 -34 -153.5q0 -100 34 -153.5q34 -53.5 91 -53.5q28 0 52.5 14q24.5 14 43 40q18.5 26 29 64.5q10.5 38.5 10.5 88.5zt0 0zM488 219q0 -50 -18.5 -93q-18.5 -43 -49.5 -74.5q-31 -31.5 -73 -49q-42 -17.5 -88 -17.5q-47 0 -87 17.5q-40 17.5 -69 49q-29 31.5 -46 74.5q-17 43 -17 93q0 58 17 102q17 44 46 73.5q29 29.5 69 44q40 14.5 87 14.5q46 0 88 -14.5q42 -14.5 73 -44q31 -29.5 49.5 -73.5q18.5 -44 18.5 -102zt0 0zM362 544h-35l-161 162l98 0z" />
<glyph unicode="&#243;" horiz-adv-x="528" d="M394 219q0 50 -10.5 88.5q-10.5 38.5 -29 65q-18.5 26.5 -43 40q-24.5 13.5 -52.5 13.5q-57 0 -91 -53.5q-34 -53.5 -34 -153.5q0 -100 34 -153.5q34 -53.5 91 -53.5q28 0 52.5 14q24.5 14 43 40q18.5 26 29 64.5q10.5 38.5 10.5 88.5zt0 0zM488 219q0 -50 -18.5 -93q-18.5 -43 -49.5 -74.5q-31 -31.5 -73 -49q-42 -17.5 -88 -17.5q-47 0 -87 17.5q-40 17.5 -69 49q-29 31.5 -46 74.5q-17 43 -17 93q0 58 17 102q17 44 46 73.5q29 29.5 69 44q40 14.5 87 14.5q46 0 88 -14.5q42 -14.5 73 -44q31 -29.5 49.5 -73.5q18.5 -44 18.5 -102zt0 0zM260 706h98l-161 -162l-35 0z" />
<glyph unicode="&#244;" horiz-adv-x="528" d="M394 219q0 50 -10.5 88.5q-10.5 38.5 -29 65q-18.5 26.5 -43 40q-24.5 13.5 -52.5 13.5q-57 0 -91 -53.5q-34 -53.5 -34 -153.5q0 -100 34 -153.5q34 -53.5 91 -53.5q28 0 52.5 14q24.5 14 43 40q18.5 26 29 64.5q10.5 38.5 10.5 88.5zt0 0zM488 219q0 -50 -18.5 -93q-18.5 -43 -49.5 -74.5q-31 -31.5 -73 -49q-42 -17.5 -88 -17.5q-47 0 -87 17.5q-40 17.5 -69 49q-29 31.5 -46 74.5q-17 43 -17 93q0 58 17 102q17 44 46 73.5q29 29.5 69 44q40 14.5 87 14.5q46 0 88 -14.5q42 -14.5 73 -44q31 -29.5 49.5 -73.5q18.5 -44 18.5 -102zt0 0zM225 706h78l108 -162h-35l-112 120l-112 -120l-35 0z" />
<glyph unicode="&#245;" horiz-adv-x="528" d="M394 219q0 50 -10.5 88.5q-10.5 38.5 -29 65q-18.5 26.5 -43 40q-24.5 13.5 -52.5 13.5q-57 0 -91 -53.5q-34 -53.5 -34 -153.5q0 -100 34 -153.5q34 -53.5 91 -53.5q28 0 52.5 14q24.5 14 43 40q18.5 26 29 64.5q10.5 38.5 10.5 88.5zt0 0zM488 219q0 -50 -18.5 -93q-18.5 -43 -49.5 -74.5q-31 -31.5 -73 -49q-42 -17.5 -88 -17.5q-47 0 -87 17.5q-40 17.5 -69 49q-29 31.5 -46 74.5q-17 43 -17 93q0 58 17 102q17 44 46 73.5q29 29.5 69 44q40 14.5 87 14.5q46 0 88 -14.5q42 -14.5 73 -44q31 -29.5 49.5 -73.5q18.5 -44 18.5 -102zt0 0zM432 624q-17 -30 -42.5 -53.5q-25.5 -23.5 -63.5 -23.5q-24 0 -41.5 8q-17.5 8 -32.5 17q-15 9 -29 17q-14 8 -32 8q-18 0 -38 -7.5q-20 -7.5 -37 -33.5l-20 14q17 30 42.5 53.5q25.5 23.5 63.5 23.5q24 0 41 -8q17 -8 32 -17q15 -9 29.5 -17q14.5 -8 32.5 -8q18 0 38 7.5q20 7.5 37 33.5z" />
<glyph unicode="&#246;" horiz-adv-x="528" d="M394 219q0 50 -10.5 88.5q-10.5 38.5 -29 65q-18.5 26.5 -43 40q-24.5 13.5 -52.5 13.5q-57 0 -91 -53.5q-34 -53.5 -34 -153.5q0 -100 34 -153.5q34 -53.5 91 -53.5q28 0 52.5 14q24.5 14 43 40q18.5 26 29 64.5q10.5 38.5 10.5 88.5zt0 0zM488 219q0 -50 -18.5 -93q-18.5 -43 -49.5 -74.5q-31 -31.5 -73 -49q-42 -17.5 -88 -17.5q-47 0 -87 17.5q-40 17.5 -69 49q-29 31.5 -46 74.5q-17 43 -17 93q0 58 17 102q17 44 46 73.5q29 29.5 69 44q40 14.5 87 14.5q46 0 88 -14.5q42 -14.5 73 -44q31 -29.5 49.5 -73.5q18.5 -44 18.5 -102zt0 0zM353 538q-21 0 -37 15.5q-16 15.5 -16 37.5q0 23 16 39q16 16 37 16q23 0 39 -16q16 -16 16 -39q0 -22 -16 -37.5q-16 -15.5 -39 -15.5zt0 0zM173 538q-21 0 -37 15.5q-16 15.5 -16 37.5q0 23 16 39q16 16 37 16q23 0 39 -16q16 -16 16 -39q0 -22 -16 -37.5t-39 -15.5z" />
<glyph unicode="&#247;" horiz-adv-x="640" d="M375 136q0 -22 -16 -37.5q-16 -15.5 -39 -15.5q-21 0 -37 15.5q-16 15.5 -16 37.5q0 23 16 39q16 16 37 16q23 0 39 -16q16 -16 16 -39zt0 0zM50 263v43h540v-43zM375 431q0 -22 -16 -37.5q-16 -15.5 -39 -15.5q-21 0 -37 15.5q-16 15.5 -16 37.5q0 23 16 39q16 16 37 16q23 0 39 -16t16 -39z" />
<glyph unicode="&#248;" horiz-adv-x="528" d="M430 384q27 -29 42.5 -70q15.5 -41 15.5 -95q0 -50 -18.5 -93q-18.5 -43 -49.5 -74.5q-31 -31.5 -73 -49q-42 -17.5 -88 -17.5q-38 0 -72.5 12q-34.5 12 -61.5 34l-27 -31h-46l47 55q-28 31 -43.5 73q-15.5 42 -15.5 91q0 58 17 102q17 44 46 73.5q29 29.5 69 44q40 14.5 87 14.5q41 0 78 -11.5q37 -11.5 67 -34.5l26 30h46zM134 219q0 -61 14 -108l215 248q-19 33 -45.5 50q-26.5 17 -58.5 17q-57 0 -91 -53.5q-34 -53.5 -34 -153.5zt0 0zM394 219q0 59 -16 105l-215 -249q34 -63 96 -63q28 0 52.5 14q24.5 14 43 40q18.5 26 29 64.5t10.5 88.5z" />
<glyph unicode="&#249;" horiz-adv-x="518" d="M384 0v71l-124 -81q-36 0 -67.5 6.5q-31.5 6.5 -54.5 26.5q-23 20 -36.5 58q-13.5 38 -13.5 101v169l-58 86h142v-255q0 -43 7.5 -69.5q7.5 -26.5 21 -41q13.5 -14.5 31.5 -19.5q18 -5 39 -5q21 0 51.5 14.5q30.5 14.5 61.5 38.5l0 251l-58 86h142v-437zM357 544h-35l-161 162l98 0z" />
<glyph unicode="&#250;" horiz-adv-x="518" d="M384 0v71l-124 -81q-36 0 -67.5 6.5q-31.5 6.5 -54.5 26.5q-23 20 -36.5 58q-13.5 38 -13.5 101v169l-58 86h142v-255q0 -43 7.5 -69.5q7.5 -26.5 21 -41q13.5 -14.5 31.5 -19.5q18 -5 39 -5q21 0 51.5 14.5q30.5 14.5 61.5 38.5l0 251l-58 86h142v-437zM299 706h98l-161 -162l-35 0z" />
<glyph unicode="&#251;" horiz-adv-x="518" d="M384 0v71l-124 -81q-36 0 -67.5 6.5q-31.5 6.5 -54.5 26.5q-23 20 -36.5 58q-13.5 38 -13.5 101v169l-58 86h142v-255q0 -43 7.5 -69.5q7.5 -26.5 21 -41q13.5 -14.5 31.5 -19.5q18 -5 39 -5q21 0 51.5 14.5q30.5 14.5 61.5 38.5l0 251l-58 86h142v-437zM220 706h78l108 -162h-35l-112 120l-112 -120l-35 0z" />
<glyph unicode="&#252;" horiz-adv-x="518" d="M384 0v71l-124 -81q-36 0 -67.5 6.5q-31.5 6.5 -54.5 26.5q-23 20 -36.5 58q-13.5 38 -13.5 101v169l-58 86h142v-255q0 -43 7.5 -69.5q7.5 -26.5 21 -41q13.5 -14.5 31.5 -19.5q18 -5 39 -5q21 0 51.5 14.5q30.5 14.5 61.5 38.5l0 251l-58 86h142v-437zM358 538q-21 0 -37 15.5q-16 15.5 -16 37.5q0 23 16 39q16 16 37 16q23 0 39 -16q16 -16 16 -39q0 -22 -16 -37.5q-16 -15.5 -39 -15.5zt0 0zM178 538q-21 0 -37 15.5q-16 15.5 -16 37.5q0 23 16 39q16 16 37 16q23 0 39 -16q16 -16 16 -39q0 -22 -16 -37.5t-39 -15.5z" />
<glyph unicode="&#253;" horiz-adv-x="528" d="M471 415l-289 -711h-89l148 268l-175 443l-68 9v13h239v-13l-70 -9l123 -350l116 351l-62 8v13h186v-13zM290 706h98l-161 -162l-35 0z" />
<glyph unicode="&#254;" horiz-adv-x="544" d="M292 453q40 0 78 -13q38 -13 68 -40.5q30 -27.5 48 -71q18 -43.5 18 -103.5q0 -63 -20.5 -108.5q-20.5 -45.5 -52 -74.5q-31.5 -29 -69 -43q-37.5 -14 -70.5 -14q-31 0 -67 8.5q-36 8.5 -62 23.5l0 -292l76 -9v-12h-219v12l59 9v889l-57 86h141v-310zM410 225q0 50 -15 82.5q-15 32.5 -37.5 52q-22.5 19.5 -49 27q-26.5 7.5 -50.5 7.5q-29 0 -50.5 -9.5q-21.5 -9.5 -44.5 -21.5l0 -320q8 -5 20.5 -9q12.5 -4 26 -7q13.5 -3 27 -4.5q13.5 -1.5 24.5 -1.5q19 0 44.5 7.5q25.5 7.5 49 29.5q23.5 22 39.5 62t16 105z" />
<glyph unicode="&#255;" horiz-adv-x="528" d="M471 415l-289 -711h-89l148 268l-175 443l-68 9v13h239v-13l-70 -9l123 -350l116 351l-62 8v13h186v-13zM353 538q-21 0 -37 15.5q-16 15.5 -16 37.5q0 23 16 39q16 16 37 16q23 0 39 -16q16 -16 16 -39q0 -22 -16 -37.5q-16 -15.5 -39 -15.5zt0 0zM173 538q-21 0 -37 15.5q-16 15.5 -16 37.5q0 23 16 39q16 16 37 16q23 0 39 -16q16 -16 16 -39q0 -22 -16 -37.5t-39 -15.5z" />
<glyph unicode="&#256;" horiz-adv-x="742" d="M737 15v-15h-273v15l76 10l-77 226h-218l-75 -224l84 -12v-15h-249v15l75 10l281 690h20l276 -688zM444 305l-93 267l-88 -267zM241 795v60h260l0 -60z" />
<glyph unicode="&#257;" horiz-adv-x="441" d="M165 -10q-27 0 -51.5 6q-24.5 6 -43 19.5q-18.5 13.5 -29.5 35q-11 21.5 -11 51.5q0 38 28.5 66.5q28.5 28.5 70.5 48.5q42 20 90 32q48 12 88 17q0 77 -14 113q-14 36 -37 47l-183 -73l-28 61q62 24 114.5 31q52.5 7 96.5 7q14 0 37 -5q23 -5 44.5 -24q21.5 -19 37.5 -56q16 -37 16 -101v-266h-84v74zM186 52q15 0 34 6q19 6 37 14q18 8 31.5 16q13.5 8 18.5 13l0 144q-27 -3 -60 -14q-33 -11 -61.5 -28.5q-28.5 -17.5 -47.5 -40.5q-19 -23 -19 -49q0 -30 15.5 -45.5q15.5 -15.5 51.5 -15.5zt0 0zM90 559v60h260l0 -60z" />
<glyph unicode="&#260;" horiz-adv-x="742" d="M464 0v15l76 10l-77 226h-218l-75 -224l84 -12v-15h-249v15l75 10l281 690h20l276 -688l80 -12v-15q-51 -33 -69.5 -63q-18.5 -30 -18.5 -51q0 -18 9.5 -31q9.5 -13 32.5 -13q6 0 22 2q16 2 24 4l0 -23l-80 -24q-22 0 -37 6.5q-15 6.5 -24.5 16q-9.5 9.5 -13.5 21.5q-4 12 -4 24q0 32 30 63q30 31 81 68zM444 305l-93 267l-88 -267z" />
<glyph unicode="&#261;" horiz-adv-x="441" d="M307 0v74l-142 -84q-27 0 -51.5 6q-24.5 6 -43 19.5q-18.5 13.5 -29.5 35q-11 21.5 -11 51.5q0 38 28.5 66.5q28.5 28.5 70.5 48.5q42 20 90 32q48 12 88 17q0 77 -14 113q-14 36 -37 47l-183 -73l-28 61q62 24 114.5 31q52.5 7 96.5 7q14 0 37 -5q23 -5 44.5 -24q21.5 -19 37.5 -56q16 -37 16 -101v-266q-51 -33 -69.5 -63q-18.5 -30 -18.5 -51q0 -18 9.5 -31q9.5 -13 32.5 -13q6 0 22 2q16 2 24 4l0 -23l-80 -24q-22 0 -37 6.5q-15 6.5 -24.5 16q-9.5 9.5 -13.5 21.5q-4 12 -4 24q0 32 30 63q30 31 81 68zM186 52q15 0 34 6q19 6 37 14q18 8 31.5 16q13.5 8 18.5 13l0 144q-27 -3 -60 -14q-33 -11 -61.5 -28.5q-28.5 -17.5 -47.5 -40.5q-19 -23 -19 -49q0 -30 15.5 -45.5t51.5 -15.5z" />
<glyph unicode="&#262;" horiz-adv-x="661" d="M621 59q-18 -9 -46.5 -21.5q-28.5 -12.5 -61 -24q-32.5 -11.5 -64.5 -20q-32 -8.5 -58 -8.5q-87 0 -153 25.5q-66 25.5 -110 72q-44 46.5 -66 113q-22 66.5 -22 147.5q0 74 32 141.5q32 67.5 87 118.5q55 51 127 81.5q72 30.5 153 30.5q32 0 61 -3q29 -3 50 -6q25 -4 46 -8l-20 -75l-252 39q-92 -38 -133 -120q-41 -82 -41 -199q0 -72 20 -126.5q20 -54.5 57 -92q37 -37.5 89 -56.5q52 -19 115 -19q13 0 36.5 3q23.5 3 50 8q26.5 5 52 11.5q25.5 6.5 42.5 13.5zM360 934h98l-161 -162l-35 0z" />
<glyph unicode="&#263;" horiz-adv-x="443" d="M258 -15q-39 0 -77.5 12.5q-38.5 12.5 -70 40.5q-31.5 28 -51 72q-19.5 44 -19.5 107q0 61 22 105q22 44 55 73q33 29 73 43q40 14 76 14q35 0 71.5 -5.5q36.5 -5.5 74.5 -13.5l-16 -70l-195 54q-12 -13 -25 -29.5q-13 -16.5 -23 -40q-10 -23.5 -16.5 -55q-6.5 -31.5 -6.5 -75.5q0 -50 13 -82q13 -32 35 -50q22 -18 52 -25q30 -7 63 -7q15 0 33 3.5q18 3.5 35 8q17 4.5 31 10q14 5.5 22 10.5l9 -21zM261 706h98l-161 -162l-35 0z" />
<glyph unicode="&#268;" horiz-adv-x="661" d="M621 59q-18 -9 -46.5 -21.5q-28.5 -12.5 -61 -24q-32.5 -11.5 -64.5 -20q-32 -8.5 -58 -8.5q-87 0 -153 25.5q-66 25.5 -110 72q-44 46.5 -66 113q-22 66.5 -22 147.5q0 74 32 141.5q32 67.5 87 118.5q55 51 127 81.5q72 30.5 153 30.5q32 0 61 -3q29 -3 50 -6q25 -4 46 -8l-20 -75l-252 39q-92 -38 -133 -120q-41 -82 -41 -199q0 -72 20 -126.5q20 -54.5 57 -92q37 -37.5 89 -56.5q52 -19 115 -19q13 0 36.5 3q23.5 3 50 8q26.5 5 52 11.5q25.5 6.5 42.5 13.5zM223 934h35l112 -120l112 120h35l-108 -162l-78 0z" />
<glyph unicode="&#269;" horiz-adv-x="443" d="M258 -15q-39 0 -77.5 12.5q-38.5 12.5 -70 40.5q-31.5 28 -51 72q-19.5 44 -19.5 107q0 61 22 105q22 44 55 73q33 29 73 43q40 14 76 14q35 0 71.5 -5.5q36.5 -5.5 74.5 -13.5l-16 -70l-195 54q-12 -13 -25 -29.5q-13 -16.5 -23 -40q-10 -23.5 -16.5 -55q-6.5 -31.5 -6.5 -75.5q0 -50 13 -82q13 -32 35 -50q22 -18 52 -25q30 -7 63 -7q15 0 33 3.5q18 3.5 35 8q17 4.5 31 10q14 5.5 22 10.5l9 -21zM94 706h35l112 -120l112 120h35l-108 -162l-78 0z" />
<glyph unicode="&#270;" horiz-adv-x="736" d="M328 700q90 0 157 -31q67 -31 111.5 -81q44.5 -50 67 -112q22.5 -62 22.5 -125q0 -62 -21 -125q-21 -63 -65 -113q-44 -50 -111.5 -81.5q-67.5 -31.5 -160.5 -31.5h-288v15l91 9v652l-91 9v15zM328 45q62 0 107.5 24.5q45.5 24.5 75 66.5q29.5 42 44 97.5q14.5 55.5 14.5 117.5q0 62 -14.5 118q-14.5 56 -44 98q-29.5 42 -75 67q-45.5 25 -107.5 25h-98v-614zM181 934h35l112 -120l112 120h35l-108 -162l-78 0z" />
<glyph unicode="&#271;" horiz-adv-x="657" d="M383 0v71l-124 -86q-36 0 -74.5 12q-38.5 12 -71 39.5q-32.5 27.5 -53 71q-20.5 43.5 -20.5 106.5q0 61 20.5 104q20.5 43 51.5 70.5q31 27.5 68 40.5q37 13 69 13q39 0 73 -10q34 -10 61 -25l0 247l-57 86h141v-740zM383 375q-28 17 -51 26q-23 9 -53 9q-20 0 -46.5 -9q-26.5 -9 -50.5 -31q-24 -22 -40.5 -60q-16.5 -38 -16.5 -96q0 -46 14 -77q14 -31 36.5 -50.5q22.5 -19.5 49.5 -28q27 -8.5 54 -8.5q22 0 48 13q26 13 56 37zM657 619q0 -24 -13.5 -50q-13.5 -26 -31 -49q-17.5 -23 -34 -40q-16.5 -17 -22.5 -22l-13 8l57 114q-2 -1 -4 -1h-6q-26 0 -42 16q-16 16 -16 42q0 25 15.5 44q15.5 19 41.5 19q29 0 48.5 -21t19.5 -60z" />
<glyph unicode="&#272;" horiz-adv-x="736" d="M328 700q90 0 157 -31q67 -31 111.5 -81q44.5 -50 67 -112q22.5 -62 22.5 -125q0 -62 -21 -125q-21 -63 -65 -113q-44 -50 -111.5 -81.5q-67.5 -31.5 -160.5 -31.5h-288v15l91 9v300h-91v55h91v297l-91 9v15zM360 324h-130v-279h98q62 0 107.5 24.5q45.5 24.5 75 66.5q29.5 42 44 97.5q14.5 55.5 14.5 117.5q0 62 -14.5 118q-14.5 56 -44 98q-29.5 42 -75 67q-45.5 25 -107.5 25h-98v-280l130 0z" />
<glyph unicode="&#273;" horiz-adv-x="522" d="M383 654l-57 86h141v-161h54v-41h-54v-538h-84v71l-124 -86q-36 0 -74.5 12q-38.5 12 -71 39.5q-32.5 27.5 -53 71q-20.5 43.5 -20.5 106.5q0 61 20.5 104q20.5 43 51.5 70.5q31 27.5 68 40.5q37 13 69 13q39 0 73 -10q34 -10 61 -25l0 131h-151l10 41h141zM383 375q-28 17 -51 26q-23 9 -53 9q-20 0 -46.5 -9q-26.5 -9 -50.5 -31q-24 -22 -40.5 -60q-16.5 -38 -16.5 -96q0 -46 14 -77q14 -31 36.5 -50.5q22.5 -19.5 49.5 -28q27 -8.5 54 -8.5q22 0 48 13q26 13 56 37z" />
<glyph unicode="&#274;" horiz-adv-x="562" d="M465 319h-234v-284l281 42l-12 -77h-460v15l91 9v652l-91 9v15h459l-10 -78l-259 43v-319l235 64zM151 822v60h260l0 -60z" />
<glyph unicode="&#275;" horiz-adv-x="451" d="M262 -15q-37 0 -76.5 11q-39.5 11 -71.5 37.5q-32 26.5 -53 69q-21 42.5 -21 105.5q0 60 18 106q18 46 46.5 76.5q28.5 30.5 64.5 46q36 15.5 72 15.5q34 0 66.5 -8q32.5 -8 57.5 -28q25 -20 40 -54.5q15 -34.5 15 -88.5l-290 0q-2 -15 -3.5 -31q-1.5 -16 -1.5 -34q0 -43 14 -72.5q14 -29.5 38 -48q24 -18.5 55 -26.5q31 -8 65 -8q30 0 64 10.5q34 10.5 57 21.5l8 -21zM244 426q-33 0 -64.5 -33q-31.5 -33 -46.5 -102l202 28q-2 16 -6 35q-4 19 -13.5 35q-9.5 16 -27 26.5q-17.5 10.5 -44.5 10.5zt0 0zM125 559v60h260l0 -60z" />
<glyph unicode="&#278;" horiz-adv-x="562" d="M465 319h-234v-284l281 42l-12 -77h-460v15l91 9v652l-91 9v15h459l-10 -78l-259 43v-319l235 64zM290 771q-21 0 -37 15.5q-16 15.5 -16 37.5q0 23 16 39q16 16 37 16q23 0 39 -16q16 -16 16 -39q0 -22 -16 -37.5t-39 -15.5z" />
<glyph unicode="&#279;" horiz-adv-x="451" d="M262 -15q-37 0 -76.5 11q-39.5 11 -71.5 37.5q-32 26.5 -53 69q-21 42.5 -21 105.5q0 60 18 106q18 46 46.5 76.5q28.5 30.5 64.5 46q36 15.5 72 15.5q34 0 66.5 -8q32.5 -8 57.5 -28q25 -20 40 -54.5q15 -34.5 15 -88.5l-290 0q-2 -15 -3.5 -31q-1.5 -16 -1.5 -34q0 -43 14 -72.5q14 -29.5 38 -48q24 -18.5 55 -26.5q31 -8 65 -8q30 0 64 10.5q34 10.5 57 21.5l8 -21zM244 426q-33 0 -64.5 -33q-31.5 -33 -46.5 -102l202 28q-2 16 -6 35q-4 19 -13.5 35q-9.5 16 -27 26.5q-17.5 10.5 -44.5 10.5zt0 0zM254 538q-21 0 -37 15.5q-16 15.5 -16 37.5q0 23 16 39q16 16 37 16q23 0 39 -16q16 -16 16 -39q0 -22 -16 -37.5t-39 -15.5z" />
<glyph unicode="&#280;" horiz-adv-x="562" d="M40 0v15l91 9v652l-91 9v15h459l-10 -78l-259 43v-319l235 64v-91h-234v-284l281 42l-12 -77q-51 -33 -69.5 -63q-18.5 -30 -18.5 -51q0 -18 9.5 -31q9.5 -13 32.5 -13q6 0 22 2q16 2 24 4l0 -23l-80 -24q-22 0 -37 6.5q-15 6.5 -24.5 16q-9.5 9.5 -13.5 21.5q-4 12 -4 24q0 32 30 63q30 31 81 68z" />
<glyph unicode="&#281;" horiz-adv-x="451" d="M293 0q-51 -33 -69.5 -63q-18.5 -30 -18.5 -51q0 -18 9.5 -31q9.5 -13 32.5 -13q6 0 22 2q16 2 24 4l0 -23l-80 -24q-22 0 -37 6.5q-15 6.5 -24.5 16q-9.5 9.5 -13.5 21.5q-4 12 -4 24q0 29 25 57.5q25 28.5 68 60.5q-34 4 -67.5 18.5q-33.5 14.5 -60 40.5q-26.5 26 -43 66q-16.5 40 -16.5 96q0 60 18 106q18 46 46.5 76.5q28.5 30.5 64.5 46q36 15.5 72 15.5q34 0 66.5 -8q32.5 -8 57.5 -28q25 -20 40 -54.5q15 -34.5 15 -88.5l-290 0q-2 -15 -3.5 -31q-1.5 -16 -1.5 -34q0 -43 14 -72.5q14 -29.5 38 -48q24 -18.5 55 -26.5q31 -8 65 -8q30 0 64 10.5q34 10.5 57 21.5l8 -21zM244 426q-33 0 -64.5 -33q-31.5 -33 -46.5 -102l202 28q-2 16 -6 35q-4 19 -13.5 35q-9.5 16 -27 26.5t-44.5 10.5z" />
<glyph unicode="&#282;" horiz-adv-x="562" d="M465 319h-234v-284l281 42l-12 -77h-460v15l91 9v652l-91 9v15h459l-10 -78l-259 43v-319l235 64zM164 934h35l112 -120l112 120h35l-108 -162l-78 0z" />
<glyph unicode="&#283;" horiz-adv-x="451" d="M262 -15q-37 0 -76.5 11q-39.5 11 -71.5 37.5q-32 26.5 -53 69q-21 42.5 -21 105.5q0 60 18 106q18 46 46.5 76.5q28.5 30.5 64.5 46q36 15.5 72 15.5q34 0 66.5 -8q32.5 -8 57.5 -28q25 -20 40 -54.5q15 -34.5 15 -88.5l-290 0q-2 -15 -3.5 -31q-1.5 -16 -1.5 -34q0 -43 14 -72.5q14 -29.5 38 -48q24 -18.5 55 -26.5q31 -8 65 -8q30 0 64 10.5q34 10.5 57 21.5l8 -21zM244 426q-33 0 -64.5 -33q-31.5 -33 -46.5 -102l202 28q-2 16 -6 35q-4 19 -13.5 35q-9.5 16 -27 26.5q-17.5 10.5 -44.5 10.5zt0 0zM98 706h35l112 -120l112 120h35l-108 -162l-78 0z" />
<glyph unicode="&#290;" horiz-adv-x="693" d="M643 337v-294h-2q-18 -7 -46.5 -17q-28.5 -10 -60.5 -19q-32 -9 -64.5 -15.5q-32.5 -6.5 -57.5 -6.5q-87 0 -154.5 28q-67.5 28 -113.5 77q-46 49 -70 114q-24 65 -24 139q0 74 32 141.5q32 67.5 87 118.5q55 51 127 81.5q72 30.5 153 30.5q33 0 61.5 -3q28.5 -3 49.5 -6q25 -4 45 -8l-19 -75l-253 40q-91 -38 -129.5 -121q-38.5 -83 -38.5 -199q0 -72 21 -126.5q21 -54.5 58.5 -92q37.5 -37.5 90 -56.5q52.5 -19 116.5 -19q14 0 39.5 3q25.5 3 53.5 9l0 276zM414 -121q0 -24 -13.5 -50q-13.5 -26 -31 -49q-17.5 -23 -34 -40q-16.5 -17 -22.5 -22l-13 8l57 114q-2 -1 -4 -1h-6q-26 0 -42 16q-16 16 -16 42q0 25 15.5 44q15.5 19 41.5 19q29 0 48.5 -21t19.5 -60z" />
<glyph unicode="&#291;" horiz-adv-x="501" d="M25 -177q0 24 14 46q14 22 36.5 41q22.5 19 50.5 34.5q28 15.5 56 25.5q-32 7 -62.5 11.5q-30.5 4.5 -53.5 7.5l0 95l118 21q-49 15 -82 57.5q-33 42.5 -33 108.5q0 41 13.5 74.5q13.5 33.5 37.5 57q24 23.5 57 36.5q33 13 73 13q22 0 49.5 -6.5q27.5 -6.5 44.5 -16.5l137 51v-77h-107q24 -23 40.5 -52.5q16.5 -29.5 16.5 -79.5q0 -26 -8.5 -54q-8.5 -28 -28 -53q-19.5 -25 -50.5 -44q-31 -19 -75 -27l-156 -29v-4q92 -12 157 -32.5q65 -20.5 106.5 -47q41.5 -26.5 60.5 -57.5q19 -31 19 -64q0 -37 -20 -65.5q-20 -28.5 -52.5 -48.5q-32.5 -20 -73 -30.5q-40.5 -10.5 -81.5 -10.5q-43 0 -80.5 7q-37.5 7 -65 21.5q-27.5 14.5 -43 37q-15.5 22.5 -15.5 53.5zt0 0zM382 -163q0 24 -13 42.5q-13 18.5 -35 33.5q-22 15 -50 26.5q-28 11.5 -59 19.5q-24 -10 -46 -24q-22 -14 -39.5 -31.5q-17.5 -17.5 -27.5 -37.5q-10 -20 -10 -42q0 -51 36.5 -71q36.5 -20 102.5 -20q21 0 46 8q25 8 46 22q21 14 35 33q14 19 14 41zt0 0zM155 271q0 -26 6 -53q6 -27 17.5 -49q11.5 -22 29.5 -35.5q18 -13.5 42 -13.5q24 0 42 13.5q18 13.5 29.5 35.5q11.5 22 17.5 49q6 27 6 53q0 27 -6 54.5q-6 27.5 -17.5 50q-11.5 22.5 -29.5 37q-18 14.5 -42 14.5q-24 0 -42 -14.5q-18 -14.5 -29.5 -37q-11.5 -22.5 -17.5 -50q-6 -27.5 -6 -54.5zt0 0zM190 619q0 24 13.5 50q13.5 26 31 49q17.5 23 34 40q16.5 17 22.5 22l13 -8l-57 -114h4q2 0 3 0.5q1 0.5 3 0.5q26 0 42 -16q16 -16 16 -42q0 -25 -15.5 -44q-15.5 -19 -41.5 -19q-29 0 -48.5 21t-19.5 60z" />
<glyph unicode="&#298;" horiz-adv-x="375" d="M231 24l104 -9v-15h-295v15l91 9v652l-91 9v15h295v-15l-104 -9zM57 822v60h260l0 -60z" />
<glyph unicode="&#299;" horiz-adv-x="275" d="M33 14l71 9v329l-59 85h143v-414l80 -9v-14h-235zM8 559v60h260l0 -60z" />
<glyph unicode="&#302;" horiz-adv-x="375" d="M40 0v15l91 9v652l-91 9v15h295v-15l-104 -9v-652l104 -9v-15q-51 -33 -69.5 -63q-18.5 -30 -18.5 -51q0 -18 9.5 -31q9.5 -13 32.5 -13q6 0 22 2q16 2 24 4l0 -23l-80 -24q-22 0 -37 6.5q-15 6.5 -24.5 16q-9.5 9.5 -13.5 21.5q-4 12 -4 24q0 32 30 63q30 31 81 68z" />
<glyph unicode="&#303;" horiz-adv-x="275" d="M33 14l71 9v329l-59 85h143v-414l80 -9v-14q-51 -33 -69.5 -63q-18.5 -30 -18.5 -51q0 -18 9.5 -31q9.5 -13 32.5 -13q6 0 22 2q16 2 24 4l0 -23l-80 -24q-22 0 -37 6.5q-15 6.5 -24.5 16q-9.5 9.5 -13.5 21.5q-4 12 -4 24q0 32 30 63q30 31 81 68l-187 0zM141 538q-21 0 -37 15.5q-16 15.5 -16 37.5q0 23 16 39q16 16 37 16q23 0 39 -16q16 -16 16 -39q0 -22 -16 -37.5t-39 -15.5z" />
<glyph unicode="&#305;" horiz-adv-x="275" d="M33 14l71 9v329l-59 85h143v-414l80 -9v-14l-235 0z" />
<glyph unicode="&#310;" horiz-adv-x="693" d="M516 0l-196 324h-89v-300l98 -9v-15h-289v15l91 9v652l-91 9v15h277v-15l-86 -9v-311h88l197 313l-51 7v15h209v-15l-58 -6l-233 -300l247 -358l63 -6v-15zM434 -121q0 -24 -13.5 -50q-13.5 -26 -31 -49q-17.5 -23 -34 -40q-16.5 -17 -22.5 -22l-13 8l57 114q-2 -1 -4 -1h-6q-26 0 -42 16q-16 16 -16 42q0 25 15.5 44q15.5 19 41.5 19q29 0 48.5 -21t19.5 -60z" />
<glyph unicode="&#311;" horiz-adv-x="464" d="M170 185v-162l81 -9v-14h-236v14l71 9v632l-58 85h142v-519l179 216h89l-175 -166l197 -271h-108l-144 221zM299 -121q0 -24 -13.5 -50q-13.5 -26 -31 -49q-17.5 -23 -34 -40q-16.5 -17 -22.5 -22l-13 8l57 114q-2 -1 -4 -1h-6q-26 0 -42 16q-16 16 -16 42q0 25 15.5 44q15.5 19 41.5 19q29 0 48.5 -21t19.5 -60z" />
<glyph unicode="&#313;" horiz-adv-x="550" d="M532 0h-492v15l90 9v652l-90 9v15h281v-15l-91 -9v-641l314 62zM275 934h98l-161 -162l-35 0z" />
<glyph unicode="&#314;" horiz-adv-x="265" d="M250 14v-14h-235v14l71 9v631l-57 86h141v-717zM170 934h98l-161 -162l-35 0z" />
<glyph unicode="&#315;" horiz-adv-x="550" d="M532 0h-492v15l90 9v652l-90 9v15h281v-15l-91 -9v-641l314 62zM372 -121q0 -24 -13.5 -50q-13.5 -26 -31 -49q-17.5 -23 -34 -40q-16.5 -17 -22.5 -22l-13 8l57 114q-2 -1 -4 -1h-6q-26 0 -42 16q-16 16 -16 42q0 25 15.5 44q15.5 19 41.5 19q29 0 48.5 -21t19.5 -60z" />
<glyph unicode="&#316;" horiz-adv-x="265" d="M250 14v-14h-235v14l71 9v631l-57 86h141v-717zM200 -121q0 -24 -13.5 -50q-13.5 -26 -31 -49q-17.5 -23 -34 -40q-16.5 -17 -22.5 -22l-13 8l57 114q-2 -1 -4 -1h-6q-26 0 -42 16q-16 16 -16 42q0 25 15.5 44q15.5 19 41.5 19q29 0 48.5 -21t19.5 -60z" />
<glyph unicode="&#317;" horiz-adv-x="550" d="M532 0h-492v15l90 9v652l-90 9v15h281v-15l-91 -9v-641l314 62zM475 619q0 -24 -13.5 -50q-13.5 -26 -31 -49q-17.5 -23 -34 -40q-16.5 -17 -22.5 -22l-13 8l57 114q-2 -1 -4 -1h-6q-26 0 -42 16q-16 16 -16 42q0 25 15.5 44q15.5 19 41.5 19q29 0 48.5 -21t19.5 -60z" />
<glyph unicode="&#318;" horiz-adv-x="355" d="M250 14v-14h-235v14l71 9v631l-57 86h141v-717zM355 619q0 -24 -13.5 -50q-13.5 -26 -31 -49q-17.5 -23 -34 -40q-16.5 -17 -22.5 -22l-13 8l57 114q-2 -1 -4 -1h-6q-26 0 -42 16q-16 16 -16 42q0 25 15.5 44q15.5 19 41.5 19q29 0 48.5 -21t19.5 -60z" />
<glyph unicode="&#321;" horiz-adv-x="550" d="M230 356v-321l314 62l-12 -97h-492v15l90 9v273l-102 -60l-20 35l122 72v332l-90 9v15h281v-15l-91 -9v-273l124 73l20 -35z" />
<glyph unicode="&#322;" horiz-adv-x="265" d="M250 14v-14h-235v14l71 9v267l-90 -53l-20 35l110 64v318l-57 86h141v-354l92 54l20 -35l-112 -66l0 -316z" />
<glyph unicode="&#323;" horiz-adv-x="785" d="M674 -5l-29 -7l-482 569v-534l104 -9v-14h-247v14l91 9v653l-91 10v14h143l459 -529v505l-104 10v14h247v-14l-91 -10zM432 934h98l-161 -162l-35 0z" />
<glyph unicode="&#324;" horiz-adv-x="591" d="M332 447q33 0 64 -11q31 -11 55 -34q24 -23 39 -59.5q15 -36.5 15 -88.5v-231l79 -9v-14h-235v14l72 9v231q0 41 -11 69q-11 28 -29 44.5q-18 16.5 -40 23.5q-22 7 -44 7q-32 0 -56 -11.5q-24 -11.5 -53 -28.5l0 -335l80 -9v-14h-235v14l71 9v328l-58 86h142v-47zM335 706h98l-161 -162l-35 0z" />
<glyph unicode="&#325;" horiz-adv-x="785" d="M674 -5l-29 -7l-482 569v-534l104 -9v-14h-247v14l91 9v653l-91 10v14h143l459 -529v505l-104 10v14h247v-14l-91 -10zM460 -121q0 -24 -13.5 -50q-13.5 -26 -31 -49q-17.5 -23 -34 -40q-16.5 -17 -22.5 -22l-13 8l57 114q-2 -1 -4 -1h-6q-26 0 -42 16q-16 16 -16 42q0 25 15.5 44q15.5 19 41.5 19q29 0 48.5 -21t19.5 -60z" />
<glyph unicode="&#326;" horiz-adv-x="591" d="M332 447q33 0 64 -11q31 -11 55 -34q24 -23 39 -59.5q15 -36.5 15 -88.5v-231l79 -9v-14h-235v14l72 9v231q0 41 -11 69q-11 28 -29 44.5q-18 16.5 -40 23.5q-22 7 -44 7q-32 0 -56 -11.5q-24 -11.5 -53 -28.5l0 -335l80 -9v-14h-235v14l71 9v328l-58 86h142v-47zM353 -121q0 -24 -13.5 -50q-13.5 -26 -31 -49q-17.5 -23 -34 -40q-16.5 -17 -22.5 -22l-13 8l57 114q-2 -1 -4 -1h-6q-26 0 -42 16q-16 16 -16 42q0 25 15.5 44q15.5 19 41.5 19q29 0 48.5 -21t19.5 -60z" />
<glyph unicode="&#327;" horiz-adv-x="785" d="M674 -5l-29 -7l-482 569v-534l104 -9v-14h-247v14l91 9v653l-91 10v14h143l459 -529v505l-104 10v14h247v-14l-91 -10zM245 934h35l112 -120l112 120h35l-108 -162l-78 0z" />
<glyph unicode="&#328;" horiz-adv-x="591" d="M332 447q33 0 64 -11q31 -11 55 -34q24 -23 39 -59.5q15 -36.5 15 -88.5v-231l79 -9v-14h-235v14l72 9v231q0 41 -11 69q-11 28 -29 44.5q-18 16.5 -40 23.5q-22 7 -44 7q-32 0 -56 -11.5q-24 -11.5 -53 -28.5l0 -335l80 -9v-14h-235v14l71 9v328l-58 86h142v-47zM148 706h35l112 -120l112 120h35l-108 -162l-78 0z" />
<glyph unicode="&#332;" horiz-adv-x="774" d="M724 350q0 -89 -24 -157q-24 -68 -68 -114.5q-44 -46.5 -106 -70q-62 -23.5 -139 -23.5q-77 0 -139 28.5q-62 28.5 -106 77.5q-44 49 -68 115.5q-24 66.5 -24 143.5q0 89 24 157q24 68 68 114.5q44 46.5 106 70q62 23.5 139 23.5q77 0 139 -28.5q62 -28.5 106 -77.5q44 -49 68 -116q24 -67 24 -143zt0 0zM614 350q0 80 -16.5 142.5q-16.5 62.5 -46 105q-29.5 42.5 -71.5 65q-42 22.5 -93 22.5q-51 0 -93 -22.5q-42 -22.5 -72 -65q-30 -42.5 -46 -105q-16 -62.5 -16 -142.5q0 -80 16 -142.5q16 -62.5 46 -105q30 -42.5 72 -65q42 -22.5 93 -22.5q51 0 93 22.5q42 22.5 71.5 65q29.5 42.5 46 105q16.5 62.5 16.5 142.5zt0 0zM257 822v60h260l0 -60z" />
<glyph unicode="&#333;" horiz-adv-x="528" d="M394 219q0 50 -10.5 88.5q-10.5 38.5 -29 65q-18.5 26.5 -43 40q-24.5 13.5 -52.5 13.5q-57 0 -91 -53.5q-34 -53.5 -34 -153.5q0 -100 34 -153.5q34 -53.5 91 -53.5q28 0 52.5 14q24.5 14 43 40q18.5 26 29 64.5q10.5 38.5 10.5 88.5zt0 0zM488 219q0 -50 -18.5 -93q-18.5 -43 -49.5 -74.5q-31 -31.5 -73 -49q-42 -17.5 -88 -17.5q-47 0 -87 17.5q-40 17.5 -69 49q-29 31.5 -46 74.5q-17 43 -17 93q0 58 17 102q17 44 46 73.5q29 29.5 69 44q40 14.5 87 14.5q46 0 88 -14.5q42 -14.5 73 -44q31 -29.5 49.5 -73.5q18.5 -44 18.5 -102zt0 0zM134 559v60h260l0 -60z" />
<glyph unicode="&#336;" horiz-adv-x="774" d="M724 350q0 -89 -24 -157q-24 -68 -68 -114.5q-44 -46.5 -106 -70q-62 -23.5 -139 -23.5q-77 0 -139 28.5q-62 28.5 -106 77.5q-44 49 -68 115.5q-24 66.5 -24 143.5q0 89 24 157q24 68 68 114.5q44 46.5 106 70q62 23.5 139 23.5q77 0 139 -28.5q62 -28.5 106 -77.5q44 -49 68 -116q24 -67 24 -143zt0 0zM614 350q0 80 -16.5 142.5q-16.5 62.5 -46 105q-29.5 42.5 -71.5 65q-42 22.5 -93 22.5q-51 0 -93 -22.5q-42 -22.5 -72 -65q-30 -42.5 -46 -105q-16 -62.5 -16 -142.5q0 -80 16 -142.5q16 -62.5 46 -105q30 -42.5 72 -65q42 -22.5 93 -22.5q51 0 93 22.5q42 22.5 71.5 65q29.5 42.5 46 105q16.5 62.5 16.5 142.5zt0 0zM317 934h98l-161 -162h-35zM457 934h98l-161 -162l-35 0z" />
<glyph unicode="&#337;" horiz-adv-x="528" d="M394 219q0 50 -10.5 88.5q-10.5 38.5 -29 65q-18.5 26.5 -43 40q-24.5 13.5 -52.5 13.5q-57 0 -91 -53.5q-34 -53.5 -34 -153.5q0 -100 34 -153.5q34 -53.5 91 -53.5q28 0 52.5 14q24.5 14 43 40q18.5 26 29 64.5q10.5 38.5 10.5 88.5zt0 0zM488 219q0 -50 -18.5 -93q-18.5 -43 -49.5 -74.5q-31 -31.5 -73 -49q-42 -17.5 -88 -17.5q-47 0 -87 17.5q-40 17.5 -69 49q-29 31.5 -46 74.5q-17 43 -17 93q0 58 17 102q17 44 46 73.5q29 29.5 69 44q40 14.5 87 14.5q46 0 88 -14.5q42 -14.5 73 -44q31 -29.5 49.5 -73.5q18.5 -44 18.5 -102zt0 0zM234 706h98l-161 -162h-35zM374 706h98l-161 -162l-35 0z" />
<glyph unicode="&#338;" horiz-adv-x="1044" d="M947 319h-234v-284l281 42l-12 -77h-369v59q-86 -74 -226 -74q-77 0 -139 28.5q-62 28.5 -106 77.5q-44 49 -68 115.5q-24 66.5 -24 143.5q0 89 24 157q24 68 68 114.5q44 46.5 106 70q62 23.5 139 23.5q69 0 125.5 -23q56.5 -23 100.5 -64l0 72h368l-10 -78l-259 43v-319l235 64zM614 350q0 80 -16.5 142.5q-16.5 62.5 -46 105q-29.5 42.5 -71.5 65q-42 22.5 -93 22.5q-51 0 -93 -22.5q-42 -22.5 -72 -65q-30 -42.5 -46 -105q-16 -62.5 -16 -142.5q0 -80 16 -142.5q16 -62.5 46 -105q30 -42.5 72 -65q42 -22.5 93 -22.5q51 0 93 22.5q42 22.5 71.5 65q29.5 42.5 46 105t16.5 142.5z" />
<glyph unicode="&#339;" horiz-adv-x="812" d="M623 -15q-25 0 -51 5q-26 5 -50.5 15.5q-24.5 10.5 -46.5 27.5q-22 17 -38 41q-32 -42 -79 -65.5q-47 -23.5 -101 -23.5q-47 0 -87 17.5q-40 17.5 -69 49q-29 31.5 -46 74.5q-17 43 -17 93q0 58 17 102q17 44 46 73.5q29 29.5 69 44q40 14.5 87 14.5q57 0 106 -22q49 -22 81 -67q30 44 72 66q42 22 86 22q34 0 66.5 -8q32.5 -8 57.5 -28q25 -20 40 -54.5q15 -34.5 15 -88.5l-290 0q-2 -15 -3.5 -31q-1.5 -16 -1.5 -34q0 -43 14 -72.5q14 -29.5 38 -48q24 -18.5 55 -26.5q31 -8 65 -8q30 0 64 10.5q34 10.5 57 21.5l8 -21zM392 219q0 50 -10.5 88.5q-10.5 38.5 -29 65q-18.5 26.5 -43 40q-24.5 13.5 -52.5 13.5q-57 0 -91 -53.5q-34 -53.5 -34 -153.5q0 -100 34 -153.5q34 -53.5 91 -53.5q28 0 52.5 14q24.5 14 43 40q18.5 26 29 64.5q10.5 38.5 10.5 88.5zt0 0zM605 426q-33 0 -64.5 -33q-31.5 -33 -46.5 -102l202 28q-2 16 -6 35q-4 19 -13.5 35q-9.5 16 -27 26.5t-44.5 10.5z" />
<glyph unicode="&#340;" horiz-adv-x="685" d="M494 0l-206 311q-7 0 -17 0q-10 0 -40 1l0 -289l91 -9v-14h-282v14l91 9v653l-91 10v14h281q36 0 76.5 -11q40.5 -11 74.5 -34q34 -23 56.5 -60.5q22.5 -37.5 22.5 -89.5q0 -42 -14.5 -74q-14.5 -32 -39 -55q-24.5 -23 -57 -37q-32.5 -14 -68.5 -21l242 -297l59 -7v-14zM446 505q0 30 -10 57q-10 27 -30 48q-20 21 -50.5 33q-30.5 12 -72.5 12h-52v-305q5 -1 10 -1.5q5 -0.5 11 -0.5h22q37 0 68.5 12q31.5 12 54.5 33.5q23 21.5 36 50q13 28.5 13 61.5zt0 0zM342 934h98l-161 -162l-35 0z" />
<glyph unicode="&#341;" horiz-adv-x="374" d="M368 381q-83 -16 -131.5 -63.5q-48.5 -47.5 -48.5 -136.5v-158l90 -9v-14h-245v14l71 9v328l-57 86h141v-156q28 79 64.5 118.5q36.5 39.5 92.5 52.5zM217 706h98l-161 -162l-35 0z" />
<glyph unicode="&#342;" horiz-adv-x="685" d="M494 0l-206 311q-7 0 -17 0q-10 0 -40 1l0 -289l91 -9v-14h-282v14l91 9v653l-91 10v14h281q36 0 76.5 -11q40.5 -11 74.5 -34q34 -23 56.5 -60.5q22.5 -37.5 22.5 -89.5q0 -42 -14.5 -74q-14.5 -32 -39 -55q-24.5 -23 -57 -37q-32.5 -14 -68.5 -21l242 -297l59 -7v-14zM446 505q0 30 -10 57q-10 27 -30 48q-20 21 -50.5 33q-30.5 12 -72.5 12h-52v-305q5 -1 10 -1.5q5 -0.5 11 -0.5h22q37 0 68.5 12q31.5 12 54.5 33.5q23 21.5 36 50q13 28.5 13 61.5zt0 0zM420 -121q0 -24 -13.5 -50q-13.5 -26 -31 -49q-17.5 -23 -34 -40q-16.5 -17 -22.5 -22l-13 8l57 114q-2 -1 -4 -1h-6q-26 0 -42 16q-16 16 -16 42q0 25 15.5 44q15.5 19 41.5 19q29 0 48.5 -21t19.5 -60z" />
<glyph unicode="&#343;" horiz-adv-x="374" d="M368 381q-83 -16 -131.5 -63.5q-48.5 -47.5 -48.5 -136.5v-158l90 -9v-14h-245v14l71 9v328l-57 86h141v-156q28 79 64.5 118.5q36.5 39.5 92.5 52.5zM254 -121q0 -24 -13.5 -50q-13.5 -26 -31 -49q-17.5 -23 -34 -40q-16.5 -17 -22.5 -22l-13 8l57 114q-2 -1 -4 -1h-6q-26 0 -42 16q-16 16 -16 42q0 25 15.5 44q15.5 19 41.5 19q29 0 48.5 -21t19.5 -60z" />
<glyph unicode="&#344;" horiz-adv-x="685" d="M494 0l-206 311q-7 0 -17 0q-10 0 -40 1l0 -289l91 -9v-14h-282v14l91 9v653l-91 10v14h281q36 0 76.5 -11q40.5 -11 74.5 -34q34 -23 56.5 -60.5q22.5 -37.5 22.5 -89.5q0 -42 -14.5 -74q-14.5 -32 -39 -55q-24.5 -23 -57 -37q-32.5 -14 -68.5 -21l242 -297l59 -7v-14zM446 505q0 30 -10 57q-10 27 -30 48q-20 21 -50.5 33q-30.5 12 -72.5 12h-52v-305q5 -1 10 -1.5q5 -0.5 11 -0.5h22q37 0 68.5 12q31.5 12 54.5 33.5q23 21.5 36 50q13 28.5 13 61.5zt0 0zM165 934h35l112 -120l112 120h35l-108 -162l-78 0z" />
<glyph unicode="&#345;" horiz-adv-x="374" d="M368 381q-83 -16 -131.5 -63.5q-48.5 -47.5 -48.5 -136.5v-158l90 -9v-14h-245v14l71 9v328l-57 86h141v-156q28 79 64.5 118.5q36.5 39.5 92.5 52.5zM50 706h35l112 -120l112 120h35l-108 -162l-78 0z" />
<glyph unicode="&#346;" horiz-adv-x="530" d="M295 411q36 -14 71 -32.5q35 -18.5 62.5 -44q27.5 -25.5 44.5 -59q17 -33.5 17 -77.5q0 -39 -15.5 -77q-15.5 -38 -46.5 -68q-31 -30 -77 -49q-46 -19 -107 -19q-30 0 -59.5 10q-29.5 10 -56 23.5q-26.5 13.5 -49.5 28q-23 14.5 -39 24.5l13 27q48 -20 95.5 -34.5q47.5 -14.5 98.5 -14.5q31 0 58 8.5q27 8.5 47 23.5q20 15 32 36q12 21 12 47q0 31 -10.5 54.5q-10.5 23.5 -29 41.5q-18.5 18 -43.5 31.5q-25 13.5 -53 25.5q-40 17 -73.5 35.5q-33.5 18.5 -58 41.5q-24.5 23 -38 52.5q-13.5 29.5 -13.5 69.5q0 40 17 76q17 36 46.5 63.5q29.5 27.5 70 43.5q40.5 16 88.5 16q32 0 61 -2.5q29 -2.5 50 -5.5q25 -4 45 -8l-19 -76l-237 38q-17 -14 -33.5 -39.5q-16.5 -25.5 -16.5 -54.5q0 -31 11.5 -54.5q11.5 -23.5 31 -41.5q19.5 -18 46 -32.5q26.5 -14.5 57.5 -27.5zt0 0zM305 934h98l-161 -162l-35 0z" />
<glyph unicode="&#347;" horiz-adv-x="413" d="M367 136q0 -39 -15 -67q-15 -28 -40 -47q-25 -19 -56 -28q-31 -9 -63 -9q-19 0 -40 7.5q-21 7.5 -42.5 19q-21.5 11.5 -42 25.5q-20.5 14 -38.5 27l8 21q12 -4 32 -10.5q20 -6.5 41.5 -12.5q21.5 -6 42.5 -10.5q21 -4.5 36 -4.5q104 0 104 71q0 28 -18 43q-18 15 -44.5 24.5q-26.5 9.5 -58 17.5q-31.5 8 -58 22q-26.5 14 -44.5 37.5q-18 23.5 -18 64.5q0 28 14 51.5q14 23.5 36.5 39.5q22.5 16 51 25q28.5 9 57.5 9q42 0 75 -4q33 -4 71 -15l-16 -55l-182 45q-8 -4 -17 -10.5q-9 -6.5 -16.5 -14.5q-7.5 -8 -12.5 -18q-5 -10 -5 -20q0 -29 19 -45q19 -16 48 -27q29 -11 62 -20.5q33 -9.5 62 -24.5q29 -15 48 -40q19 -25 19 -67zt0 0zM246 706h98l-161 -162l-35 0z" />
</font>
</defs>
</svg>
