<svg xmlns="http://www.w3.org/2000/svg" viewBox="0 0 90 49"><defs><style>.cls-1{fill:#ffe66c;}.cls-2{fill:#ffd508;}.cls-3{fill:#e5b900;}</style></defs><title>e2_3-hover</title><g id="Слой_2" data-name="Слой 2"><g id="Слой_1-2" data-name="Слой 1"><path class="cls-1" d="M90.29,24.29c-.9,13.39-19.09,24.29-42.64,24.29S0,38.44,0,25,24.09,0,47.64,0,91.49,6.36,90.29,24.29Z"/><path class="cls-2" d="M68.89,20.85c-.47,5.57-10,10.1-22.42,10.1s-25.05-4.22-25.05-9.79,12.67-10.4,25.05-10.4S69.52,13.4,68.89,20.85Z"/><path class="cls-3" d="M21.45,20.65c-.19-1.17,4.18-10.28,23.72-10.43,22.11-.18,23.45,7.9,23.75,9.17-1.2-1.56-9.67-6.53-24-6.3C29.46,13.32,23.27,18.91,21.45,20.65Z"/><path class="cls-3" d="M90.19,24.55c-.69,10.6-15.18,24.88-44.7,24C15.07,47.68,0,34.15,0,25c2.2,8.69,22,17.85,45.88,18.15C67.41,43.44,84.78,38.56,90.19,24.55Z"/><circle class="cls-1" cx="45.18" cy="17.62" r="12.84"/><circle class="cls-2" cx="44.87" cy="17.32" r="11.91"/><circle class="cls-1" cx="41.11" cy="15.7" r="5.28"/></g></g></svg>