<svg xmlns="http://www.w3.org/2000/svg" viewBox="0 0 90 49"><defs><style>.cls-1{fill:#6b7dbf;}.cls-2{fill:#485ca3;}.cls-3{fill:#4d5ea4;}.cls-4{fill:#ccb3d6;}.cls-5{fill:#a07cb5;}.cls-6{fill:#b68abd;}</style></defs><title>e3</title><g id="Слой_2" data-name="Слой 2"><g id="Слой_1-2" data-name="Слой 1"><path class="cls-1" d="M90.48,24.34c-.9,13.42-19.13,24.34-42.73,24.34S0,38.52,0,25.08,24.14,0,47.74,0,91.68,6.37,90.48,24.34Z"/><path class="cls-2" d="M69,20.9C68.56,26.47,59,31,46.57,31s-25.1-4.22-25.1-9.81,12.69-10.42,25.1-10.42S69.67,13.43,69,20.9Z"/><path class="cls-3" d="M21.5,20.7c-.19-1.17,4.19-10.3,23.77-10.46,22.15-.18,23.5,7.92,23.8,9.19-1.2-1.56-9.7-6.54-24.08-6.32C29.52,13.35,23.32,19,21.5,20.7Z"/><path class="cls-3" d="M90.38,24.6C89.7,35.22,75.17,49.53,45.59,48.67,15.1,47.78,0,34.22,0,25.08,2.2,33.79,22.09,43,46,43.27,67.56,43.53,85,38.65,90.38,24.6Z"/><circle class="cls-4" cx="46.22" cy="17.66" r="12.86"/><circle class="cls-5" cx="45.92" cy="17.36" r="11.94"/><circle class="cls-6" cx="42.15" cy="15.73" r="5.29"/></g></g></svg>