<svg xmlns="http://www.w3.org/2000/svg" viewBox="0 0 81 82"><defs><style>.cls-1{fill:#efefef;}.cls-2{fill:#a0bbc7;}</style></defs><title>l1</title><g id="Слой_2" data-name="Слой 2"><g id="Слой_1-2" data-name="Слой 1"><path class="cls-1" d="M59.53,4.71C85.63,19.21,83.7,43,75,60.18c-6.7,13.3-24.19,29.55-50.62,15.92C-1.5,62.75-4.28,40.78,7.25,21,15,7.87,36.49-8.1,59.53,4.71Z"/><path class="cls-2" d="M31,66.32c-1.35.88-5.13,3.11-3.77,5.16.79,1.19,2.29.35,3.33.07s2.17-.53,3.26-.74c.53-.1.27-.91-.26-.81s-1.32.26-2,.42-1.09.26-1.63.41-1.16.52-1.63.39c-1.68-.47.9-2.56,1.42-3s1.12-.84,1.71-1.22a.42.42,0,0,0-.46-.71Z"/><path class="cls-2" d="M37.07,71.51c-.45.74-2.77,4.59-.76,4.75,1,.08,2.11-1,2.8-1.64s1.47-1.32,2.16-2c.38-.39-.25-1-.62-.57a14.89,14.89,0,0,1-3.84,3.25c-.37.18-.5.28-.42-.18a5.82,5.82,0,0,1,.48-1.37,17.73,17.73,0,0,1,1-1.82c.28-.47-.47-.85-.75-.39Z"/><path class="cls-2" d="M64.47,17.62c.09-.38.26-1.09.61-1.31s.76.4.93.74a14.28,14.28,0,0,1,.91,2.26.42.42,0,0,0,.81-.26A15.34,15.34,0,0,0,67,17c-.26-.55-.55-1.38-1.13-1.69-1.19-.63-2,1.23-2.19,2.09a.42.42,0,0,0,.83.17Z"/><path class="cls-2" d="M21.85,9.51a3.9,3.9,0,0,1-.26-1.86c0-.41.19-1.26.59-1.43s1.29.25,1.69.38a18.22,18.22,0,0,1,2,.78c.49.22.88-.53.39-.75a19.62,19.62,0,0,0-2.83-1c-.59-.16-1.39-.51-1.91,0-1,1-.93,3-.47,4.2.19.51,1,.25.81-.26Z"/><path class="cls-2" d="M33.21,4.25c-.1-1,.07-3,1.41-2.77a10,10,0,0,1,3,1.26A.42.42,0,0,0,38,2,16.84,16.84,0,0,0,35.62.91c-.58-.2-1.35-.57-2-.26-1.16.59-1.41,2.52-1.3,3.65.05.54.9.5.85,0Z"/><path class="cls-2" d="M4.71,49.77c-1,.52-2.91,2-2,3.25S6,54.59,7.41,54.5a.42.42,0,0,0,0-.85,6.17,6.17,0,0,1-3.13-.57c-.41-.2-.42-.2-.6-.69s-.13-.56.22-.94a4.85,4.85,0,0,1,1.3-1c.48-.26,0-1-.46-.71Z"/><path class="cls-2" d="M11,63.24c-.55.48-1.59,1.07-1.74,1.84s.5,1,1.06,1.22a10.15,10.15,0,0,0,5.81.09c.53-.14.27-.95-.26-.81a9.47,9.47,0,0,1-4,.21c-.41-.07-1.75-.21-1.6-.75.1-.37,1.13-1,1.4-1.24s-.22-.93-.62-.57Z"/><path class="cls-2" d="M19.48,70.95c-.6.43-1.17.89-1.73,1.37a.43.43,0,0,0,0,.6c1.76,2,4.42.57,6.61.62.54,0,.5-.83,0-.85-1.92,0-4.47,1.3-6-.4l0,.6c.5-.43,1-.84,1.56-1.23s0-1-.46-.71Z"/><path class="cls-2" d="M39.73,78.79c-.38.6-1.13,1.94-.45,2.59.51.49,1.42.18,2,0a16.41,16.41,0,0,0,5.21-3.81c.4-.37-.23-.94-.62-.57a21.57,21.57,0,0,1-3.36,2.84,8.52,8.52,0,0,1-1.69.81c-.27.09-.68.3-.84,0s.32-1.16.53-1.47-.46-.84-.75-.39Z"/><path class="cls-2" d="M46,3.53a7.9,7.9,0,0,1-.74-1.42c-.1-.29-.28-.66-.11-.95q0-.39.27-.15l.52.23A12.58,12.58,0,0,1,49,3.32a.42.42,0,0,0,.57-.62A13.72,13.72,0,0,0,46.91.8c-.53-.29-1.5-1-2.17-.68-1.44.59,0,3.1.51,3.87.28.47,1,0,.71-.46Z"/><path class="cls-2" d="M61.43,9.35a7.56,7.56,0,0,1-.1-1.26c0-.21-.06-.63.06-.78s0-.18.2-.06a.55.55,0,0,1,.44.37,16.6,16.6,0,0,1,1.27,2.91c.21.5,1,.24.81-.26-.37-.88-.7-1.78-1.12-2.64a2,2,0,0,0-1.49-1.33c-1.4-.13-1,2.29-.93,3.1.08.53.93.49.85,0Z"/><path class="cls-2" d="M72.36,18.69c.19-.44.54-1.39,1-1.58s.72.68.87,1a6.66,6.66,0,0,1,.7,3.1c0,.55.84.5.85,0a7.15,7.15,0,0,0-1.43-4.47c-1.17-1.46-2.3.56-2.76,1.62-.22.5.54.89.75.39Z"/><path class="cls-2" d="M13.2,17.19a16.34,16.34,0,0,1,1.71-4.56c.17-.31.36-.62.56-.92.37-.55.3-.34.48,0a22,22,0,0,1,.75,2.18.42.42,0,0,0,.81-.26c-.29-.83-1-4.37-2.41-2.89a9.72,9.72,0,0,0-1.58,2.74A17.67,17.67,0,0,0,12.37,17a.42.42,0,0,0,.83.17Z"/><path class="cls-2" d="M3.3,40.25C3,39.46.84,37.18.12,38.71c-.32.68.09,1.78.29,2.45A13,13,0,0,0,1.63,44c.27.47,1,0,.71-.46a12.07,12.07,0,0,1-1.24-3,5.19,5.19,0,0,1-.18-.82.43.43,0,0,1,0-.42q0-.28.22-.06c.48.07,1.16.91,1.34,1.31s1,.24.81-.26Z"/><path class="cls-2" d="M59.7,22.79c-.56-1.71-1.93-4.71-4.11-4.61-2,.09-1.81,3.15-1.59,4.51.08.53.93.49.85,0-.14-.92-.49-3.82,1-3.6s2.59,2.66,3,4a.42.42,0,0,0,.81-.26Z"/><path class="cls-2" d="M26.72,16.31C26.38,15,25.66,12.22,24,12c-2.19-.34-2.79,3.57-2.85,5,0,.54.82.49.85,0,0-.87.75-5,2.18-4,1,.69,1.42,2.5,1.71,3.61.14.53.94.27.81-.26Z"/><path class="cls-2" d="M34.09,24.6c.22-1.62-.42-3.45-2.14-3.88a5.78,5.78,0,0,0-5.7,2c-.31.45.45.83.75.39-.1.15.18-.2.23-.25a3.91,3.91,0,0,1,.7-.55,5.4,5.4,0,0,1,3.62-.76,2.4,2.4,0,0,1,1.71,2.92c-.07.54.75.71.83.17Z"/><path class="cls-2" d="M47.38,21c-.69-1.73-1.95-3.9-3.85-4.46-2.13-.62-4.52,1.22-5.31,3.12-.21.5.54.89.75.39.68-1.63,2.81-3.39,4.63-2.58,1.42.63,2.41,2.39,3,3.79.2.5,1,.25.81-.26Z"/><path class="cls-2" d="M20,30.2a14.79,14.79,0,0,0-3.17-2.32c-.93-.6-2.7-1.92-3.9-1.45-2.41.94,2.3,5.31,3.11,6,.41.37,1-.26.57-.62a23.46,23.46,0,0,1-2.08-2.13c-.27-.31-2.13-2.56-1-2.5S16.09,28.41,17,29a12.11,12.11,0,0,1,2.35,1.77c.36.41.93-.22.57-.62Z"/><path class="cls-2" d="M12.65,52.51a3,3,0,0,0-.6,3.62c1.1,1.57,3.67,2,5.46,1.88a.42.42,0,0,0,0-.85A6.3,6.3,0,0,1,13,55.91c-.87-.84-.42-2,.29-2.83a.42.42,0,0,0-.62-.57Z"/><path class="cls-2" d="M25.74,55.52c-.84.45-1.67.88-2.47,1.4-.63.4-1.94,1.12-2,2,0,1.13,2,1.1,2.7,1.14a23.74,23.74,0,0,0,3.86-.12c.54-.06.5-.9,0-.85-.85.09-1.7.14-2.55.15A13.24,13.24,0,0,1,23,59.12c-.2,0-.73-.05-.86-.2s-.07.11.06-.11a6.43,6.43,0,0,1,2.22-1.63c.57-.33,1.15-.64,1.74-.95s0-1-.46-.71Z"/><path class="cls-2" d="M10.21,38.18c-.95,0-1.89-.06-2.84,0-.75,0-2.3,0-2.73.81C4.12,40,6,41,6.59,41.36a24.12,24.12,0,0,0,3.28,1.71c.5.22.89-.54.39-.75C9.48,42,8.72,41.6,8,41.19A13.76,13.76,0,0,1,6.15,40a3,3,0,0,1-.65-.59c-.12-.17-.18,0,0-.11A5.85,5.85,0,0,1,8.19,39c.69,0,1.37,0,2.06,0s.5-.83,0-.85Z"/><path class="cls-2" d="M31,66.32c-1.35.88-5.13,3.11-3.77,5.16.79,1.19,2.29.35,3.33.07s2.17-.53,3.26-.74c.53-.1.27-.91-.26-.81s-1.32.26-2,.42-1.09.26-1.63.41-1.16.52-1.63.39c-1.68-.47.9-2.56,1.42-3s1.12-.84,1.71-1.22a.42.42,0,0,0-.46-.71Z"/><path class="cls-2" d="M37.07,71.51c-.45.74-2.77,4.59-.76,4.75,1,.08,2.11-1,2.8-1.64s1.47-1.32,2.16-2c.38-.39-.25-1-.62-.57a14.89,14.89,0,0,1-3.84,3.25c-.37.18-.5.28-.42-.18a5.82,5.82,0,0,1,.48-1.37,17.73,17.73,0,0,1,1-1.82c.28-.47-.47-.85-.75-.39Z"/><path class="cls-2" d="M45.78,65.79c-.52-.49,0-.38-.14-.21a1.22,1.22,0,0,0-.08.26c-.07.26-.16.51-.24.77a15.56,15.56,0,0,0-.49,1.87c-.14.77-.26,2.14.85,2.21s2.05-1.26,2.63-2A22.94,22.94,0,0,0,50,66.16c.27-.47-.48-.86-.75-.39a22.13,22.13,0,0,1-1.28,2c-.25.34-1.71,2.46-2.3,2.11s.27-2.36.39-2.75.72-1.52.3-1.93-1,.25-.57.62Z"/><path class="cls-2" d="M39.32,58.61a19.56,19.56,0,0,0-2.22,1.48c-.69.53-1.88,1.39-1.84,2.39.09,1.81,3.61,1.12,4.68.91.53-.1.27-.91-.26-.81a18.1,18.1,0,0,1-1.81.21c-.53,0-2.09.15-1.6-.72.68-1.19,2.35-2.07,3.51-2.74.47-.27,0-1-.46-.71Z"/><path class="cls-2" d="M19.12,40c-1.49,0-4.4.6-4.26,2.62.12,1.64,2.54,2.25,3.84,2.48.54.09.71-.74.17-.83-.9-.16-2.84-.53-3.14-1.56-.43-1.46,2.51-1.84,3.43-1.87a.42.42,0,0,0,0-.85Z"/><path class="cls-2" d="M54.27,12a10.16,10.16,0,0,1,1-2.33c.1-.16.61-1.23.95-.9.18.17.11.88.12,1.09l.29,4.64a.42.42,0,0,0,.85,0l-.25-3.92c0-.75.1-2.08-.6-2.62-1.49-1.14-3,3-3.23,3.93-.16.52.67.69.83.17Z"/><path class="cls-2" d="M37.35,11.49c-.34-1.75-.66-3.61.08-5.31l-.57.18c2.27,1,3.21,3.45,4.69,5.29.34.42,1.06,0,.71-.46-1.59-2-2.59-4.49-5-5.59a.43.43,0,0,0-.57.18c-.84,1.93-.52,4-.13,6,.1.53.91.27.81-.26Z"/><path class="cls-2" d="M47,33A13,13,0,0,1,47.72,31a3.67,3.67,0,0,1,.62-1c.36-.33.51-.37.8,0a6.26,6.26,0,0,1,.72,1.84,13.32,13.32,0,0,1,.43,1.93c.08.53.93.49.85,0a14.25,14.25,0,0,0-.75-3c-.23-.62-.54-1.8-1.27-2s-1.26.49-1.62,1a10.18,10.18,0,0,0-1.31,3.16c-.15.52.68.69.83.17Z"/><path class="cls-2" d="M21.66,65.56l.47-.21-.44-.69-1.33,1.26a6.21,6.21,0,0,0-1.22,1.21.87.87,0,0,0,.4,1.2c1.64,1.11,4.25.47,6.07.31.54,0,.5-.89,0-.85A16.93,16.93,0,0,1,21,68c-.19,0-.94-.16-1-.35s.23-.43.44-.63l1.86-1.77c.34-.32-.07-.77-.44-.69A1.79,1.79,0,0,0,21,65c-.42.35.21.92.62.57Z"/><path class="cls-2" d="M64.47,17.62c.09-.38.26-1.09.61-1.31s.76.4.93.74a14.28,14.28,0,0,1,.91,2.26.42.42,0,0,0,.81-.26A15.34,15.34,0,0,0,67,17c-.26-.55-.55-1.38-1.13-1.69-1.19-.63-2,1.23-2.19,2.09a.42.42,0,0,0,.83.17Z"/><path class="cls-2" d="M23.26,46c-.39.72-.77,1.44-1.11,2.18-.21.46-.42.93-.08,1.39.69.93,2.3,1,3.32.77.53-.12.27-.92-.26-.81s-2.48.14-2.33-.72a4.71,4.71,0,0,1,.52-1.11c.22-.45.45-.89.69-1.32s-.49-.86-.75-.39Z"/><path class="cls-2" d="M28.29,51A4.15,4.15,0,0,0,29,54.54c1.21,1.17,1.79-.87,2.48-2.2L30.8,52l-.85,1.66a1.92,1.92,0,0,1-.26.45c-.2.11-.3-.26-.36-.4a4.59,4.59,0,0,1-.2-2.52.43.43,0,0,0-.83-.18Z"/><path class="cls-2" d="M27.29,38a4.46,4.46,0,0,1-.41-2.71c0-.2,0-.42.21-.54s.35,0,.56.14a6.82,6.82,0,0,1,1.29,1c.38.39,1-.24.57-.62-.65-.66-2.63-2.51-3.27-1a5.13,5.13,0,0,0,.33,4.09c.24.49,1,0,.71-.46Z"/><path class="cls-2" d="M35,33.79l.62-1.65c.1-.28.2-.55.31-.83s.19-.66.67-.69.59.24.74.69c.07.22.11.44.18.66A2.81,2.81,0,0,0,38.06,33c.35.42.92-.21.57-.62-.71-.84-.58-3.15-2.3-2.8a1.7,1.7,0,0,0-1.11,1.11c-.39.87-.68,1.79-1,2.68-.19.5.56.9.75.39Z"/><path class="cls-2" d="M35.15,50.3c-.37,1.27-1.48,3-.26,4.13s2.81,0,3.75-.9c.39-.38-.24-1-.62-.57-.64.63-2.49,2-2.8.29-.17-.95.51-1.9.77-2.77.15-.52-.68-.69-.83-.17Z"/><path class="cls-2" d="M45.37,57.18c.33,1,.62,2,1,2.94.2.53.63,1.05,1.26.78a3.27,3.27,0,0,0,1.25-1.73,5.88,5.88,0,0,0,.42-2.43.42.42,0,0,0-.85,0,5,5,0,0,1-.19,1.6c-.08.28-.47,1.46-.81,1.56s-.59-1-.68-1.27l-.59-1.76a.42.42,0,0,0-.81.26Z"/><path class="cls-2" d="M56.67,74.16a2.23,2.23,0,0,0,3.76-.24c.84-1.6-.3-4-1.06-5.44-.26-.48-1,0-.71.46a10.86,10.86,0,0,1,1.05,2.83,2.69,2.69,0,0,1,0,1.76,1.38,1.38,0,0,1-2.29.17c-.35-.41-1.06,0-.71.46Z"/><path class="cls-2" d="M67.65,23.87a18.72,18.72,0,0,1,1.88.37,5.56,5.56,0,0,1,2,.66c1.25,1.16-1.18,2.3-2,2.65-.5.21-.25,1,.26.81,1.18-.49,3.28-1.51,3-3.11-.11-.79-.83-1.1-1.5-1.34A17.88,17.88,0,0,0,67.83,23c-.54-.08-.71.75-.17.83Z"/><path class="cls-2" d="M69,34.66a2.37,2.37,0,0,1,1.6-.46,2.28,2.28,0,0,1,.93.07c.37.24.22.72,0,1-.67,1-1.35,2-2,3-.31.45.45.83.75.39.67-1,1.36-2,2-3,.35-.53.68-1.16.21-1.73-.89-1.08-3.24-.6-4.16.18-.41.36.22.92.62.57Z"/><path class="cls-2" d="M58.67,30.61,60.09,29c.21-.24.41-.51.64-.73a.41.41,0,0,1,.71-.12q.59,0,.48.61a18.91,18.91,0,0,1,.14,3.88c0,.54.81.49.85,0a19.47,19.47,0,0,0-.08-3.39c-.08-.67-.1-1.66-.76-2.05a1.47,1.47,0,0,0-1.69.31A20.27,20.27,0,0,0,58,30c-.36.41.27,1,.62.57Z"/><path class="cls-2" d="M46.43,7.73c.19-.49.4-1,.64-1.44s.64-1.62,1.17-1a4,4,0,0,1,.38,1.59l.31,1.75c.09.53.94.49.85,0-.17-1-.32-1.93-.51-2.9a1.74,1.74,0,0,0-1-1.45,1.11,1.11,0,0,0-1.35.5,12.38,12.38,0,0,0-1.26,2.57c-.2.5.55.89.75.39Z"/><path class="cls-2" d="M42.48,40.17c0-.83-.23-4.13,1.09-4,.55,0,1.33.8,1.7,1.17A6.2,6.2,0,0,1,46.46,39c.24.49,1,0,.71-.46a6.71,6.71,0,0,0-2-2.48c-.58-.43-1.48-1.07-2.26-.84s-.86,1-1,1.61a17.81,17.81,0,0,0-.26,3.37c0,.55.85.5.85,0Z"/><path class="cls-2" d="M35.52,40.71c-.89.94-3.08,3.36-2,4.76a2.41,2.41,0,0,0,1.86.71,37.33,37.33,0,0,0,3.74-.24.42.42,0,0,0,0-.85l-2.16.15a6.75,6.75,0,0,1-2.1,0c-1.82-.47.66-3.31,1.31-4,.38-.39-.25-1-.62-.57Z"/><path class="cls-2" d="M43.74,48.29c-1,1.17-.48,4,1.05,4.53a1.58,1.58,0,0,0,1.86-.64,16.52,16.52,0,0,0,1.8-3.23c.23-.49-.53-.88-.75-.39s-.52,1.11-.82,1.64a6.49,6.49,0,0,1-1,1.6c-1.36,1.24-2.24-2.11-1.51-2.94.36-.41-.26-1-.62-.57Z"/><path class="cls-2" d="M64.19,65.42c.89.85,3.86,2.7,4.66.78.36-.86-.13-2.17-.46-3a8.52,8.52,0,0,0-1.73-2.62c-.38-.4-.95.23-.57.62A7.36,7.36,0,0,1,68,64.85c.19.92-.06,1.49-1.11,1.21a4.84,4.84,0,0,1-2.12-1.25c-.39-.38-1,.25-.57.62Z"/><path class="cls-2" d="M76.27,42.69a4.17,4.17,0,0,1,1.8.52c.82.62-.06,1.31-.53,1.77a11,11,0,0,1-3.13,2.13c-.49.22-.24,1,.26.81a10.14,10.14,0,0,0,4.42-3.45c1.06-1.75-1.34-2.43-2.65-2.62-.54-.08-.71.75-.17.83Z"/><path class="cls-2" d="M66.8,51.59c.8,0,1.94,0,2.07,1a2.16,2.16,0,0,1-.77,1.71,24.49,24.49,0,0,1-3,2.29c-.44.32,0,1,.46.71,1.42-1,3.82-2.21,4.16-4.13s-1.38-2.5-2.94-2.47c-.55,0-.5.85,0,.85Z"/><path class="cls-2" d="M60.79,42.73c.87-.42,3.46-1.08,3.53.47.05,1.12-.82,2.32-1.39,3.22-.29.46.46.84.75.39A10.68,10.68,0,0,0,65,44.28c.2-.64.42-1.67-.05-2.25a2.71,2.71,0,0,0-2-.62,5.55,5.55,0,0,0-2.61.6c-.49.24,0,.95.46.71Z"/><path class="cls-2" d="M53.38,63.22a12.32,12.32,0,0,0,2.2,2.22c.46.35,1.06.8,1.66.51s1-1.4,1.29-2a8.91,8.91,0,0,0,.55-2.8c0-.54-.82-.49-.85,0A8,8,0,0,1,57.94,63a4.47,4.47,0,0,1-.73,1.71.69.69,0,0,1-1.06.09c-.22-.17-.44-.35-.65-.54a11.54,11.54,0,0,1-1.41-1.52c-.33-.43-1,0-.71.46Z"/><path class="cls-2" d="M58.59,51.82c.94.58,2.14,2,1.76,3.21-.2.63-.69.56-1.28.58a4.54,4.54,0,0,0-1.17.16.42.42,0,0,0,.26.81c1.18-.36,3,.2,3.1-1.59A4.54,4.54,0,0,0,59,51.07c-.46-.29-.85.47-.39.75Z"/><path class="cls-2" d="M52.31,53.42c.42,1.15-.52,2.54.36,3.57,1.15,1.35,2.82,0,3.64-.94.35-.42-.27-1-.62-.57s-.93,1.15-1.64,1.21-1-.51-.93-1.12a5.83,5.83,0,0,0,0-2.41c-.19-.51-1-.25-.81.26Z"/><path class="cls-2" d="M50.42,45.46A5.8,5.8,0,0,1,49.3,43.6a3.77,3.77,0,0,1-.35-2c.37-1,1.69,0,2.21.28a20.81,20.81,0,0,1,2.31,1.45c.44.31,1-.31.57-.62a21.89,21.89,0,0,0-3.45-2.06c-.72-.34-1.73-.87-2.28,0a3.63,3.63,0,0,0,0,2.6,6.76,6.76,0,0,0,1.53,2.75c.36.41.93-.22.57-.62Z"/><path class="cls-2" d="M56,39.17a5.58,5.58,0,0,1,1.09-1.09,5.32,5.32,0,0,1,.6-.38,4.25,4.25,0,0,1,.55-.25q-.05-.15,0,.06a3.79,3.79,0,0,1-.06,1.6,7.5,7.5,0,0,1-.46,1.66c-.2.5.55.89.75.39A8.43,8.43,0,0,0,59,38.67c0-.52.2-1.51-.24-1.91s-1.13,0-1.58.23a6.07,6.07,0,0,0-1.86,1.61c-.33.43.29,1,.62.57Z"/><path class="cls-2" d="M28.66,9.08a6.75,6.75,0,0,1,.91-2.81L29,6.45a3.29,3.29,0,0,1,1.83,1.88c.19.51,1,.25.81-.26a4.14,4.14,0,0,0-2.25-2.37.43.43,0,0,0-.57.18,7.33,7.33,0,0,0-1,3c-.05.54.78.72.83.17Z"/><path class="cls-2" d="M24.26,28.71l-.1-1.33a3.29,3.29,0,0,1-.06-.8c.08-.23,0-.18.32-.08.82.3,1.62.67,2.43,1,.5.21.89-.55.39-.75l-2-.81a2.39,2.39,0,0,0-1.43-.35.85.85,0,0,0-.59.85,20.21,20.21,0,0,0,.17,2.32.42.42,0,0,0,.85,0Z"/><path class="cls-2" d="M7.78,28.42c-1-.6-3.09-1.79-3.41.08-.25,1.43.78,3,1.78,3.94a.42.42,0,0,0,.57-.62,4.74,4.74,0,0,1-1.45-2.4c-.16-.67-.12-1.28.79-.92a8.47,8.47,0,0,1,1.33.68c.46.29.85-.47.39-.75Z"/><path class="cls-2" d="M12.94,22.71a2.34,2.34,0,0,1-.57-.85c-.15-.57.39-.88.86-1a7.61,7.61,0,0,1,2.24-.15c.54,0,.49-.82,0-.85-1.11,0-2.74-.11-3.56.81s-.14,1.93.51,2.67c.36.41.93-.22.57-.62Z"/></g></g></svg>