<svg xmlns="http://www.w3.org/2000/svg" viewBox="0 0 82 81"><defs><style>.cls-1{fill:#efefef;}.cls-2{fill:#a0bbc7;}</style></defs><title>l2</title><g id="Слой_2" data-name="Слой 2"><g id="Слой_1-2" data-name="Слой 1"><path class="cls-1" d="M81.12,49.74C73.65,79.32,49.69,83.65,30.42,79.6,15.53,76.48-5.1,63.48,1.41,33.81,7.8,4.74,28.75-3.78,51.27,2.42c15,4.14,36.44,21.21,29.84,47.32"/><path class="cls-2" d="M12.8,37.74c-1.22-1.1-4.42-4.25-6.08-2.37-1,1.09.26,2.35.81,3.3s1.09,2,1.58,3c.24.5,1,0,.73-.47S9.23,40,8.91,39.4s-.54-1-.84-1.5-.82-1-.82-1.5c0-1.78,2.77.21,3.31.62s1.12.89,1.65,1.37,1-.26.59-.64"/><path class="cls-2" d="M9.27,45.11c-.85-.25-5.26-1.53-4.89.49.19,1,1.59,1.81,2.35,2.33S8.43,49,9.31,49.53c.49.27.89-.5.4-.77A15.2,15.2,0,0,1,5.5,45.83c-.27-.32-.41-.42.07-.46A6,6,0,0,1,7,45.48a18.2,18.2,0,0,1,2,.47c.54.16.72-.69.18-.84"/><path class="cls-2" d="M69.67,58a2.37,2.37,0,0,1,1.46.26c.41.38-.2.85-.48,1.11a14.52,14.52,0,0,1-2,1.49.43.43,0,0,0,.47.73,15.58,15.58,0,0,0,1.77-1.29c.48-.41,1.22-.91,1.37-1.56.31-1.34-1.74-1.64-2.63-1.61a.43.43,0,0,0,0,.86"/><path class="cls-2" d="M66.49,13.81a4,4,0,0,1,1.77-.75c.42-.06,1.29-.15,1.57.21s.09,1.34.07,1.77a18.47,18.47,0,0,1-.25,2.17c-.09.55.75.74.84.18a20.16,20.16,0,0,0,.29-3.07c0-.63.14-1.51-.49-1.89-1.25-.75-3.19-.13-4.26.64-.45.32,0,1.05.47.73"/><path class="cls-2" d="M74.66,23.64c.93-.35,2.94-.71,3.11.67a10.29,10.29,0,0,1-.45,3.32.43.43,0,0,0,.85.18,17.29,17.29,0,0,0,.42-2.67c0-.62.21-1.48-.25-2-.89-1-2.86-.74-3.94-.33-.52.2-.25,1,.27.82"/><path class="cls-2" d="M22.24,7.45c-.77-.83-2.69-2.36-3.73-1.1s-.7,3.6-.23,5a.43.43,0,0,0,.82-.27,6.31,6.31,0,0,1-.26-3.23c.09-.46.09-.47.53-.77s.52-.28,1,0a4.89,4.89,0,0,1,1.29,1c.38.41,1-.23.59-.64"/><path class="cls-2" d="M10.59,17.19C10,16.78,9.11,15.9,8.32,16s-.89.77-.93,1.36a10.37,10.37,0,0,0,1.43,5.76c.28.48,1,0,.73-.47a9.67,9.67,0,0,1-1.27-3.93c0-.42-.25-1.79.32-1.78.39,0,1.29.85,1.59,1.06.46.31.86-.46.4-.77"/><path class="cls-2" d="M5.21,27.6c-.58-.48-1.18-.92-1.8-1.35a.44.44,0,0,0-.58.18c-1.48,2.25.6,4.52,1.12,6.69.13.54,1,.27.82-.27-.46-1.9-2.46-4.07-1.17-6L3,27q.84.58,1.62,1.22c.43.35,1-.28.59-.64"/><path class="cls-2" d="M2.79,49.64C2.1,49.42.57,49,.11,49.88c-.35.63.2,1.45.55,1.94A16.73,16.73,0,0,0,5.79,56c.47.3.87-.47.4-.77a22.06,22.06,0,0,1-3.68-2.57,8.79,8.79,0,0,1-1.25-1.45c-.16-.25-.47-.6-.25-.82s1.23,0,1.59.13c.53.17.71-.67.18-.84"/><path class="cls-2" d="M78.72,36a8.07,8.07,0,0,1,1.21-1.11c.26-.17.57-.45.91-.36.26-.08.33,0,.22.23s-.05.38-.09.57A12.86,12.86,0,0,1,79.72,39a.43.43,0,0,0,.77.4,14,14,0,0,0,1.18-3.1c.15-.6.55-1.74.11-2.32-1-1.27-3.05.86-3.69,1.52-.39.4.25,1,.64.59"/><path class="cls-2" d="M77,52.84a7.7,7.7,0,0,1,1.22-.43c.21-.05.61-.23.78-.14s.19,0,.11.18a.57.57,0,0,1-.25.53,17.11,17.11,0,0,1-2.53,2c-.44.34,0,1.07.47.73.77-.59,1.58-1.16,2.31-1.8a2.09,2.09,0,0,0,.92-1.82c-.24-1.42-2.54-.43-3.31-.1-.51.22-.24,1,.27.82"/><path class="cls-2" d="M70.68,66.09c.49.07,1.52.17,1.82.59s-.48.89-.74,1.12a6.8,6.8,0,0,1-2.88,1.5c-.54.14-.27,1,.27.82a7.3,7.3,0,0,0,4-2.59C74.32,66,72,65.42,70.86,65.24c-.55-.08-.74.76-.18.84"/><path class="cls-2" d="M56.64,7.28a16.65,16.65,0,0,1,5,.49c.35.09.71.19,1,.31.64.22.41.21.09.48a22.5,22.5,0,0,1-2,1.32c-.46.31,0,1,.47.73.74-.5,4.06-2.09,2.22-3.13a9.93,9.93,0,0,0-3.12-.84,18.06,18.06,0,0,0-3.76-.21.43.43,0,0,0,0,.86"/><path class="cls-2" d="M31.27,3.56C32,3,33.65.33,32,0c-.75-.14-1.74.56-2.34.93a13.18,13.18,0,0,0-2.47,2c-.4.39.24,1,.64.59a12.33,12.33,0,0,1,2.66-2,5.19,5.19,0,0,1,.76-.39l.42-.1c.19,0,.23,0,.12.2a2.73,2.73,0,0,1-.94,1.67c-.43.34,0,1.07.47.73"/><path class="cls-2" d="M63.31,54.66c1.54-1,4.14-3.14,3.47-5.27-.62-2-3.59-1-4.87-.39-.5.22-.24,1,.27.82.87-.38,3.64-1.48,3.82.07s-1.95,3.25-3.15,4a.43.43,0,0,0,.47.73"/><path class="cls-2" d="M61.05,20.4c1.21-.68,3.76-2.13,3.58-3.8-.24-2.25-4.26-1.81-5.72-1.49-.54.12-.27.94.27.82.87-.19,5.13-.57,4.52,1.11-.42,1.16-2.09,2.06-3.11,2.63-.49.27,0,1,.47.73"/><path class="cls-2" d="M54.81,29.85c1.66-.2,3.3-1.32,3.27-3.13a5.9,5.9,0,0,0-3.43-5.11c-.52-.19-.7.66-.18.84l.31.16a4,4,0,0,1,.73.55,5.52,5.52,0,0,1,1.7,3.38A2.46,2.46,0,0,1,54.76,29c-.55.07-.51.93,0,.86"/><path class="cls-2" d="M61.86,42c1.52-1.13,3.34-2.95,3.39-5,.05-2.26-2.39-4.14-4.48-4.42-.55-.07-.74.77-.18.85,1.79.24,4.08,1.89,3.76,3.89-.25,1.57-1.73,3-3,3.92-.45.33,0,1.06.47.73"/><path class="cls-2" d="M45.57,17.37A15,15,0,0,0,47,13.63c.34-1.08,1.18-3.17.41-4.23-1.56-2.13-4.64,3.67-5.15,4.66a.43.43,0,0,0,.77.4,23.76,23.76,0,0,1,1.55-2.61c.24-.35,2-2.77,2.21-1.64s-.5,2.88-.88,4A12.41,12.41,0,0,1,44.8,17c-.31.46.46.86.77.4"/><path class="cls-2" d="M21.62,16a3,3,0,0,0-3.73.36c-1.26,1.5-1,4.14-.42,5.88a.43.43,0,0,0,.82-.27,6.44,6.44,0,0,1,.06-4.75c.6-1.08,1.91-1,2.87-.46a.43.43,0,0,0,.4-.77"/><path class="cls-2" d="M22.09,29.73c-.66-.71-1.31-1.42-2-2.08s-1.61-1.62-2.5-1.41c-1.12.27-.57,2.24-.42,3A24.2,24.2,0,0,0,18.28,33c.2.52,1,.25.82-.27-.31-.81-.58-1.64-.81-2.48A13.62,13.62,0,0,1,17.82,28c0-.21-.14-.74,0-.91s-.13,0,.12,0a6.59,6.59,0,0,1,2.19,1.77c.48.47.93,1,1.39,1.47s1-.23.59-.64"/><path class="cls-2" d="M35.13,9.84C34.9,8.9,34.69,8,34.39,7c-.24-.73-.62-2.27-1.52-2.48C31.75,4.3,31.26,6.38,31,7.1a24.57,24.57,0,0,0-.83,3.69c-.08.55.76.74.85.18.13-.86.3-1.71.51-2.55a13.66,13.66,0,0,1,.66-2.11,3.08,3.08,0,0,1,.41-.8l.11,0a6,6,0,0,1,1,2.58c.19.68.34,1.36.51,2s1,.27.82-.27"/><path class="cls-2" d="M12.8,37.74c-1.22-1.1-4.42-4.25-6.08-2.37-1,1.09.26,2.35.81,3.3s1.09,2,1.58,3c.24.5,1,0,.73-.47S9.23,40,8.91,39.4s-.54-1-.84-1.5-.82-1-.82-1.5c0-1.78,2.77.21,3.31.62s1.12.89,1.65,1.37,1-.26.59-.64"/><path class="cls-2" d="M9.27,45.11c-.85-.25-5.26-1.53-4.89.49.19,1,1.59,1.81,2.35,2.33S8.43,49,9.31,49.53c.49.27.89-.5.4-.77A15.2,15.2,0,0,1,5.5,45.83c-.27-.32-.41-.42.07-.46A6,6,0,0,1,7,45.48a18.2,18.2,0,0,1,2,.47c.54.16.72-.69.18-.84"/><path class="cls-2" d="M17.21,52.21c.35-.64.37-.09.17-.2h-.28l-.82,0a16.08,16.08,0,0,0-2,0c-.8.07-2.18.31-2,1.42s1.78,1.69,2.67,2.07a23.15,23.15,0,0,0,2.95,1c.54.15.72-.7.18-.85a22.29,22.29,0,0,1-2.28-.75c-.4-.16-2.88-1-2.68-1.72s2.4-.35,2.82-.34,1.69.32,2-.21a.43.43,0,0,0-.77-.4"/><path class="cls-2" d="M22.6,43.94a19.83,19.83,0,0,0-2-1.8c-.71-.54-1.86-1.5-2.84-1.19-1.77.56-.16,3.85.32,4.86.24.5,1,0,.73-.47a18.58,18.58,0,0,1-.68-1.74c-.16-.51-.69-2,.29-1.77,1.35.35,2.66,1.78,3.62,2.74.39.4,1-.24.59-.64"/><path class="cls-2" d="M35.63,19.13c-.43-1.46-1.75-4.19-3.7-3.52-1.58.55-1.56,3.1-1.44,4.44,0,.55.91.51.86,0-.08-.93-.22-2.95.71-3.51,1.33-.81,2.48,2,2.74,2.9.16.53,1,.27.82-.27"/><path class="cls-2" d="M72.57,46.45a10.41,10.41,0,0,1,2.58.42c.18.05,1.38.28,1.14.7-.12.22-.84.34-1,.41l-4.5,1.51a.43.43,0,0,0,.27.82L74.82,49c.73-.25,2.08-.45,2.43-1.28.74-1.77-3.79-2.12-4.73-2.16-.55,0-.5.84,0,.86"/><path class="cls-2" d="M68.6,29.63c1.64-.79,3.39-1.6,5.26-1.31l-.33-.51c-.41,2.51-2.57,4.08-4,6-.33.45.31,1,.64.59,1.52-2.08,3.75-3.73,4.2-6.42a.44.44,0,0,0-.33-.51c-2.12-.32-4,.53-5.91,1.43-.5.24,0,1,.47.73"/><path class="cls-2" d="M49.86,44.82a13.26,13.26,0,0,1,2.22.17,3.74,3.74,0,0,1,1.15.35c.42.27.5.41.2.79a6.4,6.4,0,0,1-1.63,1.19,13.41,13.41,0,0,1-1.79.92c-.51.22-.24,1,.27.82A14.52,14.52,0,0,0,53,47.53c.55-.39,1.63-1,1.64-1.77s-.82-1.12-1.4-1.33A10.37,10.37,0,0,0,49.81,44c-.56,0-.51.85,0,.86"/><path class="cls-2" d="M11.11,28.33l.33.41.56-.62-1.6-1a6.35,6.35,0,0,0-1.51-.88c-.54-.14-.9.21-1.08.71-.66,1.91.66,4.32,1.29,6.07.19.52,1,.26.82-.27a17.26,17.26,0,0,1-1.37-4.41c0-.19-.09-1,.07-1.11s.49.11.73.27l2.24,1.37c.4.25.74-.27.56-.62a1.81,1.81,0,0,0-.66-.71c-.46-.32-.85.45-.4.77"/><path class="cls-2" d="M69.67,58a2.37,2.37,0,0,1,1.46.26c.41.38-.2.85-.48,1.11a14.52,14.52,0,0,1-2,1.49.43.43,0,0,0,.47.73,15.58,15.58,0,0,0,1.77-1.29c.48-.41,1.22-.91,1.37-1.56.31-1.34-1.74-1.64-2.63-1.61a.43.43,0,0,0,0,.86"/><path class="cls-2" d="M30.88,24.77c-.81-.2-1.62-.38-2.44-.52-.51-.09-1-.17-1.39.28-.74.93-.38,2.54.11,3.48.26.49,1,0,.73-.47s-.79-2.41.1-2.49a4.85,4.85,0,0,1,1.23.23c.5.1,1,.22,1.49.34a.43.43,0,0,0,.18-.84"/><path class="cls-2" d="M27.23,31.05a3.78,3.78,0,0,0-3,1.72,1.24,1.24,0,0,0-.17.51c0,.65.74.89,1.24,1s.79.17,1.19.24a2.91,2.91,0,0,0,.77.14c.26,0,.5-.44.28-.65a.41.41,0,0,0-.15-.08,6.29,6.29,0,0,0-.68-.23c-.46-.12-.94-.13-1.39-.29a.84.84,0,0,1-.48-.34c-.5-.9,2-1.23,2.5-1.27a.38.38,0,1,0-.07-.76"/><path class="cls-2" d="M39.76,26.67a4.55,4.55,0,0,1,2.56-1.12c.2,0,.42-.08.59.07s.08.35,0,.59a6.91,6.91,0,0,1-.69,1.54c-.28.48.48.88.77.4.48-.81,1.79-3.25.09-3.47a5.24,5.24,0,0,0-3.95,1.4c-.42.37.22.95.64.59"/><path class="cls-2" d="M46,33.12l1.8.18.9.09c.45.06.7,0,.86.48s-.08.65-.49.92c-.2.13-.41.23-.61.35a2.88,2.88,0,0,0-.9.85c-.32.46.45.85.77.4.64-.92,3-1.4,2.16-3A1.74,1.74,0,0,0,49,32.57c-1-.15-1.95-.2-2.91-.29-.55-.06-.74.79-.18.84"/><path class="cls-2" d="M29.71,37.65c-1.35,0-3.3-.69-4.15.83s.72,2.79,1.87,3.46c.48.28.88-.49.4-.77-.79-.46-2.63-1.93-1-2.69.89-.42,2,0,2.94,0,.56,0,.51-.85,0-.86"/><path class="cls-2" d="M25.6,49.54c-.88.58-1.79,1.13-2.64,1.75-.47.34-.88.9-.44,1.45a3.34,3.34,0,0,0,2,.78,6,6,0,0,0,2.51-.22.43.43,0,0,0-.27-.82,5.15,5.15,0,0,1-1.63.23c-.3,0-1.56-.07-1.76-.39s.85-.85,1.07-1l1.58-1a.43.43,0,0,0-.47-.73"/><path class="cls-2" d="M11.8,65.15A2.28,2.28,0,0,0,13,68.8c1.8.41,3.88-1.35,5.09-2.47.41-.38-.23-1-.64-.59A11.08,11.08,0,0,1,15,67.53,2.74,2.74,0,0,1,13.2,68a1.41,1.41,0,0,1-.77-2.22c.32-.45-.32-1-.64-.59"/><path class="cls-2" d="M64.33,62.8a18.92,18.92,0,0,1,.12,2,5.68,5.68,0,0,1-.13,2.15c-.82,1.54-2.58-.56-3.15-1.31-.34-.44-1.07,0-.73.47.79,1,2.35,2.84,3.87,2.19.75-.32.87-1.11.93-1.83a18.12,18.12,0,0,0-.05-3.66c-.06-.55-.92-.51-.86,0"/><path class="cls-2" d="M54,67a2.42,2.42,0,0,1,.87,1.45,2.34,2.34,0,0,1,.18.94c-.14.42-.65.4-1,.3-1.16-.4-2.31-.81-3.46-1.22-.52-.18-.7.66-.18.84L54,70.54c.61.21,1.33.37,1.77-.25.83-1.16-.26-3.36-1.27-4.06-.46-.31-.85.46-.4.77"/><path class="cls-2" d="M55.32,55.69l2,1c.29.14.61.27.89.44s.46.32.3.67c.09.39-.06.6-.48.63a19.32,19.32,0,0,1-3.79,1.16c-.54.11-.27.93.27.82a20,20,0,0,0,3.33-1c.64-.25,1.61-.53,1.83-1.29a1.5,1.5,0,0,0-.75-1.58,20.74,20.74,0,0,0-3.2-1.62c-.5-.24-.9.52-.4.77"/><path class="cls-2" d="M74.69,37.61c.53.06,1.06.14,1.59.25s1.77.21,1.26.9c-.28.38-1.05.59-1.47.79l-1.65.76c-.5.23-.24,1.06.27.82.91-.42,1.83-.82,2.73-1.26a1.78,1.78,0,0,0,1.17-1.34,1.14,1.14,0,0,0-.85-1.2,12.5,12.5,0,0,0-2.86-.57c-.55-.07-.74.78-.18.84"/><path class="cls-2" d="M41.63,42.23c.82-.23,4-1.31,4.26,0a3.93,3.93,0,0,1-.71,2,6.33,6.33,0,0,1-1.37,1.61c-.42.36.22.95.64.59a6.86,6.86,0,0,0,1.91-2.66c.27-.68.67-1.75.24-2.45s-1.19-.6-1.85-.54a18.13,18.13,0,0,0-3.39.63c-.54.15-.27,1,.27.82"/><path class="cls-2" d="M39.27,35.49c-1.16-.64-4.13-2.16-5.22-.7a2.46,2.46,0,0,0-.21,2,37.5,37.5,0,0,0,1.22,3.63.43.43,0,0,0,.82-.27l-.72-2.1A6.94,6.94,0,0,1,34.6,36c0-1.92,3.44-.21,4.28.24.49.27.89-.5.4-.77"/><path class="cls-2" d="M34,45.6c-1.42-.7-4.05.57-4.19,2.23a1.61,1.61,0,0,0,1.12,1.67,16.84,16.84,0,0,0,3.67.93c.55.09.73-.75.18-.84s-1.23-.22-1.84-.38A6.66,6.66,0,0,1,31,48.63c-1.58-1,1.49-2.77,2.51-2.27.5.25.9-.52.4-.77"/><path class="cls-2" d="M22.4,70.29c-.61,1.1-1.65,4.52.45,4.8.94.13,2.11-.7,2.81-1.24a8.66,8.66,0,0,0,2.13-2.4c.29-.48-.47-.88-.77-.4A7.5,7.5,0,0,1,24,73.89c-.86.43-1.48.33-1.48-.78a5,5,0,0,1,.68-2.42c.27-.49-.5-.89-.77-.4"/><path class="cls-2" d="M48,76.24a4.27,4.27,0,0,1,0,1.91c-.39,1-1.31.29-1.89-.06a11.3,11.3,0,0,1-2.93-2.53c-.35-.42-1.08,0-.73.47A10.37,10.37,0,0,0,47,79.5c2,.59,2-2,1.89-3.3-.06-.55-.93-.51-.86,0"/><path class="cls-2" d="M36.75,69.23c.22.79.49,1.92-.49,2.32a2.21,2.21,0,0,1-1.89-.32,24.92,24.92,0,0,1-3-2.38c-.43-.35-1,.29-.59.64,1.4,1.13,3.19,3.19,5.17,3s2.1-2,1.67-3.55c-.15-.54-1-.27-.82.27"/><path class="cls-2" d="M43.92,61c.65.75,2,3.14.47,3.61-1.1.35-2.51-.2-3.55-.53-.53-.17-.71.68-.18.85a10.9,10.9,0,0,0,2.83.61c.68,0,1.76,0,2.2-.64a2.77,2.77,0,0,0,.1-2.11,5.68,5.68,0,0,0-1.28-2.42c-.36-.42-.94.22-.59.64"/><path class="cls-2" d="M21.74,59a12.59,12.59,0,0,0-1.62,2.76c-.23.55-.51,1.25-.07,1.78s1.66.67,2.34.74a9.07,9.07,0,0,0,2.91-.19c.54-.12.27-.94-.27-.82a8.07,8.07,0,0,1-1.9.2,4.57,4.57,0,0,1-1.88-.27c-.48-.29-.55-.56-.36-1,.11-.26.23-.52.36-.78a11.8,11.8,0,0,1,1.13-1.79c.33-.44-.3-1-.64-.59"/><path class="cls-2" d="M34.36,61.18c-.32,1.08-1.42,2.64-2.71,2.58-.68,0-.73-.53-.91-1.11a4.54,4.54,0,0,0-.47-1.11c-.29-.48-1,0-.73.47.66,1.07.59,3,2.39,2.64a4.63,4.63,0,0,0,3.27-3.29c.16-.53-.68-.71-.84-.18"/><path class="cls-2" d="M31.14,55.41c-1,.72-2.64.15-3.43,1.3-1,1.5.7,2.79,1.88,3.35.5.24.91-.53.4-.76s-1.38-.61-1.63-1.3.26-1.08.87-1.21a6,6,0,0,0,2.38-.64c.46-.32,0-1-.47-.73"/><path class="cls-2" d="M38.5,51.45A5.93,5.93,0,0,1,40,49.85,3.86,3.86,0,0,1,41.88,49c1.09.11.44,1.67.3,2.26a21.17,21.17,0,0,1-.82,2.66c-.2.52.57.92.77.4a22.32,22.32,0,0,0,1.13-3.95c.15-.8.4-1.93-.63-2.24a3.71,3.71,0,0,0-2.57.69A6.92,6.92,0,0,0,37.73,51c-.31.46.46.86.77.4"/><path class="cls-2" d="M46.17,55.28a5.7,5.7,0,0,1,1.36.79,5.52,5.52,0,0,1,.53.49l.39.47H48.4a3.86,3.86,0,0,1-1.6.36,7.64,7.64,0,0,1-1.76,0c-.55-.07-.74.78-.18.85a8.58,8.58,0,0,0,2.61-.05c.53-.1,1.54-.2,1.83-.74s-.28-1.12-.64-1.5a6.17,6.17,0,0,0-2.08-1.41c-.51-.22-.91.55-.4.77"/><path class="cls-2" d="M68.7,20.41a6.88,6.88,0,0,1,3,.16l-.33-.52A3.36,3.36,0,0,1,70,22.36c-.45.33,0,1.05.47.73a4.23,4.23,0,0,0,1.75-2.85.45.45,0,0,0-.33-.51,7.5,7.5,0,0,0-3.25-.18c-.54.09-.5,1,0,.86"/><path class="cls-2" d="M48.16,21.23l1.28-.45.77-.27c.24,0,.19,0,.16.29-.08.89-.23,1.78-.34,2.66-.07.55.77.74.84.18l.28-2.16a2.46,2.46,0,0,0,0-1.5.87.87,0,0,0-1-.36,20.49,20.49,0,0,0-2.24.78.43.43,0,0,0,.27.82"/><path class="cls-2" d="M44.13,4.88c.34-1.11,1-3.52-1-3.35-1.47.13-2.78,1.57-3.42,2.79a.43.43,0,0,0,.77.4,4.83,4.83,0,0,1,2-2.06c.62-.34,1.23-.46,1.11.54a8.78,8.78,0,0,1-.33,1.49c-.16.53.68.71.84.18"/><path class="cls-2" d="M51.12,8.48a2.4,2.4,0,0,1,.69-.79c.52-.3,1,.15,1.22.58a7.75,7.75,0,0,1,.73,2.17c.12.54.94.27.82-.27-.25-1.11-.61-2.73-1.73-3.3s-1.94.37-2.5,1.2c-.31.46.46.86.77.4"/></g></g></svg>