<svg xmlns="http://www.w3.org/2000/svg" viewBox="0 0 44 50"><defs><style>.cls-1{fill:#9ae6d9;}.cls-2{fill:#0e8472;}.cls-3{opacity:0.9;}</style></defs><title>tr2</title><g id="Слой_2" data-name="Слой 2"><g id="Слой_1-2" data-name="Слой 1"><path class="cls-1" d="M20.37,39.45A9.59,9.59,0,0,0,23,37.93c.61-.42,2.18.57,2.9,1.35a5.57,5.57,0,0,0,3,1.7c.91.11,1.51-1.38.42-2a15.63,15.63,0,0,1-2.8-2.35c-.52-.52-1-.62-.73-1.18a11.21,11.21,0,0,1,1.43-2l1-1.32a9.13,9.13,0,0,1,5.44.77c1.24.66,2.59,2.26,3.61,3.06,1.77,1.41,3,1.77,4.13,2.89,1.36,1.41,3.52-.79.61-3.19-.57-.47-1.8-.9-2.72-1.64-1.68-1.34-3.26-3.11-4.49-3.83a18.13,18.13,0,0,0-3.65-1.62s-.39-.11-.25-.76A15.5,15.5,0,0,0,31,23.29c-.27-2-.75-2.89-.63-3.17a20,20,0,0,0,4-3.56,36.16,36.16,0,0,1,3-3.65c1.83-1.78,4-2.24,3.18-3.48-1-1.51-3.19.47-5,2.32-1.09,1.13-1.89,2.52-2.9,3.47A10.77,10.77,0,0,1,29,17.69a12,12,0,0,0-5.64-3.75c-3.32-.93-4.68-.61-4.61-1s.93-2.73.35-4.5-2.71-3.37-3-4.93S16.53-.29,15,0c-1.73.36-1.33,2.89-.77,4.54S16.82,8,16.67,9.44s-1.26,1.61-1.84,2.6c-.47.81-.21.91-.57,1.22a42.28,42.28,0,0,0-3.74,2.25L9,16.69a14.21,14.21,0,0,1-3.36-.82C4,15.24,2.82,14.68,1.56,15S.38,16.41.82,16.68s.93-.13,1.94.13c0,0,1.43.42,2.31.77a11,11,0,0,0,2.67.65c.23,0-1,1.86-1.55,4.79A14.65,14.65,0,0,0,6,27.88a5,5,0,0,1-2.73.85C1.64,28.67.93,27.2.37,27.62c-.72.54.45,2.19,1.62,2.6a4.51,4.51,0,0,0,2.88,0c.68-.21,1.44-.45,1.47-.27a9.58,9.58,0,0,0,.75,2.62,12.93,12.93,0,0,1,.84,1.9c.11.44-.82,1.77-1.63,3.47s-.32,3.34.16,3.58,1.53-.09,1.49-.89a3,3,0,0,1,.54-2.28c.6-.79,1.32-1.6,1.67-1.65s-.28,1.72-.4,3.14-1.48,2.79-2.4,3.58a7.15,7.15,0,0,0-2.11,3.2c-.41,1-1.79,1.93-2,2.34s0,1.44.88,1.37,2.06-1.73,2.61-2.68.5-1.49,1.4-2.42,2.5-1.46,3.34-3.12a18.63,18.63,0,0,0,1.3-3.95,9.05,9.05,0,0,0,1.38.64c.7.22,1.28.37,1.28.37a17.08,17.08,0,0,0-.77,3.42c-.17,1.71.85,2.73.7,3.72s-1.93,2.85-.69,3.27,2.21-1.7,2.32-2.93-.74-2.15-.52-3.91a5.6,5.6,0,0,1,1.39-3A11.22,11.22,0,0,0,20.37,39.45Z"/><path class="cls-2" d="M40.65,9.36c.58.92-.24,1.47-1.29,2.18A13.13,13.13,0,0,0,37.45,13a17.09,17.09,0,0,0-2,2.31c-.31.42-.63.85-1,1.33A17,17,0,0,1,30.83,20l-.32.23a2.22,2.22,0,0,0,.14.75,17.25,17.25,0,0,1,.5,2.34A15.62,15.62,0,0,1,31,27.83c-.11.5.14.59.15.59A18.44,18.44,0,0,1,34.84,30a16.31,16.31,0,0,1,2.46,2c.66.61,1.34,1.25,2,1.81a10,10,0,0,0,1.61,1,6.14,6.14,0,0,1,1.12.67c1.57,1.3,1.55,2.4,1.46,2.82a1.29,1.29,0,0,1-.89,1,1.37,1.37,0,0,1-1.38-.44,8.92,8.92,0,0,0-1.94-1.42A18.89,18.89,0,0,1,37.14,36c-.37-.29-.79-.69-1.22-1.11A12.45,12.45,0,0,0,33.56,33a9,9,0,0,0-5.29-.77l-1,1.28-.72.93a4.56,4.56,0,0,0-.7,1c-.13.29,0,.39.3.66a4.9,4.9,0,0,1,.4.35,15.36,15.36,0,0,0,2.78,2.33A1.26,1.26,0,0,1,30,40.35a1.06,1.06,0,0,1-1.1.76,5.68,5.68,0,0,1-3-1.74c-.71-.77-2.2-1.67-2.71-1.33l-.35.25a8,8,0,0,1-2.35,1.3h0a8.07,8.07,0,0,1-2.13.28,3.08,3.08,0,0,0-.38,0,5.94,5.94,0,0,0-1.28,2.87,5.21,5.21,0,0,0,.27,2.3,4.21,4.21,0,0,1,.25,1.61,4.35,4.35,0,0,1-1.47,2.9,1.16,1.16,0,0,1-1,.15.74.74,0,0,1-.49-.42c-.19-.48.19-1.16.56-1.83a4.4,4.4,0,0,0,.52-1.18A2.83,2.83,0,0,0,14.92,45a5,5,0,0,1-.42-2.38,17.21,17.21,0,0,1,.72-3.31c-.22-.06-.65-.17-1.13-.33a8.28,8.28,0,0,1-1.24-.56,18.3,18.3,0,0,1-1.27,3.79,6.18,6.18,0,0,1-2.25,2.27,7.25,7.25,0,0,0-1.11.88,4.13,4.13,0,0,0-.93,1.48,7.31,7.31,0,0,1-.44.92c-.54.92-1.79,2.68-2.73,2.76A.94.94,0,0,1,3.21,50a1.2,1.2,0,0,1-.11-1.14,3.75,3.75,0,0,1,.64-.68,5.74,5.74,0,0,0,1.38-1.65l.1-.25a6.9,6.9,0,0,1,2-3c.83-.7,2.24-2.1,2.35-3.48A15,15,0,0,1,9.93,38a6.72,6.72,0,0,0,.18-1.1A5.63,5.63,0,0,0,8.6,38.44a2.9,2.9,0,0,0-.51,2.18,1,1,0,0,1-.48.89,1.32,1.32,0,0,1-1.22.14c-.57-.29-1.06-2-.23-3.77.3-.63.61-1.2.89-1.71a4.81,4.81,0,0,0,.73-1.66A13.17,13.17,0,0,0,7,32.63,9.63,9.63,0,0,1,6.2,30a7.36,7.36,0,0,0-1.29.33,4.59,4.59,0,0,1-3,0A3.2,3.2,0,0,1,0,28.27a.75.75,0,0,1,.27-.76c.34-.26.7,0,1.12.3a3.37,3.37,0,0,0,1.9.78,5.77,5.77,0,0,0,2.57-.73A15.19,15.19,0,0,1,6,23a20.33,20.33,0,0,1,1.35-4.13c.08-.19.16-.37.2-.49A12.34,12.34,0,0,1,5,17.72C4.15,17.38,2.73,17,2.72,17a3,3,0,0,0-1.17-.06,1.19,1.19,0,0,1-.81-.09.93.93,0,0,1-.35-.94,1.31,1.31,0,0,1,1.13-1c1.2-.28,2.33.18,3.76.76l.39.16a14.1,14.1,0,0,0,3.26.8l1.5-1.15a19.84,19.84,0,0,1,2.87-1.75,6.69,6.69,0,0,0,.86-.49.49.49,0,0,0,.19-.34A2.57,2.57,0,0,1,14.7,12a3.69,3.69,0,0,1,.83-.91,2.29,2.29,0,0,0,1-1.62c.09-.79-.56-1.7-1.23-2.68A9.35,9.35,0,0,1,14,4.65c-.27-.81-.87-2.77-.21-3.93a1.32,1.32,0,0,1,1-.68c.35-.07.51.13.71.29h0a2.45,2.45,0,0,1,.57,1.94,7.27,7.27,0,0,0,.19,1.23,6.12,6.12,0,0,0,1.41,2.44,8.77,8.77,0,0,1,1.53,2.47A8,8,0,0,1,19,12.71l-.07.26a3.54,3.54,0,0,0,.66.1,21.12,21.12,0,0,1,3.84.73,11.12,11.12,0,0,1,5.38,3.47c.11.12.22.24.27.28a12.36,12.36,0,0,0,3.49-2.43A14.49,14.49,0,0,0,34,13.38a19.15,19.15,0,0,1,1.42-1.72c1.36-1.41,3.08-3,4.3-2.9a1.12,1.12,0,0,1,.62.25A1.44,1.44,0,0,1,40.65,9.36Zm-12.07,8.1a10.84,10.84,0,0,0-5.25-3.38,20.87,20.87,0,0,0-3.79-.72c-.55-.06-.77-.08-.88-.22a.24.24,0,0,1,0-.2c0-.06,0-.16.08-.31A7.85,7.85,0,0,0,19,8.51a8.57,8.57,0,0,0-1.49-2.38A6.28,6.28,0,0,1,16,3.57a9.67,9.67,0,0,1-.07-1.42A2.93,2.93,0,0,0,15.6.29h0A.62.62,0,0,0,15,.19a1.19,1.19,0,0,0-.86.6c-.62,1.08,0,3.13.2,3.73a9.21,9.21,0,0,0,1.18,2.05c.7,1,1.37,2,1.27,2.88a2.57,2.57,0,0,1-1.09,1.81,3.42,3.42,0,0,0-.77.85,2.32,2.32,0,0,0-.31.75.77.77,0,0,1-.29.5,6.36,6.36,0,0,1-.92.53,19.58,19.58,0,0,0-2.83,1.72L9,16.84H9A14.49,14.49,0,0,1,5.56,16l-.39-.16c-1.38-.56-2.47-1-3.58-.74a1.06,1.06,0,0,0-.91.8.65.65,0,0,0,.22.64,1,1,0,0,0,.63.05,3.2,3.2,0,0,1,1.27.07s1.45.42,2.32.78a11.2,11.2,0,0,0,2.6.64h.11l.05.07c.09.11,0,.25-.22.82a20.08,20.08,0,0,0-1.33,4.07,14.6,14.6,0,0,0-.17,4.79.18.18,0,0,1,0,.17,5.58,5.58,0,0,1-2.83.87A3.66,3.66,0,0,1,1.24,28c-.4-.28-.61-.43-.78-.3a.47.47,0,0,0-.15.48A2.92,2.92,0,0,0,2,30.08a4.31,4.31,0,0,0,2.79,0c1-.31,1.39-.41,1.56-.3a.2.2,0,0,1,.09.14,9.39,9.39,0,0,0,.73,2.58,13.1,13.1,0,0,1,.85,1.93c.08.32-.2.86-.76,1.87-.27.5-.59,1.07-.88,1.7-.77,1.62-.3,3.19.1,3.39a1,1,0,0,0,.93-.12.7.7,0,0,0,.35-.63,3.17,3.17,0,0,1,.57-2.37c.57-.75,1.33-1.65,1.76-1.71a.22.22,0,0,1,.19.07c.15.16.07.54-.11,1.4a14.67,14.67,0,0,0-.31,1.82c-.11,1.42-1.4,2.78-2.46,3.68a6.57,6.57,0,0,0-2,2.9l-.1.25a5.84,5.84,0,0,1-1.45,1.75,3.94,3.94,0,0,0-.58.61.93.93,0,0,0,.1.84.66.66,0,0,0,.64.32c.75-.06,1.93-1.63,2.5-2.61A7.08,7.08,0,0,0,7,46.69a4.43,4.43,0,0,1,1-1.57,7.47,7.47,0,0,1,1.16-.91A6,6,0,0,0,11.32,42a18.6,18.6,0,0,0,1.29-3.91l0-.2.17.1a8.94,8.94,0,0,0,1.35.63c.69.22,1.26.36,1.27.36l.16,0-.05.15a17.06,17.06,0,0,0-.76,3.39,4.8,4.8,0,0,0,.41,2.25,3,3,0,0,1,.3,1.47,4.45,4.45,0,0,1-.55,1.28c-.32.58-.68,1.23-.54,1.58a.46.46,0,0,0,.31.25.88.88,0,0,0,.79-.12,4.09,4.09,0,0,0,1.34-2.68,3.93,3.93,0,0,0-.24-1.5,5.52,5.52,0,0,1-.28-2.41c.16-1.29,1.12-3,1.5-3.11a2.71,2.71,0,0,1,.45,0,7.82,7.82,0,0,0,2.06-.27,7.79,7.79,0,0,0,2.26-1.26l.35-.25c.73-.5,2.42.64,3.09,1.37a5.45,5.45,0,0,0,2.86,1.65.77.77,0,0,0,.79-.57,1,1,0,0,0-.46-1.19,15.57,15.57,0,0,1-2.83-2.37,4.63,4.63,0,0,0-.38-.33c-.33-.27-.62-.5-.38-1a4.84,4.84,0,0,1,.73-1.1l.71-.92,1-1.37h.05a9.17,9.17,0,0,1,5.54.79,12.6,12.6,0,0,1,2.42,2c.43.41.84.81,1.2,1.1a18.73,18.73,0,0,0,2.14,1.45,9.16,9.16,0,0,1,2,1.47,1.08,1.08,0,0,0,1.08.37,1,1,0,0,0,.67-.78c.07-.36.31-1.56-1.4-2.5h0a4.67,4.67,0,0,0-1-.67,10.25,10.25,0,0,1-1.62-1c-.72-.57-1.4-1.2-2.06-1.82a16.12,16.12,0,0,0-2.41-2,18.18,18.18,0,0,0-3.62-1.6c-.18,0-.49-.31-.35-.93a15.28,15.28,0,0,0,.14-4.46,17.05,17.05,0,0,0-.49-2.3c-.14-.51-.21-.77-.13-.94s.12-.13.42-.34a16.74,16.74,0,0,0,3.58-3.25c.39-.47.71-.9,1-1.31a17.31,17.31,0,0,1,2-2.35,13.56,13.56,0,0,1,2-1.51c1.14-.77,1.62-1.13,1.21-1.78a.9.9,0,0,0-.69-.46c-1.1-.11-2.84,1.55-4.06,2.81a19,19,0,0,0-1.4,1.69,14.69,14.69,0,0,1-1.5,1.78C31.3,16.71,29.29,18,29,17.83l-.07,0A3.66,3.66,0,0,1,28.59,17.46Z"/><g class="cls-3"><path class="cls-2" d="M11.72,25.8c-.56.51-.69,1.15-1.5,1.34s-1.8-.4-2.06.64a.78.78,0,0,0,.11.76q.79.65,1.32-.09a2.57,2.57,0,0,1,.62-.38A4.2,4.2,0,0,1,12.09,28c.45,0,.33.72-.11.69a2.64,2.64,0,0,0-2.1.5,1.53,1.53,0,0,1-1,.4,1.5,1.5,0,0,1-1.4-1.32,1.64,1.64,0,0,1,.92-1.75,2.62,2.62,0,0,1,1.17,0c1,.07,1.17-.68,1.79-1.24.33-.3.73.27.4.57Z"/><path class="cls-2" d="M13,23.39c.27-1.84-.7-2.55-1.79-3.81a3.87,3.87,0,0,1-.57-.85c-.39-.8-.52-1.85.36-2.38a2,2,0,0,1,2.37.68c1.32,1.36,1.08,3.38,3.19,4.1.43.14.14.78-.28.64a4.08,4.08,0,0,1-2.4-2.25A13.55,13.55,0,0,0,13.25,18a3,3,0,0,0-.55-.62c-.55-.47-.56-.51-1.12.12s-.47.89.05,1.54,1.05.92,1.45,1.5a4.14,4.14,0,0,1,.62,3,.35.35,0,0,1-.69-.11Z"/><path class="cls-2" d="M18.9,18.24c.42-.53-.17-1.25-.27-1.8a1.44,1.44,0,0,1,.16-1,2,2,0,0,1,1.92-.83,1.55,1.55,0,0,1,1.43,1.54,1.82,1.82,0,0,1-.31,1,3,3,0,0,0-.64,1.69c0,.45-.71.33-.69-.11a2.94,2.94,0,0,1,.36-1.44c.24-.38.64-.71.6-1.22-.06-.69-.87-.93-1.44-.74-1.11.35-.52,1.22-.34,2a1.42,1.42,0,0,1-.24,1.31c-.28.35-.82-.09-.54-.44Z"/><path class="cls-2" d="M20,22.82c1.85.18,3.12-.57,4.56-1.61A7,7,0,0,1,27,19.93c1.08-.27,2.86-.31,3.1,1.12s-1.24,2-2.27,2.3-2,.44-3,.81A18,18,0,0,0,21,26.28a.35.35,0,0,1-.4-.57,18.31,18.31,0,0,1,4.19-2.28,18.68,18.68,0,0,1,2.07-.55,8.12,8.12,0,0,0,1.08-.3,2.94,2.94,0,0,0,.64-.29q1-.39,0-1.78c-1.64-.72-3.69,1.45-4.9,2.19a5.93,5.93,0,0,1-3.81.82c-.45,0-.33-.73.11-.69Z"/><path class="cls-2" d="M20.07,28.81a10,10,0,0,0,2.05,1.25,22.66,22.66,0,0,1,2.27.75,1.53,1.53,0,0,1,.27,2.52c-.89.82-1.82.36-2.65-.24a5.93,5.93,0,0,0-1.85-1,3,3,0,0,1-1.42-.73c-.3-.33.27-.73.57-.4.47.53,1.47.5,2.08.84s2.1,2,2.89.92c1-1.32-1.5-1.59-2.32-2a10.63,10.63,0,0,1-2.34-1.41.35.35,0,0,1,.44-.54Z"/><path class="cls-2" d="M13.93,32.26c.16,1.43-1.83,1.79-1.88,3.14q.38,1.23,1.2.61a1.44,1.44,0,0,0,.53-.95c.06-.21.09-.43.16-.64A2.87,2.87,0,0,1,15.1,33c.37-.25.77.32.4.57a3,3,0,0,0-1.1,1.93,2.1,2.1,0,0,1-.51.92,1.62,1.62,0,0,1-1.87.4,1.5,1.5,0,0,1-.6-1.73A3,3,0,0,1,12,34c.35-.44,1.31-1.06,1.24-1.68a.35.35,0,0,1,.69-.07Z"/></g></g></g></svg>