<svg xmlns="http://www.w3.org/2000/svg" viewBox="0 0 77 76"><defs><style>.cls-1{fill:#efefef;}.cls-2{fill:#a0bbc7;}</style></defs><title>l3</title><g id="Слой_2" data-name="Слой 2"><g id="Слой_1-2" data-name="Слой 1"><path class="cls-1" d="M72.42,56.27C58.62,80.8,36.24,78.87,20.06,70.61,7.55,64.23-7.68,47.67,5.29,22.83,18-1.52,38.72-4,57.27,6.92,69.65,14.24,84.6,34.61,72.42,56.27"/><path class="cls-2" d="M14.48,29.08c-.82-1.28-2.91-4.85-4.84-3.58-1.12.74-.34,2.16-.08,3.14s.49,2,.68,3.08c.09.51.85.26.76-.24s-.24-1.24-.38-1.86-.24-1-.38-1.54S9.75,27,9.87,26.54c.45-1.58,2.41.86,2.8,1.35s.79,1.06,1.14,1.61a.4.4,0,0,0,.68-.43"/><path class="cls-2" d="M9.56,34.79c-.69-.42-4.31-2.63-4.47-.74-.08.95,1,2,1.53,2.64s1.24,1.39,1.91,2c.37.36.91-.23.54-.59a14,14,0,0,1-3-3.63c-.17-.35-.26-.47.17-.39a5.49,5.49,0,0,1,1.28.46,16.79,16.79,0,0,1,1.71.92c.44.27.8-.44.37-.71"/><path class="cls-2" d="M60.23,60.87c.36.09,1,.25,1.23.58s-.38.71-.7.87a13.39,13.39,0,0,1-2.13.85.4.4,0,0,0,.24.76,14.38,14.38,0,0,0,1.88-.72c.52-.25,1.31-.51,1.6-1.05.6-1.12-1.15-1.88-2-2.07a.4.4,0,0,0-.17.78"/><path class="cls-2" d="M68.07,20.73a3.68,3.68,0,0,1,1.75-.24c.39,0,1.19.18,1.34.56s-.25,1.22-.37,1.59a17,17,0,0,1-.74,1.88c-.21.47.49.84.71.37a18.6,18.6,0,0,0,1-2.66c.16-.56.49-1.31,0-1.8-.93-1-2.81-.89-4-.46-.48.18-.24.94.24.76"/><path class="cls-2" d="M73,31.46c.91-.09,2.79.08,2.61,1.35a9.49,9.49,0,0,1-1.2,2.85.4.4,0,0,0,.71.37,16,16,0,0,0,1-2.27c.19-.54.54-1.27.26-1.84-.55-1.1-2.37-1.35-3.43-1.25-.51,0-.47.84,0,.8"/><path class="cls-2" d="M30.2,4.39c-.49-.92-1.83-2.75-3.05-1.88s-1.49,3-1.41,4.4a.4.4,0,0,0,.8,0,5.82,5.82,0,0,1,.55-2.94c.19-.39.19-.4.66-.56s.53-.12.89.21a4.51,4.51,0,0,1,.9,1.23c.24.46.91,0,.68-.43"/><path class="cls-2" d="M17.48,10.24c-.45-.52-1-1.51-1.73-1.65s-1,.47-1.15,1a9.57,9.57,0,0,0-.11,5.48c.13.5.89.25.76-.24A8.92,8.92,0,0,1,15.06,11c.07-.38.21-1.65.71-1.51.34.1.94,1.07,1.16,1.33s.88-.2.54-.59"/><path class="cls-2" d="M10.17,18.21c-.4-.56-.83-1.11-1.28-1.64a.41.41,0,0,0-.57,0c-1.86,1.65-.56,4.17-.62,6.23,0,.51.78.47.8,0,.05-1.81-1.2-4.22.41-5.65l-.56,0q.61.72,1.15,1.48c.3.42,1,0,.68-.43"/><path class="cls-2" d="M2.69,37.26c-.56-.37-1.83-1.07-2.44-.43-.46.48-.17,1.34,0,1.86a15.44,15.44,0,0,0,3.56,4.92c.35.38.89-.21.54-.58a20.35,20.35,0,0,1-2.66-3.18A8.11,8.11,0,0,1,1,38.26c-.09-.26-.28-.65,0-.79s1.09.31,1.39.5.8-.43.37-.71"/><path class="cls-2" d="M73.59,43.49a7.45,7.45,0,0,1,1.35-.69c.27-.09.62-.26.89-.1.25,0,.29.07.15.25s-.14.33-.22.49a11.87,11.87,0,0,1-2,2.88.4.4,0,0,0,.59.54,12.93,12.93,0,0,0,1.8-2.47c.28-.5.91-1.41.65-2-.55-1.36-2.92,0-3.65.46-.44.26,0,.94.43.68"/><path class="cls-2" d="M68,58A7.11,7.11,0,0,1,69.23,58c.2,0,.6-.05.73.06s.17,0,.06.19a.52.52,0,0,1-.35.41,15.79,15.79,0,0,1-2.74,1.19c-.47.19-.24,1,.24.76.83-.34,1.68-.65,2.49-1a1.93,1.93,0,0,0,1.26-1.4c.13-1.32-2.15-1-2.92-.89-.5.07-.47.87,0,.8"/><path class="cls-2" d="M59.18,68.3c.42.18,1.31.52,1.48,1s-.65.68-.93.82a6.27,6.27,0,0,1-2.93.64c-.51,0-.47.79,0,.8a6.74,6.74,0,0,0,4.22-1.33c1.38-1.09-.52-2.17-1.52-2.61-.47-.21-.84.5-.37.71"/><path class="cls-2" d="M60.87,12.54a15.36,15.36,0,0,1,4.29,1.63c.29.17.58.34.86.53.51.35.32.28,0,.45a20.76,20.76,0,0,1-2.06.7.4.4,0,0,0,.24.76c.78-.26,4.12-.88,2.74-2.25a9.17,9.17,0,0,0-2.57-1.5A16.66,16.66,0,0,0,61,11.76a.4.4,0,0,0-.17.78"/><path class="cls-2" d="M39.18,3.11c.75-.32,2.9-2.31,1.47-3C40-.19,39,.19,38.34.37a12.16,12.16,0,0,0-2.67,1.14c-.45.25,0,.93.42.67A11.38,11.38,0,0,1,39,1a4.79,4.79,0,0,1,.77-.16l.4,0c.18,0,.2.08.06.2-.07.45-.86,1.09-1.24,1.26s-.23,1,.24.76"/><path class="cls-2" d="M55.37,56.35c1.62-.52,4.44-1.8,4.36-3.86-.08-1.89-3-1.72-4.25-1.52-.5.08-.47.87,0,.8.86-.13,3.6-.44,3.38,1s-2.52,2.43-3.78,2.83a.4.4,0,0,0,.24.76"/><path class="cls-2" d="M61.64,25.3c1.25-.32,3.86-1,4.11-2.52.33-2.06-3.36-2.64-4.74-2.71-.51,0-.47.77,0,.8.82,0,4.7.73,3.76,2.08-.65.93-2.36,1.33-3.41,1.59-.5.13-.26.89.24.76"/><path class="cls-2" d="M53.79,32.2a3.11,3.11,0,0,0,3.67-2,5.44,5.44,0,0,0-1.82-5.38c-.42-.29-.78.42-.37.71l.23.22a3.67,3.67,0,0,1,.52.67,5.09,5.09,0,0,1,.7,3.42A2.27,2.27,0,0,1,54,31.42c-.5-.07-.68.71-.17.78"/><path class="cls-2" d="M57.14,44.74c1.63-.64,3.69-1.82,4.22-3.61.59-2-1.13-4.26-2.92-5-.47-.2-.84.51-.37.71,1.54.65,3.18,2.67,2.41,4.38-.6,1.34-2.26,2.26-3.58,2.78-.48.19-.24.95.24.76"/><path class="cls-2" d="M48.58,18.85a13.86,13.86,0,0,0,2.2-3c.57-.87,1.82-2.54,1.39-3.67-.87-2.28-5,2.14-5.71,2.91-.35.38.24.92.58.54a21.92,21.92,0,0,1,2-2c.29-.25,2.43-2,2.37-.93s-1.14,2.44-1.74,3.33A11.45,11.45,0,0,1,48,18.31c-.39.34.2.88.59.54"/><path class="cls-2" d="M27.58,11.86a2.79,2.79,0,0,0-3.41-.58c-1.49,1-1.87,3.45-1.8,5.13a.4.4,0,0,0,.8,0,5.94,5.94,0,0,1,1.2-4.21c.79-.81,1.93-.39,2.67.28a.4.4,0,0,0,.54-.59"/><path class="cls-2" d="M24.69,24.19c-.42-.79-.83-1.58-1.3-2.34-.38-.6-1-1.83-1.88-1.86-1.06,0-1,1.86-1.09,2.54a22.33,22.33,0,0,0,.1,3.64c.05.51.85.47.8,0-.08-.8-.12-1.6-.13-2.41a12.56,12.56,0,0,1,.12-2.1c0-.19.05-.69.2-.81s-.11-.07.1.06A6.08,6.08,0,0,1,23.13,23c.31.54.59,1.09.88,1.64s.91,0,.68-.43"/><path class="cls-2" d="M41.1,9.63c0-.89.06-1.78,0-2.68,0-.71,0-2.17-.76-2.57-.93-.5-1.87,1.24-2.24,1.82A22.67,22.67,0,0,0,36.5,9.28c-.21.47.5.84.71.37.32-.73.68-1.45,1.07-2.15a12.61,12.61,0,0,1,1.1-1.72,2.84,2.84,0,0,1,.56-.62H40a5.53,5.53,0,0,1,.31,2.55c0,.65,0,1.3,0,1.94s.78.47.8,0"/><path class="cls-2" d="M14.48,29.08c-.82-1.28-2.91-4.85-4.84-3.58-1.12.74-.34,2.16-.08,3.14s.49,2,.68,3.08c.09.51.85.26.76-.24s-.24-1.24-.38-1.86-.24-1-.38-1.54S9.75,27,9.87,26.54c.45-1.58,2.41.86,2.8,1.35s.79,1.06,1.14,1.61a.4.4,0,0,0,.68-.43"/><path class="cls-2" d="M9.56,34.79c-.69-.42-4.31-2.63-4.47-.74-.08.95,1,2,1.53,2.64s1.24,1.39,1.91,2c.37.36.91-.23.54-.59a14,14,0,0,1-3-3.63c-.17-.35-.26-.47.17-.39a5.49,5.49,0,0,1,1.28.46,16.79,16.79,0,0,1,1.71.92c.44.27.8-.44.37-.71"/><path class="cls-2" d="M14.91,43c.46-.48.35,0,.2-.13l-.25-.07-.72-.23a14.84,14.84,0,0,0-1.76-.47c-.73-.13-2-.25-2.08.79s1.18,1.94,1.88,2.48A21.36,21.36,0,0,0,14.54,47c.44.26.81-.45.37-.71a20.57,20.57,0,0,1-1.85-1.22c-.32-.24-2.31-1.62-2-2.18s2.22.26,2.59.38,1.43.69,1.81.29-.23-.91-.59-.54"/><path class="cls-2" d="M21.71,37a18.3,18.3,0,0,0-1.38-2.1c-.5-.65-1.3-1.78-2.24-1.74-1.71.07-1.07,3.4-.88,4.4.09.5.85.26.76-.24a17.14,17.14,0,0,1-.19-1.71c0-.5-.13-2,.69-1.51,1.12.64,1.94,2.22,2.56,3.32.25.45.93,0,.68-.43"/><path class="cls-2" d="M39.31,18c0-1.4-.55-4.15-2.45-4-1.54.1-2.13,2.38-2.35,3.61-.09.51.69.67.78.17.15-.85.52-2.68,1.48-3,1.38-.4,1.72,2.38,1.74,3.24a.4.4,0,0,0,.8,0"/><path class="cls-2" d="M65.6,51.27a9.6,9.6,0,0,1,2.2,1c.15.09,1.16.58.85.89-.16.17-.83.1-1,.11l-4.37.26a.4.4,0,0,0,0,.8l3.7-.21c.71,0,2,.11,2.47-.55,1.09-1.4-2.86-2.8-3.69-3.06-.49-.15-.65.63-.17.78"/><path class="cls-2" d="M66.13,35.34a8.41,8.41,0,0,1,5,.1L71,34.9c-1,2.13-3.27,3-5,4.4-.4.32,0,1,.43.68,1.86-1.48,4.25-2.42,5.29-4.71a.4.4,0,0,0-.17-.54c-1.81-.8-3.73-.51-5.61-.15-.5.09-.26.85.24.76"/><path class="cls-2" d="M45.77,44.34A12.24,12.24,0,0,1,47.7,45a3.45,3.45,0,0,1,.94.59c.31.34.34.48,0,.75A5.9,5.9,0,0,1,46.9,47a12.38,12.38,0,0,1-1.82.39c-.5.07-.47.87,0,.8a13.4,13.4,0,0,0,2.81-.7c.58-.22,1.7-.5,1.89-1.18s-.46-1.19-.92-1.53a9.57,9.57,0,0,0-3-1.25c-.49-.14-.66.64-.17.78"/><path class="cls-2" d="M15.24,20.29l.19.45.65-.41L14.9,19.06a5.86,5.86,0,0,0-1.13-1.15.82.82,0,0,0-1.13.37c-1,1.54-.46,4-.32,5.71,0,.51.84.47.8,0A15.93,15.93,0,0,1,13,19.7c0-.18.15-.88.33-1s.41.22.59.42l1.66,1.76c.3.32.73-.06.65-.41a1.67,1.67,0,0,0-.41-.79c-.33-.39-.87.2-.54.59"/><path class="cls-2" d="M60.23,60.87c.36.09,1,.25,1.23.58s-.38.71-.7.87a13.39,13.39,0,0,1-2.13.85.4.4,0,0,0,.24.76,14.38,14.38,0,0,0,1.88-.72c.52-.25,1.31-.51,1.6-1.05.6-1.12-1.15-1.88-2-2.07a.4.4,0,0,0-.17.78"/><path class="cls-2" d="M33.71,21.89c-.67-.37-1.35-.73-2.05-1.05-.43-.2-.88-.4-1.31-.09-.88.65-.95,2.17-.74,3.12.11.5.87.26.76-.24s-.13-2.34.69-2.2a4.48,4.48,0,0,1,1,.5c.42.21.83.43,1.24.66s.82-.46.37-.71"/><path class="cls-2" d="M28.95,26.61a3.49,3.49,0,0,0-3.12.8,1.14,1.14,0,0,0-.28.41c-.2.57.45,1,.86,1.21s.66.34,1,.5a2.69,2.69,0,0,0,.65.31c.24,0,.55-.27.41-.51a.38.38,0,0,0-.11-.11,5.8,5.8,0,0,0-.55-.37c-.38-.22-.81-.35-1.17-.59a.78.78,0,0,1-.35-.42c-.23-.92,2.11-.61,2.53-.53a.35.35,0,1,0,.12-.69"/><path class="cls-2" d="M41.16,25.73a4.2,4.2,0,0,1,2.55-.38c.18,0,.39,0,.5.2s0,.33-.14.53a6.38,6.38,0,0,1-1,1.21c-.37.36.22.9.59.54.62-.61,2.38-2.47.92-3.07a4.84,4.84,0,0,0-3.85.29c-.46.23,0,.9.43.68"/><path class="cls-2" d="M45.12,33l1.56.59.78.29c.38.16.62.18.64.64s-.23.56-.66.7c-.21.07-.42.11-.63.17a2.66,2.66,0,0,0-1,.54c-.39.33.2.87.59.54.79-.66,3-.53,2.65-2.16a1.6,1.6,0,0,0-1-1.05c-.81-.37-1.68-.65-2.52-1-.48-.18-.85.52-.37.71"/><path class="cls-2" d="M29.56,33.08c-1.19-.36-2.78-1.41-3.89-.27s0,2.65.83,3.54c.36.37.9-.22.54-.59-.59-.6-1.88-2.36-.26-2.64.89-.16,1.78.49,2.61.74.49.15.65-.63.17-.78"/><path class="cls-2" d="M23,42.68c-.92.3-1.86.57-2.77.92-.5.19-1,.59-.74,1.18s1.09,1,1.62,1.19a5.54,5.54,0,0,0,2.29.41.4.4,0,0,0,0-.8,4.75,4.75,0,0,1-1.51-.19c-.26-.08-1.37-.44-1.47-.77s1-.56,1.2-.63l1.66-.55a.4.4,0,0,0-.24-.76"/><path class="cls-2" d="M7,53.25a2.11,2.11,0,0,0,.21,3.55c1.5.8,3.78-.26,5.13-1,.46-.24,0-.91-.42-.67a10.23,10.23,0,0,1-2.67,1,2.53,2.53,0,0,1-1.66,0,1.3,1.3,0,0,1-.15-2.16c.39-.32,0-1-.43-.68"/><path class="cls-2" d="M54.31,63.84A17.46,17.46,0,0,1,54,65.61a5.24,5.24,0,0,1-.63,1.89c-1.1,1.18-2.16-1.12-2.49-1.93-.19-.47-1-.24-.76.24.45,1.11,1.4,3.1,2.92,2.89.74-.1,1-.78,1.27-1.41A16.72,16.72,0,0,0,55.09,64c.08-.51-.7-.68-.78-.17"/><path class="cls-2" d="M44.14,65.1a2.24,2.24,0,0,1,.42,1.51,2.16,2.16,0,0,1-.07.88c-.23.34-.68.2-.93,0-.93-.63-1.86-1.28-2.79-1.92-.42-.29-.79.42-.37.71.93.64,1.85,1.29,2.79,1.92.49.33,1.09.65,1.63.2,1-.83.58-3.06-.15-3.92-.33-.39-.87.2-.54.59"/><path class="cls-2" d="M48,55.34l1.55,1.35c.23.2.48.39.69.61a.39.39,0,0,1,.11.67c0,.37-.2.52-.58.45a17.82,17.82,0,0,1-3.66.12c-.51,0-.47.76,0,.8a18.46,18.46,0,0,0,3.2-.06c.63-.07,1.56-.09,1.94-.7A1.38,1.38,0,0,0,51,57a19.14,19.14,0,0,0-2.46-2.22c-.39-.34-.93.25-.54.59"/><path class="cls-2" d="M69.63,43.91c.46.18.91.38,1.36.61s1.53.61.91,1.11a3.69,3.69,0,0,1-1.5.35l-1.65.28c-.5.09-.47.88,0,.8.91-.15,1.83-.29,2.73-.47a1.65,1.65,0,0,0,1.37-.91,1.05,1.05,0,0,0-.47-1.27A11.53,11.53,0,0,0,70,43.21c-.47-.19-.84.51-.37.71"/><path class="cls-2" d="M39.07,40c.78,0,3.89-.2,3.79,1,0,.52-.76,1.25-1.11,1.6a5.84,5.84,0,0,1-1.61,1.1c-.46.22,0,.9.43.68a6.33,6.33,0,0,0,2.35-1.91c.41-.54,1-1.39.81-2.12s-.92-.82-1.51-.93A16.73,16.73,0,0,0,39,39.24c-.51,0-.47.8,0,.8"/><path class="cls-2" d="M38.6,33.47c-.88-.85-3.15-2.92-4.48-1.89a2.27,2.27,0,0,0-.68,1.75,34.6,34.6,0,0,0,.2,3.53.4.4,0,0,0,.8,0q-.07-1-.13-2a6.4,6.4,0,0,1,0-2c.46-1.71,3.11.64,3.75,1.25.37.36.91-.23.54-.59"/><path class="cls-2" d="M31.42,41.19c-1.1-1-3.75-.47-4.27,1a1.49,1.49,0,0,0,.59,1.76,15.54,15.54,0,0,0,3,1.71c.46.22.84-.49.37-.71s-1-.5-1.54-.78a6.14,6.14,0,0,1-1.51-1c-1.16-1.28,2-2.1,2.78-1.41.38.34.93-.24.54-.59"/><path class="cls-2" d="M15.17,60.38c-.81.83-2.56,3.62-.76,4.38a4.24,4.24,0,0,0,2.8-.42,8,8,0,0,0,2.48-1.62c.37-.35-.21-.89-.58-.54A6.92,6.92,0,0,1,15.69,64c-.87.17-1.4-.06-1.13-1.05a4.59,4.59,0,0,1,1.19-2c.36-.37-.23-.91-.59-.54"/><path class="cls-2" d="M36.54,71.87a3.94,3.94,0,0,1-.5,1.69c-.58.77-1.24-.06-1.67-.51a10.42,10.42,0,0,1-2-3c-.21-.46-1-.23-.76.24a9.57,9.57,0,0,0,3.23,4.19c1.65,1,2.3-1.25,2.48-2.48.08-.5-.7-.68-.78-.17"/><path class="cls-2" d="M28.2,62.91c0,.75,0,1.83-1,1.95a2,2,0,0,1-1.61-.74,23,23,0,0,1-2.14-2.86c-.3-.42-1,0-.68.43,1,1.34,2.07,3.61,3.88,3.94S29,64.34,29,62.87c0-.51-.8-.47-.8,0"/><path class="cls-2" d="M36.58,57.28c.39.83,1,3.27-.46,3.33-1.06,0-2.19-.79-3-1.33-.43-.28-.8.43-.37.71a10.06,10.06,0,0,0,2.38,1.23c.6.19,1.57.41,2.11,0a2.56,2.56,0,0,0,.6-1.86,5.24,5.24,0,0,0-.56-2.46c-.22-.46-.89,0-.68.43"/><path class="cls-2" d="M17.3,50.19a11.62,11.62,0,0,0-2.11,2.06c-.34.43-.75,1-.49,1.57s1.31,1,1.9,1.22a8.37,8.37,0,0,0,2.63.53c.51,0,.47-.77,0-.8a7.45,7.45,0,0,1-1.74-.28,4.21,4.21,0,0,1-1.61-.7.65.65,0,0,1-.08-1c.16-.21.33-.41.51-.61a10.89,10.89,0,0,1,1.44-1.32c.4-.31,0-1-.43-.68"/><path class="cls-2" d="M28,55.16c-.55.88-1.9,2-3,1.65-.6-.19-.52-.65-.54-1.21a4.19,4.19,0,0,0-.15-1.1.4.4,0,0,0-.76.24c.33,1.11-.2,2.81,1.49,2.93a4.27,4.27,0,0,0,3.71-2.14c.27-.44-.44-.8-.71-.37"/><path class="cls-2" d="M26.54,49.24c-1.09.39-2.39-.5-3.37.33-1.28,1.08-.05,2.66.87,3.43.39.33.93-.25.54-.58s-1.08-.88-1.14-1.55.49-.9,1.06-.87a5.51,5.51,0,0,0,2.27,0c.48-.17.25-.94-.24-.76"/><path class="cls-2" d="M34.05,47.49a5.47,5.47,0,0,1,1.75-1.05,3.56,3.56,0,0,1,1.85-.33c.94.36,0,1.6-.28,2.09A19.53,19.53,0,0,1,36,50.38c-.3.41.28,1,.58.54a20.59,20.59,0,0,0,2-3.24c.33-.68.82-1.63,0-2.15a3.42,3.42,0,0,0-2.45,0A6.38,6.38,0,0,0,33.47,47c-.39.34.2.88.59.54"/><path class="cls-2" d="M40,52.76a5.26,5.26,0,0,1,1,1,5.1,5.1,0,0,1,.36.57l.24.52-.06,0A3.56,3.56,0,0,1,40,54.8a7.05,7.05,0,0,1-1.56-.44c-.47-.19-.84.51-.37.71a7.92,7.92,0,0,0,2.34.58c.49,0,1.42.19,1.8-.22s0-1.07-.21-1.49a5.69,5.69,0,0,0-1.51-1.76c-.4-.32-.95.27-.54.59"/><path class="cls-2" d="M68.44,27.15a6.35,6.35,0,0,1,2.65.87l-.17-.54a3.1,3.1,0,0,1-1.78,1.72c-.48.18-.24.94.24.76a3.9,3.9,0,0,0,2.25-2.11.41.41,0,0,0-.17-.54,6.92,6.92,0,0,0-2.85-.94c-.5-.05-.68.73-.17.78"/><path class="cls-2" d="M50,22.92l1.25-.09.75-.05c.21.08.17,0,.07.3-.29.77-.63,1.53-.95,2.29-.2.47.51.84.71.37l.77-1.85a2.27,2.27,0,0,0,.34-1.35.8.8,0,0,0-.8-.56,18.9,18.9,0,0,0-2.19.15.4.4,0,0,0,0,.8"/><path class="cls-2" d="M50.32,7.38c.57-.9,1.7-2.9-.06-3.21a4.6,4.6,0,0,0-3.72,1.66.4.4,0,0,0,.58.54A4.46,4.46,0,0,1,49.4,5c.63-.15,1.21-.11.86.75A8.1,8.1,0,0,1,49.61,7c-.27.44.44.8.71.37"/><path class="cls-2" d="M55.67,12.27a2.21,2.21,0,0,1,.81-.54c.54-.14.83.37.94.81a7.15,7.15,0,0,1,.13,2.11c0,.51.78.47.8,0,0-1,.12-2.58-.75-3.36s-1.82-.14-2.51.47c-.38.34.2.88.59.54"/></g></g></svg>