<svg xmlns="http://www.w3.org/2000/svg" viewBox="0 0 64 50"><defs><style>.cls-1{fill:#ffe66c;}.cls-2,.cls-3{fill:#ffd508;}.cls-3{opacity:0.9;}</style></defs><title>tr1-hover</title><g id="Слой_2" data-name="Слой 2"><g id="Слой_1-2" data-name="Слой 1"><path class="cls-1" d="M32.95,33.95a11,11,0,0,1-1.51-.31c-.41-.12-.89-.45-1.32-.26-.59.25-.93,1.39-1.36,1.87a10.57,10.57,0,0,0-1.62,1.87c-.49.91-.51,2-1,2.92l-.21.21h-.18a1.43,1.43,0,0,1-.86-.64,2.51,2.51,0,0,1,.1-2.2,9.77,9.77,0,0,1,1.82-2.86,9.68,9.68,0,0,0,.94-1.08c.74-1.11.17-1.3-.71-1.89-.29-.19-.88-.81-1.27-.78a20.45,20.45,0,0,1-4.83,2.59A37,37,0,0,0,16.35,35C14,36.1,12.8,38,11.88,36.8c-1.12-1.45,1.57-2.9,4-4,1.47-.65,3.09-.94,4.35-1.57a11,11,0,0,0,3.65-2.63,12.27,12.27,0,0,1-1.63-6.75l.18-1.11a27.09,27.09,0,0,0-7.72-2.62,6.1,6.1,0,0,0-2.22.05c-1.65.41-2.83,1.8-4.23,2.75a8.68,8.68,0,0,1-6.95,1.2c-.49-.12-1-.36-1.15-.85a1.06,1.06,0,0,1,.61-1.11,3.33,3.33,0,0,1,1.33-.27,12,12,0,0,0,5.31-1.42c.7-.42,1.33-.94,2-1.37a10.94,10.94,0,0,1,5.1-1.54,19.78,19.78,0,0,1,5.35.48,24,24,0,0,0,3,.54l.41-.07.18-.31a19,19,0,0,1,1.32-3l.11-.33-.11-.27A13.22,13.22,0,0,0,19.93,8a13.38,13.38,0,0,1-3.42-2.12,8.5,8.5,0,0,1-1.77-3.85,1.54,1.54,0,0,1-.06-.81,1.71,1.71,0,0,1,.37-.57l.27-.27A1.32,1.32,0,0,1,16,.27h.17l.21.12a1.19,1.19,0,0,1,.37.36l.08.2.19.54.08.28,0,.39,0,.18.06.14c.08.27.16.53.27.79l.1.22a4.93,4.93,0,0,0,2.66,2.16A28.83,28.83,0,0,1,23.5,7a6.52,6.52,0,0,1,3,3.64c.05.17.15.37.33.35l.18-.1a23.85,23.85,0,0,1,2.36-1.47l.62-.4a14.55,14.55,0,0,0,.4-3.52c-.06-1.74-.18-3.11.55-4.23s1.8-.62,1.91-.1S32.35,2,32.25,3c0,0-.1,1.53-.07,2.49a11.23,11.23,0,0,1-.31,2.8c-.11.21,2.13-.27,5.15.19a15,15,0,0,1,4.73,1.54,5.15,5.15,0,0,0,1.78-2.32c.52-1.61-.64-2.82,0-3.21C44.27,4,45.44,5.74,45.42,7a4.62,4.62,0,0,1-1,2.77c-.44.58-.94,1.23-.78,1.31.32.17.77.63,1.1.7.51.11.92-.43,1.22-.8L48,8.49C49.08,7.17,50.34,5.74,52,5.56a1.69,1.69,0,0,1,1.08.19.87.87,0,0,1,.42,1,1.07,1.07,0,0,1-1,.63c-.41,0-.83,0-1.24,0A3.35,3.35,0,0,0,49.4,8.87a39.64,39.64,0,0,0-3,4.64c.09-.17.91.79.93.81.48.55.85,1.17,1.28,1.77s.37,1.2.92,1.36c.76.23,1.62.2,2.39.42,1.4.39,3.21-.44,4.29-1.05a7.32,7.32,0,0,1,3.82-.9c1.09,0,2.49-1,3-1.12s1.37.54,1,1.32-2.39,1.37-3.5,1.57a8.85,8.85,0,0,0-2.82.49c-1.21.53-2.28,1.89-4.17,2.12a19.09,19.09,0,0,1-4.26-.13,9.27,9.27,0,0,1,.13,1.55c0,.75-.1,1.36-.1,1.36a17.57,17.57,0,0,1,3.57.47c1.7.44,2.32,1.78,3.33,2s3.42-.85,3.39.49-2.41,1.52-3.63,1.2-1.81-1.47-3.58-1.87a5.74,5.74,0,0,0-3.36.29,11.5,11.5,0,0,1-1.17,2.31,9.78,9.78,0,0,1-2.41,2c-.61.44-.22,2.3.28,3.26a5.7,5.7,0,0,1,.6,3.44c-.21.92-1.85,1-2.1-.31a16,16,0,0,0-1.28-3.52c-.32-.69-.25-1.17-.87-1.12a11.47,11.47,0,0,0-2.43.67l-1.63.5a9.36,9.36,0,0,0-1.17,5.51c.2,1.42,1.26,3.28,1.68,4.54.73,2.2.63,3.55,1.33,5,.87,1.8-2,3.11-3.28-.54-.25-.72-.24-2-.62-3.19-.69-2.09-1.85-4.23-2.11-5.66a18.59,18.59,0,0,1-.27-4.08s0-.41-.64-.51"/><path class="cls-2" d="M33.29,33.9a.6.6,0,0,1,.43.57,18.64,18.64,0,0,0,.27,4,16.37,16.37,0,0,0,1.08,3c.36.85.73,1.74,1,2.62a10.33,10.33,0,0,1,.38,1.94,7.05,7.05,0,0,0,.23,1.25c.65,1.83,1.6,2.16,2,2.22a1,1,0,0,0,1-.39,1.13,1.13,0,0,0,0-1.19,9.35,9.35,0,0,1-.7-2.44A19.41,19.41,0,0,0,38.41,43c-.15-.45-.38-1-.63-1.54a12.94,12.94,0,0,1-1.06-3,9.56,9.56,0,0,1,1.18-5.59l0,0,1.67-.51,1.14-.36a5,5,0,0,1,1.32-.32c.56,0,.68.31.82.71l.19.49a15.87,15.87,0,0,1,1.29,3.55,1,1,0,0,0,1,.87.81.81,0,0,0,.84-.57,5.6,5.6,0,0,0-.58-3.35c-.47-.89-1-2.91-.24-3.43l.37-.25a8,8,0,0,0,2-1.74,8.11,8.11,0,0,0,1-1.89,2.59,2.59,0,0,1,.18-.42c.21-.33,2.21-.64,3.5-.34a5.66,5.66,0,0,1,2.22,1.11,4.08,4.08,0,0,0,1.37.76,4.21,4.21,0,0,0,3.07-.35.92.92,0,0,0,.4-.73.48.48,0,0,0-.14-.4c-.29-.26-1.05-.14-1.73,0a4.54,4.54,0,0,1-1.42.08,3.08,3.08,0,0,1-1.31-.8,4.94,4.94,0,0,0-2-1.19,17.47,17.47,0,0,0-3.53-.46h-.15l0-.14s.07-.61.1-1.35a9.14,9.14,0,0,0-.13-1.53l0-.18.18,0a19.18,19.18,0,0,0,4.22.13,6.1,6.1,0,0,0,2.85-1.31,7.72,7.72,0,0,1,1.29-.79,4.52,4.52,0,0,1,1.85-.4,7.53,7.53,0,0,0,1-.1c1.14-.21,3.08-.79,3.41-1.5a.69.69,0,0,0-.08-.74,1,1,0,0,0-.79-.4,3.82,3.82,0,0,0-.79.35,5.94,5.94,0,0,1-2.19.78h-.28a6.77,6.77,0,0,0-3.48.87c-1.23.7-3,1.46-4.39,1.07a7.68,7.68,0,0,0-1.14-.19,7.39,7.39,0,0,1-1.26-.22c-.42-.13-.58-.52-.74-.9l-.25-.51-.36-.52a14,14,0,0,0-.91-1.24,3.92,3.92,0,0,0-.81-.78l.09-.05-.24-.13a22.38,22.38,0,0,1,3-4.65,3.45,3.45,0,0,1,2-1.56,3.51,3.51,0,0,1,.73,0,4.38,4.38,0,0,0,.52,0,1,1,0,0,0,.87-.54.75.75,0,0,0-.36-.8,1.55,1.55,0,0,0-1-.17c-1.62.17-2.85,1.52-4,2.88L46,11.14c-.31.38-.74.91-1.3.78a2.23,2.23,0,0,1-.73-.43,3.56,3.56,0,0,0-.4-.28l-.1-.13c0-.21.23-.6.83-1.38a4.43,4.43,0,0,0,1-2.69A3,3,0,0,0,44.1,4.67a.5.5,0,0,0-.54,0c-.19.12-.12.38,0,.88a3.73,3.73,0,0,1,.08,2.26,5.69,5.69,0,0,1-1.82,2.41l-.16,0A14.84,14.84,0,0,0,37,8.66a20.61,20.61,0,0,0-4.39-.15c-.63,0-.78,0-.85-.07V8.28A11.46,11.46,0,0,0,32,5.54c0-1,.07-2.49.07-2.51a3.27,3.27,0,0,1,.38-1.24,1,1,0,0,0,.17-.63.68.68,0,0,0-.56-.45,1.1,1.1,0,0,0-1.11.6c-.64,1-.6,2.19-.55,3.72l0,.43A14.58,14.58,0,0,1,30.08,9c0,.12-.2.22-.56.41l-.12.06c-.29.18-.58.35-.86.51a10.75,10.75,0,0,0-1.48,1l-.25.13c-.14,0-.34,0-.47-.44a6.38,6.38,0,0,0-2.9-3.57,13,13,0,0,0-2.08-.83c-.38-.13-.79-.23-1.19-.4a4.93,4.93,0,0,1-2.71-2.26A3.94,3.94,0,0,1,17.24,3l-.08-.28,0-.34V2.32L17,2c0-.22-.09-.43-.15-.64l-.08-.23-.27-.4a1.12,1.12,0,0,0-.37-.3.83.83,0,0,0-.67,0,1.09,1.09,0,0,0-.62.67,1.76,1.76,0,0,0,0,.82,8.45,8.45,0,0,0,1.72,3.83A8.8,8.8,0,0,0,19.1,7.43l.9.48a13.32,13.32,0,0,1,4.86,4.62l.13.33-.13.41a18.86,18.86,0,0,0-1.31,3l-.23.37a.74.74,0,0,1-.5.09,18,18,0,0,1-2.36-.41l-.61-.13a19.4,19.4,0,0,0-5.31-.48,10.88,10.88,0,0,0-5,1.52c-.32.2-.63.42-.92.63s-.72.52-1.1.74A12.37,12.37,0,0,1,2.1,20H2a3.11,3.11,0,0,0-1.22.25.94.94,0,0,0-.54,1c.09.34.44.59,1.05.75a8.55,8.55,0,0,0,6.84-1.18c.44-.3.86-.64,1.27-1a8,8,0,0,1,3-1.8A6.09,6.09,0,0,1,14.72,18a27.17,27.17,0,0,1,7.76,2.64l-.05.12,0,.12.06-.05-.16,1.05a11.12,11.12,0,0,0,1.41,6.25,1.66,1.66,0,0,1,.21.48c0,.33-1.77,1.78-3.72,2.75a14.73,14.73,0,0,1-2.23.82,19.76,19.76,0,0,0-2.12.75c-1.64.73-3.86,1.82-4.14,2.93a.94.94,0,0,0,.2.84c.49.64,1,.28,2.16-.53a13.89,13.89,0,0,1,2.14-1.35,17.79,17.79,0,0,1,3-1.09c.51-.15,1-.3,1.62-.51a17.13,17.13,0,0,0,4.39-2.31c.31-.22.39-.27.47-.28.34,0,.75.31,1.08.59l.27.21.26.17c.43.28.76.5.84.85a1.45,1.45,0,0,1-.35,1,6.63,6.63,0,0,1-.71.84l-.24.26a9.6,9.6,0,0,0-1.79,2.82A2.31,2.31,0,0,0,25,39.52a1.28,1.28,0,0,0,.78.58h.11L26,40a5.63,5.63,0,0,0,.52-1.46A6.26,6.26,0,0,1,27,37.05a6.21,6.21,0,0,1,1.13-1.38c.17-.17.34-.34.51-.52a4.08,4.08,0,0,0,.46-.73,2.5,2.5,0,0,1,.95-1.17,1.4,1.4,0,0,1,1.08.13l.33.12a10.7,10.7,0,0,0,1.49.31Zm5,15.81a3.49,3.49,0,0,1-1.79-2.28,7.07,7.07,0,0,1-.25-1.3,10.19,10.19,0,0,0-.37-1.89c-.29-.88-.66-1.75-1-2.6a16.58,16.58,0,0,1-1.09-3.08,19,19,0,0,1-.27-4.11s0-.29-.53-.37a11.2,11.2,0,0,1-1.53-.32L31,33.63a1.19,1.19,0,0,0-.88-.14c-.32.14-.58.6-.82,1.06a4.19,4.19,0,0,1-.49.78c-.17.18-.34.36-.51.53a6.05,6.05,0,0,0-1.09,1.32,6.11,6.11,0,0,0-.48,1.4,5.94,5.94,0,0,1-.54,1.52l-.29.27h-.24a1.55,1.55,0,0,1-.94-.7,2.54,2.54,0,0,1,.09-2.32,9.83,9.83,0,0,1,1.84-2.9l.25-.26a6.15,6.15,0,0,0,.68-.8,1.25,1.25,0,0,0,.31-.85c-.05-.25-.33-.43-.72-.69l-.26-.17-.29-.23c-.26-.22-.66-.55-.89-.53l-.34.23A17.41,17.41,0,0,1,21,33.49c-.59.21-1.12.37-1.63.52a17.65,17.65,0,0,0-2.91,1.07,13.49,13.49,0,0,0-2.1,1.32c-1,.75-1.86,1.35-2.53.48a1.21,1.21,0,0,1-.25-1.07c.31-1.2,2.45-2.29,4.29-3.1A19.4,19.4,0,0,1,18,31.94a14.82,14.82,0,0,0,2.2-.81,12.41,12.41,0,0,0,3.57-2.51l-.18-.37a11.36,11.36,0,0,1-1.44-6.39,7.29,7.29,0,0,1,.15-1,26.57,26.57,0,0,0-7.57-2.57,5.85,5.85,0,0,0-2.17.05,7.66,7.66,0,0,0-2.9,1.74c-.41.34-.84.69-1.29,1a8.82,8.82,0,0,1-7.06,1.22c-.71-.18-1.13-.5-1.24-.94A1.19,1.19,0,0,1,.7,20.07,3.3,3.3,0,0,1,2,19.79h.06a11.73,11.73,0,0,0,5.26-1.4c.37-.22.73-.48,1.08-.73s.62-.44.94-.64a11.12,11.12,0,0,1,5.17-1.56,19.55,19.55,0,0,1,5.38.49l.61.13a17.66,17.66,0,0,0,2.32.4l.32,0,.14-.25a18.87,18.87,0,0,1,1.33-3l.09-.26-.09-.21a13,13,0,0,0-4.76-4.52L19,7.69A9,9,0,0,1,16.42,6a8.53,8.53,0,0,1-1.8-3.91,1.67,1.67,0,0,1-.06-.88,1.77,1.77,0,0,1,.63-.87C15.5.21,16-.1,16.32,0h0c.46.19.71.94,1,1.58.08.21.09.57.15.78a6.92,6.92,0,0,0,.3,1,4.71,4.71,0,0,0,2.58,2.13c.38.15.77.31,1.15.45a13.2,13.2,0,0,1,2.1.89,6.65,6.65,0,0,1,3,3.72l.18.26.11-.07a10.65,10.65,0,0,1,1.52-1c.28-.16.57-.32.85-.5l.14-.07.43-.26a14.41,14.41,0,0,0,.39-3.47V5c-.06-1.57-.1-2.82.59-3.87A1.32,1.32,0,0,1,32.17.45a.93.93,0,0,1,.77.65,1.19,1.19,0,0,1-.19.8,3,3,0,0,0-.36,1.15s-.1,1.53-.07,2.48A12.79,12.79,0,0,1,32,8.26l.56,0A20.81,20.81,0,0,1,37,8.4a15.47,15.47,0,0,1,4.74,1.54A6,6,0,0,0,43.41,7.7a3.46,3.46,0,0,0-.09-2.11c-.14-.5-.26-.93.1-1.17a.75.75,0,0,1,.81,0A3.26,3.26,0,0,1,45.55,7a4.67,4.67,0,0,1-1,2.85A7,7,0,0,0,43.73,11a4.11,4.11,0,0,1,.39.27,2.1,2.1,0,0,0,.63.39c.41.09.76-.34,1-.69l2.1-2.57C49,7,50.32,5.61,52,5.43a1.8,1.8,0,0,1,1.16.21,1,1,0,0,1,.47,1.1,1.22,1.22,0,0,1-1.1.72,4.94,4.94,0,0,1-.55,0,3.37,3.37,0,0,0-.68,0A3.23,3.23,0,0,0,49.51,9a39.47,39.47,0,0,0-2.89,4.47,4.42,4.42,0,0,1,.83.81,14.22,14.22,0,0,1,.93,1.27l.35.51a2.88,2.88,0,0,1,.28.57c.14.34.27.66.57.75a6.93,6.93,0,0,0,1.21.21,7.92,7.92,0,0,1,1.18.2c1.38.38,3.22-.49,4.19-1a7.08,7.08,0,0,1,3.61-.91H60A5.92,5.92,0,0,0,62.13,15a3.79,3.79,0,0,1,.87-.37,1.23,1.23,0,0,1,1,.5,1,1,0,0,1,.11,1c-.4.86-2.53,1.46-3.6,1.65a7.61,7.61,0,0,1-1,.1,4.24,4.24,0,0,0-1.75.38,7.36,7.36,0,0,0-1.24.77,6.32,6.32,0,0,1-3,1.36,18.81,18.81,0,0,1-4.11-.11,8.53,8.53,0,0,1,.1,1.41c0,.53-.06,1-.08,1.22a17.7,17.7,0,0,1,3.45.47,5.15,5.15,0,0,1,2.14,1.24,2.94,2.94,0,0,0,1.19.74,4.58,4.58,0,0,0,1.32-.09c.76-.12,1.55-.24,1.94.1a.74.74,0,0,1,.23.6,1.16,1.16,0,0,1-.51.94,4.44,4.44,0,0,1-3.29.39,4.34,4.34,0,0,1-1.45-.8,5.33,5.33,0,0,0-2.12-1.07,6,6,0,0,0-3.23.23,3.09,3.09,0,0,0-.16.37A8.27,8.27,0,0,1,48,28a8.18,8.18,0,0,1-2.07,1.8l-.36.25c-.52.37-.18,2.14.32,3.09a5.81,5.81,0,0,1,.61,3.53,1.06,1.06,0,0,1-1.1.77,1.28,1.28,0,0,1-1.26-1.09,15.67,15.67,0,0,0-1.26-3.49,4.93,4.93,0,0,1-.2-.51c-.15-.44-.21-.56-.55-.53a4.73,4.73,0,0,0-1.26.3l-1.14.36L38.11,33A9.23,9.23,0,0,0,37,38.37a12.79,12.79,0,0,0,1,3c.25.57.49,1.11.64,1.57a19.54,19.54,0,0,1,.65,2.6A9.15,9.15,0,0,0,40,47.87a1.39,1.39,0,0,1-.06,1.46,1.3,1.3,0,0,1-1.27.49,1.67,1.67,0,0,1-.4-.11"/><path class="cls-3" d="M37.74,14.78c.55-.35,1.14-.22,1.63-.74s.36-2,1.45-2a1.17,1.17,0,0,1,.88.56c.21.38-.13.83-.41,1.05a7.48,7.48,0,0,0-.71.48,3.89,3.89,0,0,0-.83,1.77c-.11.39.48.64.59.24a2.68,2.68,0,0,1,1.2-1.9,1.47,1.47,0,0,0,.78-.81,1.49,1.49,0,0,0-.65-1.78,1.64,1.64,0,0,0-2.14.31c-.37.56-.18,1.34-.76,1.79-.4.31-1,.27-1.41.54s0,.73.39.51"/><path class="cls-3" d="M34.95,15.26a3.52,3.52,0,0,1-2.64-2.14,8,8,0,0,0-.8-1.6,1.84,1.84,0,0,0-2.9-.42,1.9,1.9,0,0,0,.22,2.57c1.07,1.35,2.88,2.09,2.75,4.11,0,.41.61.49.63.08a4.33,4.33,0,0,0-1.7-3.5c-.63-.57-2.14-1.56-1.61-2.61s1.52-.56,2,.08a7.2,7.2,0,0,1,.82,1.64,4.14,4.14,0,0,0,3.1,2.41c.41.08.48-.56.08-.63"/><path class="cls-3" d="M27.94,19.12c-.67.22-1.2-.66-1.7-.92a1.38,1.38,0,0,0-1-.14,2.06,2.06,0,0,0-1.39,1.76,1.55,1.55,0,0,0,.91,1.6,1.85,1.85,0,0,0,1.11.11,3.36,3.36,0,0,1,1.87-.06c.39.12.64-.47.24-.59a3.24,3.24,0,0,0-1.49-.2,4.54,4.54,0,0,1-1.11.25,1,1,0,0,1-.8-1.41c.26-.64.84-1,1.49-.66.32.18.55.49.87.69a1.39,1.39,0,0,0,1.26.17c.39-.13.14-.72-.25-.59"/><path class="cls-3" d="M31.73,22a5.12,5.12,0,0,1-1.38,2.33A11.47,11.47,0,0,0,28.9,25.6a1.48,1.48,0,0,0,.38,2.3A1.52,1.52,0,0,0,31.34,27a4.77,4.77,0,0,1,1.56-1.55c.68-.53,1.33-1.07,2-1.57.34-.24-.05-.74-.39-.51-.87.61-1.67,1.32-2.55,1.93a3.53,3.53,0,0,0-1,.88c-.27.4-.32.92-.82,1.13a.76.76,0,0,1-.93-.23c-.36-.5.06-1.09.42-1.43s.79-.6,1.15-.94a5.65,5.65,0,0,0,1.48-2.49c.11-.39-.48-.64-.59-.24"/><path class="cls-3" d="M37.76,23.92a10,10,0,0,1,.47,2.24c.08.76-.12,1.44-.1,2.19A1.57,1.57,0,0,0,40.2,30c1.44-.5,1.17-1.83.83-3a5.13,5.13,0,0,1-.23-1.87,2.81,2.81,0,0,0-.21-1.6c-.22-.35-.72,0-.51.39s.08,1.13.05,1.56a3.26,3.26,0,0,0,.11,1.09c.23.89,1.11,2.83-.57,2.87-1.39,0-.74-1.92-.77-2.75a10.36,10.36,0,0,0-.56-3c-.14-.39-.73-.14-.59.25"/><path class="cls-3" d="M43.22,19.19A1.63,1.63,0,0,0,44.81,19c.54-.27,2.24-1.12,2.61-.24a1,1,0,0,1-.32,1.09,1.54,1.54,0,0,1-.89.24c-.38,0-.74-.11-1.12-.1a2.86,2.86,0,0,0-1.62.61c-.33.24.06.75.39.51a2.74,2.74,0,0,1,2.13-.4,2.23,2.23,0,0,0,1.14-.14,1.62,1.62,0,0,0,1-1.65,1.51,1.51,0,0,0-1.44-1.13,3.05,3.05,0,0,0-1.18.2c-.58.19-1.46.89-2.08.59-.37-.18-.61.41-.24.59"/><path class="cls-3" d="M35.54,27.09A1.43,1.43,0,0,0,35,28.32c0,.62.16,2.55-.79,2.69a.89.89,0,0,1-1-.7,1.36,1.36,0,0,1,.08-.72,10.46,10.46,0,0,1,.6-1,2.87,2.87,0,0,0,.26-1.88c-.07-.4-.71-.32-.63.09a2.69,2.69,0,0,1-.57,2.09A2.27,2.27,0,0,0,32.54,30a1.63,1.63,0,0,0,1,1.68,1.49,1.49,0,0,0,1.66-.77,3,3,0,0,0,.35-1.15c.08-.59-.17-1.75.37-2.13.34-.24-.05-.74-.39-.51"/></g></g></svg>