<svg xmlns="http://www.w3.org/2000/svg" viewBox="0 0 1645 105"><defs><style>.cls-1{fill:#faecd7;}</style></defs><title>wave-front</title><g id="Слой_2" data-name="Слой 2"><g id="Слой_1-2" data-name="Слой 1"><path class="cls-1" d="M1645.48,105.68H0V36.85c38.57,0,76.3-35.5,117.92-35.5s61.68,46,106.27,46,43.1-21,75.8-21,36.41,32.95,72.83,32.95,42.36-41.43,85.46-41.43,45.19,28,80.12,28S596.73,3,647.71,3s64.18,37.94,103.57,37.94C785.63,40.91,789.52,17,840,17s38.87,44.59,106.5,44.59,93.85-36.14,142-36.14,45,41.24,87,41.24,61.07-51.83,111-51.83,56.7,36.92,102.84,36.92S1475.07,0,1534.73,0s72.19,36.85,110.75,36.85v68.83Z"/></g></g></svg>